<?xml version="1.0" encoding="UTF-8" standalone="no"?>
<!DOCTYPE svg PUBLIC "-//W3C//DTD SVG 1.1//EN" "http://www.w3.org/Graphics/SVG/1.1/DTD/svg11.dtd">
<svg width="100%" height="100%" viewBox="0 0 27 34" version="1.1" xmlns="http://www.w3.org/2000/svg" xmlns:xlink="http://www.w3.org/1999/xlink" xml:space="preserve" xmlns:serif="http://www.serif.com/" style="fill-rule:evenodd;clip-rule:evenodd;stroke-linejoin:round;stroke-miterlimit:2;">
    <path d="M13.894,13.58C14.92,14.812 16.719,14.276 17.514,13.436C18.309,12.601 18.592,11.439 18.848,10.332C19.431,7.806 20.011,5.156 19.29,2.662C19.075,1.916 18.73,1.181 18.138,0.653C17.546,0.125 16.675,-0.155 15.909,0.09C15.001,0.377 14.486,1.279 14.125,2.126C13.067,4.616 12.597,7.34 12.767,10.025C12.848,11.284 13.087,12.589 13.894,13.58Z" style="fill:rgb(254,173,84);fill-rule:nonzero;"/>
    <g opacity="0.2">
        <g opacity="0.2">
            <path d="M13.894,13.58C14.92,14.812 16.719,14.276 17.514,13.436C18.309,12.601 18.592,11.439 18.848,10.332C19.431,7.806 20.011,5.156 19.29,2.662C19.075,1.916 18.73,1.181 18.138,0.653C17.546,0.125 16.675,-0.155 15.909,0.09C15.001,0.377 14.486,1.279 14.125,2.126C13.067,4.616 12.597,7.34 12.767,10.025C12.848,11.284 13.087,12.589 13.894,13.58Z" style="fill-opacity:0.2;fill-rule:nonzero;"/>
        </g>
    </g>
    <path d="M17.846,19.886C19.334,19.032 21.138,18.826 22.865,18.993C23.793,19.082 24.766,19.288 25.431,19.91C26.1,20.531 26.295,21.689 25.613,22.299C25.208,22.665 24.616,22.75 24.065,22.777C22.727,22.843 21.231,22.707 20.214,23.543C19.634,24.021 19.277,24.775 18.56,25.035C17.863,25.291 17.032,24.934 16.614,24.339C16.197,23.745 16.132,22.976 16.261,22.272C16.261,22.272 16.346,20.745 17.846,19.886Z" style="fill:rgb(254,173,84);fill-rule:nonzero;"/>
    <path d="M11.433,15.585C12.378,14.361 12.459,12.655 11.912,11.229C11.36,9.803 10.254,8.626 9.005,7.686C7.542,6.586 5.851,5.762 4.059,5.277C3.35,5.082 2.612,4.943 1.891,5.055C1.169,5.164 0.46,5.568 0.16,6.209C-0.282,7.157 0.273,8.241 0.853,9.12C1.874,10.666 3.026,12.131 4.286,13.503C5.3,14.606 6.451,15.686 7.919,16.125C9.386,16.564 10.866,16.413 11.563,15.414" style="fill:rgb(254,173,84);fill-rule:nonzero;"/>
    <path d="M15.106,33.004C15.122,33.004 15.139,32.794 15.155,32.414C15.171,31.986 15.187,31.446 15.211,30.809C15.244,30.133 15.297,29.328 15.434,28.442C15.572,27.564 15.811,26.605 16.14,25.625C16.48,24.654 16.918,23.76 17.449,23.038C17.976,22.311 18.609,21.767 19.212,21.441C19.817,21.107 20.368,20.955 20.749,20.877C21.134,20.815 21.353,20.772 21.353,20.757C21.353,20.741 21.134,20.749 20.733,20.784C20.34,20.834 19.764,20.963 19.123,21.289C18.483,21.608 17.81,22.16 17.259,22.906C16.699,23.648 16.249,24.557 15.901,25.548C15.568,26.542 15.329,27.51 15.203,28.411C15.078,29.309 15.045,30.121 15.033,30.801C15.025,31.481 15.041,32.033 15.057,32.414C15.07,32.794 15.09,33.004 15.106,33.004Z" style="fill:rgb(38,50,56);fill-rule:nonzero;"/>
    <path d="M15.138,31.769C15.147,31.769 15.147,31.675 15.138,31.497C15.126,31.294 15.106,31.034 15.086,30.719C15.041,30.047 14.976,29.072 14.936,27.863C14.839,25.451 14.839,22.117 15.017,18.437C15.199,14.758 15.54,11.435 15.893,9.05C15.974,8.451 16.059,7.911 16.144,7.441C16.221,6.967 16.29,6.559 16.355,6.229C16.411,5.918 16.456,5.665 16.492,5.463C16.521,5.288 16.533,5.195 16.525,5.191C16.517,5.191 16.488,5.281 16.444,5.452C16.395,5.65 16.334,5.902 16.257,6.209C16.176,6.54 16.095,6.944 16.002,7.418C15.905,7.888 15.807,8.428 15.714,9.026C15.313,11.416 14.944,14.742 14.761,18.429C14.583,22.117 14.616,25.458 14.753,27.875C14.818,29.084 14.907,30.059 14.984,30.731C15.025,31.046 15.057,31.302 15.086,31.504C15.114,31.679 15.13,31.769 15.138,31.769Z" style="fill:rgb(38,50,56);fill-rule:nonzero;"/>
    <path d="M14.733,25.338C14.749,25.338 14.729,25.047 14.672,24.526C14.607,24.005 14.482,23.259 14.271,22.346C14.048,21.437 13.748,20.357 13.314,19.191C12.897,18.021 12.345,16.763 11.668,15.488C10.339,12.924 8.624,10.868 7.165,9.617C6.82,9.283 6.447,9.05 6.143,8.817C5.989,8.704 5.847,8.595 5.709,8.506C5.571,8.424 5.438,8.35 5.32,8.28C4.85,8.012 4.586,7.872 4.578,7.888C4.542,7.942 5.628,8.471 7.043,9.741C8.45,11.012 10.12,13.056 11.441,15.597C12.114,16.86 12.666,18.107 13.091,19.265C13.533,20.419 13.849,21.487 14.093,22.385C14.328,23.286 14.478,24.029 14.571,24.541C14.664,25.058 14.717,25.342 14.733,25.338Z" style="fill:rgb(38,50,56);fill-rule:nonzero;"/>
</svg>
