<?xml version="1.0" encoding="UTF-8" standalone="no"?>
<!DOCTYPE svg PUBLIC "-//W3C//DTD SVG 1.1//EN" "http://www.w3.org/Graphics/SVG/1.1/DTD/svg11.dtd">
<svg width="100%" height="100%" viewBox="0 0 13 13" version="1.1" xmlns="http://www.w3.org/2000/svg" xmlns:xlink="http://www.w3.org/1999/xlink" xml:space="preserve" xmlns:serif="http://www.serif.com/" style="fill-rule:evenodd;clip-rule:evenodd;stroke-linejoin:round;stroke-miterlimit:2;">
    <g transform="matrix(1,0,0,1,1.17007e-08,5.70213e-05)">
        <clipPath id="_clip1">
            <path d="M11.685,9.258L9.256,7.638C8.948,7.434 8.535,7.501 8.307,7.792L7.6,8.702C7.509,8.822 7.343,8.856 7.212,8.783L7.077,8.709C6.631,8.466 6.076,8.163 4.958,7.044C3.839,5.925 3.536,5.369 3.293,4.924L3.219,4.79C3.145,4.658 3.179,4.492 3.299,4.4L4.208,3.693C4.498,3.465 4.566,3.052 4.362,2.744L2.743,0.315C2.534,0.001 2.115,-0.093 1.792,0.101L0.776,0.711C0.457,0.899 0.223,1.202 0.123,1.559C-0.243,2.892 0.032,5.192 3.42,8.58C6.115,11.275 8.122,12 9.5,12C9.818,12.001 10.134,11.96 10.44,11.877C10.797,11.777 11.101,11.543 11.288,11.224L11.899,10.209C12.093,9.885 11.999,9.466 11.685,9.258ZM11.554,10.004L10.945,11.019C10.811,11.25 10.592,11.419 10.335,11.492C9.105,11.83 6.956,11.55 3.703,8.297C0.451,5.044 0.171,2.895 0.509,1.665C0.582,1.408 0.751,1.189 0.982,1.054L1.998,0.445C2.138,0.36 2.32,0.401 2.41,0.538L3.29,1.859L4.028,2.966C4.117,3.1 4.088,3.28 3.962,3.378L3.052,4.086C2.776,4.297 2.697,4.68 2.867,4.984L2.939,5.115C3.195,5.584 3.513,6.167 4.673,7.327C5.833,8.487 6.416,8.805 6.884,9.06L7.016,9.133C7.319,9.303 7.702,9.224 7.914,8.947L8.621,8.038C8.72,7.912 8.899,7.883 9.033,7.971L11.462,9.591C11.598,9.682 11.639,9.863 11.554,10.004Z"/>
        </clipPath>
        <g clip-path="url(#_clip1)">
            <rect x="-5" y="-5" width="22" height="22" style="fill:white;"/>
        </g>
    </g>
</svg>
