<?xml version="1.0" encoding="UTF-8" standalone="no"?>
<!DOCTYPE svg PUBLIC "-//W3C//DTD SVG 1.1//EN" "http://www.w3.org/Graphics/SVG/1.1/DTD/svg11.dtd">
<svg width="100%" height="100%" viewBox="0 0 212 179" version="1.1" xmlns="http://www.w3.org/2000/svg" xmlns:xlink="http://www.w3.org/1999/xlink" xml:space="preserve" xmlns:serif="http://www.serif.com/" style="fill-rule:evenodd;clip-rule:evenodd;stroke-linejoin:round;stroke-miterlimit:2;">
    <circle cx="110.5" cy="89.5" r="89.5" style="fill:rgb(1,84,104);fill-opacity:0.13;"/>
    <path d="M206.413,79.983C206.522,81.264 206.194,86.546 207.086,86.593C207.399,86.609 207.587,84.812 207.587,83.921C207.696,84.702 207.634,86.89 208.056,86.968C208.526,87.062 208.698,84.749 208.698,84.03C208.698,84.749 209.011,86.734 209.418,86.812C209.809,86.89 209.872,84.562 209.872,83.78C210.185,85.14 210.279,86.952 210.748,86.952C211.609,86.952 211.155,82.405 210.92,80.967C210.858,80.624 210.858,79.905 210.639,79.748C210.075,79.358 207.07,79.873 206.35,79.983" style="fill:rgb(237,215,200);fill-rule:nonzero;"/>
    <path d="M204.628,81.186L211.953,81.014C211.953,81.014 210.419,55.152 202.39,45.51L204.628,81.186Z" style="fill:rgb(7,155,171);fill-rule:nonzero;"/>
    <path d="M203.518,140.49C204.457,141.131 208.041,144.694 207.415,146.085C207.024,146.976 204.926,146.038 204.347,145.694C203.205,144.991 202.344,143.756 201.514,142.756C201.279,143.147 201.233,144.382 200.716,144.553C200.043,144.85 199.761,143.96 199.808,143.475C199.824,142.85 200.215,141.272 200.606,140.772C200.982,140.318 200.606,140.428 201.279,140.412C201.718,140.428 203.111,140.365 203.518,140.49Z" style="fill:rgb(254,173,84);fill-rule:nonzero;"/>
    <path d="M203.486,137.146L203.752,140.647C203.752,140.647 202.97,142.866 200.465,141.084L200.246,137.365L203.486,137.146Z" style="fill:rgb(238,213,197);fill-rule:nonzero;"/>
    <path d="M191.45,140.443C192.389,141.084 195.973,144.647 195.347,146.038C194.956,146.944 192.858,145.991 192.279,145.647C191.137,144.944 190.276,143.71 189.446,142.709C189.212,143.1 189.165,144.319 188.648,144.506C187.975,144.819 187.693,143.928 187.74,143.428C187.756,142.819 188.147,141.225 188.539,140.725C188.914,140.272 188.539,140.381 189.212,140.365C189.634,140.365 191.043,140.318 191.45,140.443Z" style="fill:rgb(254,173,84);fill-rule:nonzero;"/>
    <path d="M191.419,137.099L191.685,140.6C191.685,140.6 190.902,142.819 188.398,141.037L188.508,136.568L191.419,137.099Z" style="fill:rgb(238,213,197);fill-rule:nonzero;"/>
    <path d="M207.039,90.312L203.752,140.647L200.465,141.1L196.912,99.298L191.669,140.6L188.397,141.037L187.317,89.14L207.039,90.312Z" style="fill:rgb(238,213,197);fill-rule:nonzero;"/>
    <path d="M191.528,42.775L202.406,43.244C202.406,43.244 205.239,57.636 205.896,60.512C208.04,70.028 210.106,109.33 210.545,113.471C210.545,113.471 197.929,116.503 183.357,114.55L186.112,63.887C186.096,63.887 188.914,50.167 191.528,42.775Z" style="fill:rgb(7,155,171);fill-rule:nonzero;"/>
    <path d="M183.452,81.03C183.499,82.311 182.904,87.578 183.78,87.671C184.093,87.703 184.375,85.921 184.422,85.03C184.5,85.812 184.313,87.984 184.735,88.093C185.205,88.203 185.486,85.921 185.533,85.202C185.502,85.921 185.706,87.921 186.113,88.015C186.504,88.125 186.676,85.796 186.723,85.015C186.958,86.39 186.958,88.203 187.443,88.218C188.304,88.265 188.069,83.702 187.928,82.249C187.897,81.921 187.928,81.186 187.709,81.014C187.177,80.592 184.14,80.952 183.405,81.03" style="fill:rgb(237,215,200);fill-rule:nonzero;"/>
    <path d="M189.352,81.452L182.027,81.655C182.027,81.655 184.469,53.417 191.998,43.384L189.352,81.452Z" style="fill:rgb(7,155,171);fill-rule:nonzero;"/>
    <path d="M192.075,34.899C191.105,32.399 188.381,31.648 186.863,34.024C185.016,36.852 186.425,45.213 190.666,45.432L191.214,44.447C192.842,42.056 193.155,37.602 192.075,34.899Z" style="fill:rgb(214,119,103);fill-rule:nonzero;"/>
    <path d="M190.385,42.759C187.943,46.572 187.646,51.167 192.138,53.604C196.239,55.855 204.472,57.121 206.522,51.073C207.899,47.26 205.254,44.431 201.92,43.744C198.195,42.962 194.58,42.478 190.776,42.275" style="fill:rgb(254,173,84);fill-rule:nonzero;"/>
    <path d="M190.792,42.525C189.805,42.681 186.628,42.369 187.943,40.806C188.272,40.4 189.978,40.15 190.478,40.4C191.292,40.728 191.042,41.29 191.136,42.197" style="fill:rgb(238,213,197);fill-rule:nonzero;"/>
    <path d="M190.855,44.525C193.187,49.291 198.305,49.948 201.576,47.823C204.832,45.697 204.346,39.353 203.047,36.259C201.42,32.18 195.049,29.086 191.622,33.164C189.493,35.758 189.462,40.868 190.855,44.525Z" style="fill:rgb(238,213,197);fill-rule:nonzero;"/>
    <path d="M189.822,40.243C192.436,40.243 191.215,36.524 192.623,35.54C193.719,34.774 196.646,35.649 197.851,35.54C199.15,35.43 200.355,34.461 201.435,34.336C202.625,34.336 204.159,36.071 204.378,33.477C204.597,30.867 201.326,29.351 199.26,28.914C196.208,28.148 192.076,28.586 189.258,30.101C185.001,32.289 187.975,37.196 189.822,40.243Z" style="fill:rgb(214,119,103);fill-rule:nonzero;"/>
    <path d="M198.164,39.134C198.164,39.446 197.945,39.696 197.663,39.696C197.381,39.696 197.053,39.368 197.053,39.056C197.053,38.743 197.397,38.587 197.663,38.587C197.945,38.571 198.164,38.821 198.164,39.134Z" style="fill:rgb(51,51,51);fill-rule:nonzero;"/>
    <path d="M202.734,38.087C202.734,38.399 202.515,38.649 202.234,38.649C201.952,38.649 201.607,38.321 201.607,38.009C201.607,37.696 201.952,37.524 202.234,37.524C202.515,37.524 202.734,37.774 202.734,38.087Z" style="fill:rgb(51,51,51);fill-rule:nonzero;"/>
    <path d="M197.804,43.681C197.804,44.431 197.256,45.025 196.599,45.025C195.941,45.025 195.112,44.228 195.112,43.494C195.112,42.759 195.941,42.337 196.599,42.337C197.272,42.337 197.804,42.947 197.804,43.681Z" style="fill:rgb(229,153,137);fill-rule:nonzero;"/>
    <path d="M204.002,40.712C203.345,40.712 202.515,41.119 202.515,41.869C202.515,42.587 203.266,43.322 203.924,43.384C204.033,42.509 204.065,41.603 204.002,40.712Z" style="fill:rgb(229,153,137);fill-rule:nonzero;"/>
    <path d="M187.74,35.446C186.848,35.571 186.034,36.774 184.985,36.993C183.842,37.243 182.324,37.009 181.964,35.743C181.698,34.805 182.403,33.961 181.73,33.289C181.37,32.914 180.712,33.055 180.337,32.571C179.898,32.008 180.008,31.164 180.023,30.492C180.07,27.195 183.592,28.789 185.048,26.836C186.143,25.351 185.658,22.335 188.538,23.132C189.039,23.273 189.618,23.976 190.322,24.101C191.042,24.226 191.809,24.038 192.529,24.116C193.86,24.257 194.282,25.148 194.407,26.476C194.517,27.632 194.235,28.07 193.781,29.008C192.795,31.023 192.091,32.633 189.79,33.602C189.086,33.899 188.882,33.868 188.444,34.477C188.194,34.836 188.084,35.337 187.834,35.743" style="fill:rgb(214,119,103);fill-rule:nonzero;"/>
    <path d="M192.764,51.651C192.17,53.745 191.418,57.214 192.123,59.324C192.342,59.918 192.342,59.855 193.093,59.965C193.469,60.012 194.768,60.215 195.144,60.012C195.738,59.668 195.582,58.355 195.582,57.808C195.629,56.495 195.738,55.12 195.801,53.808C195.801,53.167 195.91,52.979 195.425,52.636C194.768,52.136 193.578,51.948 192.764,51.651Z" style="fill:rgb(254,173,84);fill-rule:nonzero;"/>
    <path d="M191.841,57.933C191.841,58.308 191.716,61.981 192.311,61.84C192.624,61.762 192.498,61.074 192.498,60.793C192.498,60.09 192.545,59.371 192.514,58.668C192.311,58.574 192.045,58.027 191.841,57.933Z" style="fill:rgb(254,173,84);fill-rule:nonzero;"/>
    <path d="M192.999,59.277C192.999,60.058 192.874,60.887 192.968,61.668C192.999,61.949 193.125,61.996 193.5,61.965C193.547,61.043 193.594,60.074 193.531,59.136L193.031,59.136" style="fill:rgb(254,173,84);fill-rule:nonzero;"/>
    <path d="M195.566,58.027C195.566,58.808 195.675,60.84 195.581,61.621C195.55,61.902 195.425,61.949 195.049,61.918C195.002,60.996 194.955,60.027 195.018,59.09C195.174,59.074 195.394,58.027 195.566,58.027Z" style="fill:rgb(254,173,84);fill-rule:nonzero;"/>
    <path d="M193.985,59.511C193.985,59.98 194.016,60.449 194.032,60.918C194.048,61.184 193.969,61.59 194.048,61.824C194.126,62.059 194.345,62.012 194.58,61.996C194.736,61.621 194.658,61.137 194.658,60.762C194.658,60.34 194.674,59.918 194.658,59.496C194.408,59.48 194.126,59.465 193.875,59.511" style="fill:rgb(254,173,84);fill-rule:nonzero;"/>
    <path d="M204.863,126.567L203.751,140.647C203.751,140.647 203.548,142.022 202.703,142.241C202.202,142.366 200.997,142.1 200.465,141.1L198.946,126.223L204.863,126.567Z" style="fill:rgb(254,173,84);fill-rule:nonzero;"/>
    <path d="M193.906,125.832L191.684,140.6C191.684,140.6 191.073,143.756 188.397,141.037L187.896,125.489L193.906,125.832Z" style="fill:rgb(254,173,84);fill-rule:nonzero;"/>
    <path d="M201.106,58.715C201.106,59.277 200.699,59.715 200.198,59.715C199.698,59.715 199.072,59.121 199.087,58.574C199.087,58.027 199.713,57.714 200.214,57.714C200.715,57.714 201.122,58.167 201.106,58.715Z" style="fill:white;fill-rule:nonzero;"/>
    <path d="M201.733,67.528C201.733,68.091 201.326,68.528 200.825,68.528C200.324,68.528 199.698,67.934 199.714,67.388C199.714,66.841 200.34,66.528 200.841,66.528C201.341,66.528 201.748,66.981 201.733,67.528Z" style="fill:white;fill-rule:nonzero;"/>
    <path d="M201.873,76.263C201.873,76.826 201.466,77.264 200.966,77.264C200.465,77.264 199.839,76.67 199.854,76.123C199.854,75.576 200.48,75.263 200.981,75.263C201.466,75.263 201.873,75.701 201.873,76.263Z" style="fill:white;fill-rule:nonzero;"/>
    <path d="M201.889,87.109C201.889,87.671 201.483,88.109 200.982,88.109C200.481,88.109 199.855,87.515 199.87,86.968C199.87,86.421 200.496,86.109 200.997,86.109C201.498,86.109 201.905,86.546 201.889,87.109Z" style="fill:white;fill-rule:nonzero;"/>
    <path d="M202.28,97.657C202.28,98.22 201.873,98.657 201.372,98.657C200.871,98.657 200.245,98.063 200.261,97.516C200.261,96.969 200.887,96.657 201.388,96.657C201.889,96.657 202.296,97.094 202.28,97.657Z" style="fill:white;fill-rule:nonzero;"/>
    <path d="M202.421,107.299C202.421,107.861 202.014,108.299 201.513,108.299C201.012,108.299 200.386,107.705 200.402,107.158C200.402,106.611 201.028,106.299 201.529,106.299C202.014,106.283 202.421,106.736 202.421,107.299Z" style="fill:white;fill-rule:nonzero;"/>
    <path d="M120.002,83.265C120.048,84.547 119.454,89.813 120.33,89.891C120.643,89.922 120.925,88.141 120.972,87.25C121.05,88.031 120.862,90.204 121.285,90.313C121.755,90.422 122.036,88.141 122.083,87.422C122.052,88.141 122.255,90.141 122.662,90.235C123.054,90.329 123.226,88.016 123.273,87.235C123.508,88.61 123.508,90.422 123.993,90.438C124.854,90.485 124.619,85.922 124.478,84.469C124.447,84.14 124.478,83.406 124.259,83.234C123.727,82.812 120.69,83.172 119.955,83.25" style="fill:rgb(237,215,200);fill-rule:nonzero;"/>
    <path d="M118.155,84.375L125.48,84.578C125.48,84.578 123.664,55.668 116.12,45.635L118.155,84.375Z" style="fill:rgb(254,173,84);fill-rule:nonzero;"/>
    <path d="M101.767,139.756C105.101,140.756 108.106,141.522 109.891,142.319C110.501,142.585 111.8,143.757 111.769,144.538C111.628,145.616 109.734,145.929 104.882,144.913C103.583,144.648 101.345,143.804 100.891,142.475C100.593,141.585 100.609,140.616 101.767,139.756Z" style="fill:rgb(51,51,51);fill-rule:nonzero;"/>
    <path d="M105.039,128.849L104.679,140.647C104.679,140.647 103.599,143.085 100.907,140.866L101.267,129.239L105.039,128.849Z" style="fill:rgb(238,213,197);fill-rule:nonzero;"/>
    <path d="M113.787,139.709C115.916,139.647 118.201,140.663 121.911,142.272C122.521,142.538 123.82,143.71 123.789,144.476C123.648,145.554 121.175,145.413 120.377,145.335C119.156,145.116 117.951,144.788 116.792,144.366C115.556,143.897 113.553,143.679 112.927,142.413C112.582,141.741 112.629,140.569 113.787,139.709Z" style="fill:rgb(51,51,51);fill-rule:nonzero;"/>
    <path d="M116.636,128.989L116.73,140.6C116.73,140.6 115.65,143.038 112.958,140.819L112.848,128.864L116.636,128.989Z" style="fill:rgb(238,213,197);fill-rule:nonzero;"/>
    <path d="M119.72,89.484L117.169,130.021L112.442,130.021L109.593,98.47L105.555,130.021L100.812,130.177L99.999,88.297L119.72,89.484Z" style="fill:rgb(45,45,45);fill-rule:nonzero;"/>
    <path d="M115.744,44.87C115.744,44.87 123.601,53.792 122.553,94.813C122.553,94.813 114.304,97.783 97.792,95.095L97.995,61.794C97.995,61.794 98.558,49.386 104.882,45.682L115.744,44.87Z" style="fill:rgb(254,173,84);fill-rule:nonzero;"/>
    <path d="M106.009,47.589L107.652,96.173C107.652,96.173 110,96.345 112.05,96.282C114.304,96.204 115.916,96.064 115.916,96.064L114.696,47.089L106.009,47.589Z" style="fill:rgb(7,155,171);fill-rule:nonzero;"/>
    <path d="M107.293,50.48L110.783,47.682L114.132,51.449L115.259,45.323L104.366,45.182L107.293,50.48Z" style="fill:white;fill-rule:nonzero;"/>
    <path d="M102.338,41.287C98.347,40.365 99.583,34.786 99.724,32.13C99.755,31.27 100.475,32.88 101.226,32.536C101.978,32.177 102.854,32.208 103.386,32.786C104.889,34.318 103.48,37.912 103.011,39.693" style="fill:rgb(51,51,51);fill-rule:nonzero;"/>
    <path d="M102.713,41.85C104.905,46.975 110.93,48.319 114.718,46.022C118.49,43.725 116.299,33.552 114.906,29.989C113.184,25.301 107.894,24.504 103.872,29.02C101.367,31.927 101.399,38.193 102.713,41.85Z" style="fill:rgb(238,213,197);fill-rule:nonzero;"/>
    <path d="M102.635,39.646C101.508,39.803 97.908,39.334 99.442,37.615C99.833,37.162 101.79,36.943 102.338,37.24C103.261,37.631 102.964,38.271 103.026,39.303" style="fill:rgb(238,213,197);fill-rule:nonzero;"/>
    <path d="M101.634,37.068C103.715,35.552 103.011,32.708 104.811,31.458C105.562,30.927 106.501,30.942 107.237,30.786C108.27,30.536 109.021,30.005 109.96,29.754C111.651,29.239 112.355,30.567 113.92,30.88C116.691,31.333 116.675,28.911 115.329,27.207C113.717,25.207 111.244,23.754 108.646,24.051C107.346,24.191 106.752,25.02 105.719,25.645C104.78,26.176 104.028,26.067 103.011,26.301C98.519,27.301 98.942,34.13 101.634,37.068Z" style="fill:rgb(51,51,51);fill-rule:nonzero;"/>
    <path d="M95.507,83.953C95.554,85.234 94.959,90.501 95.836,90.594C96.149,90.626 96.43,88.844 96.477,87.953C96.556,88.735 96.368,90.922 96.79,91.016C97.26,91.126 97.542,88.844 97.589,88.125C97.557,88.844 97.761,90.844 98.168,90.938C98.559,91.047 98.731,88.719 98.778,87.938C99.013,89.313 99.013,91.126 99.498,91.157C100.359,91.204 100.124,86.641 99.983,85.187C99.952,84.844 99.983,84.125 99.764,83.953C99.232,83.531 96.196,83.89 95.46,83.968" style="fill:rgb(237,215,200);fill-rule:nonzero;"/>
    <path d="M101.408,84.375L94.083,84.578C94.083,84.578 94.286,58.668 101.83,48.636L101.408,84.375Z" style="fill:rgb(254,173,84);fill-rule:nonzero;"/>
    <path d="M110.611,36.087C110.611,36.4 110.392,36.65 110.11,36.65C109.828,36.65 109.484,36.322 109.484,36.009C109.484,35.697 109.828,35.54 110.11,35.54C110.392,35.525 110.611,35.775 110.611,36.087Z" style="fill:rgb(51,51,51);fill-rule:nonzero;"/>
    <path d="M115.024,34.9C115.024,35.212 114.805,35.462 114.524,35.462C114.242,35.462 113.913,35.134 113.913,34.821C113.913,34.509 114.257,34.353 114.524,34.353C114.805,34.337 115.024,34.587 115.024,34.9Z" style="fill:rgb(51,51,51);fill-rule:nonzero;"/>
    <path d="M111.002,41.197C111.002,42.135 110.329,42.869 109.5,42.869C108.67,42.869 107.637,41.885 107.637,40.947C107.637,40.025 108.67,39.51 109.5,39.51C110.329,39.51 111.002,40.26 111.002,41.197Z" style="fill:rgb(229,153,137);fill-rule:nonzero;"/>
    <path d="M116.59,37.994C115.76,38.009 114.758,38.509 114.758,39.431C114.758,40.369 115.791,41.354 116.621,41.354L116.652,41.354C116.73,40.275 116.699,39.135 116.59,37.994Z" style="fill:rgb(229,153,137);fill-rule:nonzero;"/>
    <path d="M102.879,34.056C102.879,36.415 103.176,38.916 103.974,41.135C104.303,42.057 104.913,42.354 105.696,42.948C106.51,43.573 107.355,44.12 108.372,44.213C109.969,44.37 111.018,43.823 111.472,42.322C111.675,41.635 111.894,41.494 112.551,41.338C113.115,41.197 113.882,41.01 114.383,41.369C115.165,41.901 114.461,43.307 115.729,42.979C116.59,42.76 116.73,41.01 116.699,40.213C116.699,41.807 117.106,44.416 116.464,45.885C115.729,47.573 114.289,48.089 112.598,48.683C111.112,49.214 109.672,49.652 108.138,49.042C107.386,48.745 106.698,48.448 105.946,48.12C103.927,47.245 102.879,44.76 102.19,42.776C101.642,41.182 101.767,39.244 101.627,37.587C101.58,37.15 101.345,36.431 101.501,36.009C101.658,35.556 102.315,35.259 102.487,34.712" style="fill:rgb(51,51,51);fill-rule:nonzero;"/>
    <path d="M27.434,76.439C27.543,77.72 27.215,83.002 28.107,83.049C28.42,83.065 28.608,81.267 28.608,80.377C28.717,81.158 28.654,83.33 29.077,83.408C29.547,83.502 29.719,81.205 29.719,80.47C29.719,81.189 30.032,83.174 30.439,83.252C30.846,83.33 30.893,81.002 30.893,80.22C31.19,81.58 31.3,83.393 31.769,83.393C32.63,83.393 32.176,78.845 31.941,77.408C31.879,77.064 31.879,76.345 31.66,76.189C31.112,75.798 28.091,76.314 27.371,76.423" style="fill:rgb(237,215,200);fill-rule:nonzero;"/>
    <path d="M25.634,77.642L32.959,77.47C32.959,77.47 31.425,51.607 23.395,41.966L25.634,77.642Z" style="fill:rgb(7,155,171);fill-rule:nonzero;"/>
    <path d="M24.538,136.962C25.477,137.603 29.062,141.166 28.436,142.556C28.044,143.463 25.947,142.509 25.383,142.166C24.241,141.462 23.38,140.228 22.55,139.228C22.316,139.618 22.269,140.853 21.752,141.025C21.079,141.337 20.797,140.447 20.844,139.947C20.86,139.322 21.251,137.743 21.643,137.243C22.018,136.79 21.643,136.899 22.316,136.884C22.723,136.884 24.116,136.837 24.538,136.962Z" style="fill:rgb(7,155,171);fill-rule:nonzero;"/>
    <path d="M24.507,133.618L24.773,137.118C24.773,137.118 23.991,139.337 21.486,137.556L21.267,133.836L24.507,133.618Z" style="fill:rgb(238,213,197);fill-rule:nonzero;"/>
    <path d="M12.455,136.899C13.394,137.54 16.979,141.103 16.352,142.494C15.945,143.385 13.864,142.447 13.3,142.103C12.158,141.4 11.297,140.165 10.467,139.165C10.233,139.54 10.186,140.775 9.669,140.962C8.996,141.275 8.714,140.384 8.761,139.884C8.777,139.259 9.168,137.681 9.56,137.181C9.935,136.728 9.56,136.837 10.233,136.821C10.655,136.837 12.048,136.774 12.455,136.899Z" style="fill:rgb(7,155,171);fill-rule:nonzero;"/>
    <path d="M12.424,133.555L12.69,137.056C12.69,137.056 11.907,139.259 9.403,137.493L9.512,133.024L12.424,133.555Z" style="fill:rgb(238,213,197);fill-rule:nonzero;"/>
    <path d="M28.044,86.784L24.757,137.118L21.47,137.556L17.917,95.769L12.69,137.071L9.403,137.509L8.338,85.596L28.044,86.784Z" style="fill:rgb(238,213,197);fill-rule:nonzero;"/>
    <path d="M8.026,79.111L1.89,121.429C1.89,121.429 25.603,122.366 33.976,120.913L28.889,78.845L8.026,79.111Z" style="fill:rgb(254,173,84);fill-rule:nonzero;"/>
    <path d="M12.549,39.246L23.427,39.731C23.427,39.731 26.26,54.123 26.917,56.999C29.061,66.516 29.296,76.376 29.734,80.502C29.734,80.502 21.455,82.518 6.867,80.564L7.118,60.374C7.102,60.358 9.935,46.622 12.549,39.246Z" style="fill:rgb(7,155,171);fill-rule:nonzero;"/>
    <path d="M14.334,42.497L20.297,60.609L22.566,42.059L14.334,42.497Z" style="fill:white;fill-rule:nonzero;"/>
    <path d="M12.095,84.58C12.095,85.096 11.719,85.518 11.265,85.518C10.796,85.518 10.232,84.971 10.232,84.455C10.232,83.94 10.812,83.658 11.265,83.658C11.719,83.643 12.095,84.065 12.095,84.58Z" style="fill:white;fill-rule:nonzero;"/>
    <path d="M21.627,85.893C21.627,86.409 21.251,86.831 20.797,86.831C20.328,86.831 19.764,86.284 19.764,85.768C19.764,85.252 20.343,84.971 20.797,84.971C21.251,84.955 21.627,85.377 21.627,85.893Z" style="fill:white;fill-rule:nonzero;"/>
    <path d="M15.883,91.753C15.883,92.269 15.507,92.691 15.054,92.691C14.584,92.691 14.021,92.144 14.021,91.628C14.021,91.112 14.6,90.831 15.054,90.831C15.507,90.815 15.883,91.237 15.883,91.753Z" style="fill:white;fill-rule:nonzero;"/>
    <path d="M9.622,98.254C9.622,98.769 9.247,99.191 8.793,99.191C8.323,99.191 7.76,98.644 7.76,98.113C7.76,97.598 8.339,97.316 8.793,97.316C9.247,97.316 9.622,97.738 9.622,98.254Z" style="fill:white;fill-rule:nonzero;"/>
    <path d="M20.187,99.567C20.187,100.082 19.811,100.504 19.357,100.504C18.888,100.504 18.324,99.957 18.324,99.426C18.324,98.91 18.903,98.629 19.357,98.629C19.811,98.629 20.187,99.051 20.187,99.567Z" style="fill:white;fill-rule:nonzero;"/>
    <path d="M26.839,90.706C26.839,91.222 26.464,91.644 26.01,91.644C25.54,91.644 24.977,91.097 24.977,90.565C24.977,90.05 25.556,89.768 26.01,89.768C26.464,89.768 26.839,90.19 26.839,90.706Z" style="fill:white;fill-rule:nonzero;"/>
    <path d="M28.013,101.52C28.013,102.036 27.637,102.458 27.183,102.458C26.714,102.458 26.15,101.911 26.15,101.379C26.15,100.864 26.73,100.582 27.183,100.582C27.637,100.582 28.013,101.004 28.013,101.52Z" style="fill:white;fill-rule:nonzero;"/>
    <path d="M22.535,109.458C22.535,109.974 22.159,110.396 21.705,110.396C21.236,110.396 20.672,109.849 20.672,109.318C20.672,108.802 21.252,108.521 21.705,108.521C22.159,108.521 22.535,108.943 22.535,109.458Z" style="fill:white;fill-rule:nonzero;"/>
    <path d="M29.453,114.537C29.453,115.053 29.077,115.475 28.623,115.475C28.154,115.475 27.59,114.928 27.59,114.396C27.59,113.881 28.17,113.599 28.623,113.599C29.077,113.599 29.453,114.021 29.453,114.537Z" style="fill:white;fill-rule:nonzero;"/>
    <path d="M18.356,117.147C18.356,117.663 17.981,118.084 17.527,118.084C17.057,118.084 16.494,117.538 16.494,117.006C16.494,116.491 17.073,116.209 17.527,116.209C17.981,116.209 18.356,116.631 18.356,117.147Z" style="fill:white;fill-rule:nonzero;"/>
    <path d="M13.535,106.989C13.535,107.505 13.159,107.927 12.705,107.927C12.236,107.927 11.672,107.38 11.672,106.849C11.672,106.333 12.252,106.052 12.705,106.052C13.159,106.052 13.535,106.474 13.535,106.989Z" style="fill:white;fill-rule:nonzero;"/>
    <path d="M8.573,115.975C8.573,116.491 8.198,116.912 7.744,116.912C7.274,116.912 6.711,116.365 6.711,115.834C6.711,115.318 7.29,115.037 7.744,115.037C8.198,115.037 8.573,115.459 8.573,115.975Z" style="fill:white;fill-rule:nonzero;"/>
    <path d="M0.012,80.736C-0.113,79.814 8.026,79.767 11.563,79.564C13.519,79.564 13.723,78.783 14.693,80.939C15.288,82.502 14.302,84.846 13.519,86.221C9.012,93.628 -0.379,88.159 0.012,80.736Z" style="fill:rgb(51,51,51);fill-rule:nonzero;"/>
    <path d="M4.473,77.501C4.52,78.783 3.925,84.049 4.801,84.127C5.114,84.158 5.396,82.377 5.443,81.486C5.506,82.267 5.334,84.44 5.756,84.549C6.226,84.658 6.507,82.377 6.554,81.658C6.523,82.377 6.727,84.377 7.134,84.471C7.525,84.565 7.697,82.252 7.744,81.47C7.979,82.846 7.979,84.658 8.464,84.674C9.325,84.721 9.09,80.158 8.949,78.705C8.918,78.361 8.949,77.642 8.73,77.47C8.198,77.048 5.161,77.407 4.426,77.486" style="fill:rgb(237,215,200);fill-rule:nonzero;"/>
    <path d="M1.576,81.127L7.055,61.796L6.068,60.233L0.59,81.033L1.576,81.127Z" style="fill:rgb(51,51,51);fill-rule:nonzero;"/>
    <path d="M10.358,77.908L3.033,78.111C3.033,78.111 5.474,49.873 13.003,39.84L10.358,77.908Z" style="fill:rgb(7,155,171);fill-rule:nonzero;"/>
    <path d="M13.504,80.674L13.441,42.059L12.408,42.262L12.471,80.283L13.504,80.674Z" style="fill:rgb(51,51,51);fill-rule:nonzero;"/>
    <path d="M8.698,27.901C8.229,28.323 7.462,29.651 7.086,30.542C6.617,31.667 6.57,33.027 6.57,34.246C6.57,35.683 6.445,37.137 6.836,38.481C7.165,39.606 7.65,40.418 8.213,41.387C8.792,42.372 9.231,42.872 10.326,43.028C11.766,43.216 12.909,42.966 13.425,41.512C13.817,40.403 13.817,39.168 13.519,37.996C12.987,35.949 12.58,33.808 11.845,31.824C11.375,30.573 10.999,30.058 9.888,29.308C9.45,29.011 8.933,28.245 8.698,27.901Z" style="fill:rgb(51,51,51);fill-rule:nonzero;"/>
    <path d="M13.081,31.355C12.111,28.854 9.387,28.089 7.853,30.48C6.006,33.308 7.415,41.669 11.657,41.887L12.205,40.903C13.848,38.528 14.177,34.074 13.081,31.355Z" style="fill:rgb(51,51,51);fill-rule:nonzero;"/>
    <path d="M11.813,38.981C10.827,39.137 7.65,38.824 8.964,37.277C9.293,36.871 10.999,36.621 11.5,36.871C12.314,37.199 12.063,37.762 12.157,38.668" style="fill:rgb(238,213,197);fill-rule:nonzero;"/>
    <path d="M11.86,40.981C14.192,45.747 19.31,46.404 22.581,44.278C25.837,42.153 25.352,35.808 24.053,32.714C22.425,28.636 16.055,25.542 12.627,29.62C10.498,32.23 10.467,37.324 11.86,40.981Z" style="fill:rgb(238,213,197);fill-rule:nonzero;"/>
    <path d="M10.827,36.699C13.441,36.699 12.22,32.98 13.629,31.995C14.724,31.23 17.651,32.105 18.856,31.995C20.156,31.886 21.361,30.917 22.441,30.808C23.63,30.808 25.164,32.542 25.383,29.933C25.602,27.323 22.331,25.807 20.265,25.37C17.213,24.604 13.081,25.041 10.264,26.557C6.006,28.745 8.98,33.667 10.827,36.699Z" style="fill:rgb(51,51,51);fill-rule:nonzero;"/>
    <path d="M19.186,35.59C19.186,35.902 18.966,36.152 18.685,36.152C18.403,36.152 18.059,35.824 18.059,35.512C18.059,35.199 18.403,35.027 18.685,35.027C18.951,35.043 19.186,35.293 19.186,35.59Z" style="fill:rgb(51,51,51);fill-rule:nonzero;"/>
    <path d="M23.755,34.543C23.755,34.855 23.536,35.105 23.255,35.105C22.973,35.105 22.628,34.777 22.628,34.465C22.628,34.152 22.973,33.98 23.255,33.98C23.521,33.996 23.755,34.246 23.755,34.543Z" style="fill:rgb(51,51,51);fill-rule:nonzero;"/>
    <path d="M18.825,40.153C18.825,40.903 18.293,41.497 17.636,41.497C16.979,41.497 16.149,40.715 16.149,39.965C16.149,39.231 16.979,38.809 17.636,38.809C18.278,38.809 18.825,39.403 18.825,40.153Z" style="fill:rgb(254,173,84);fill-rule:nonzero;"/>
    <path d="M25.023,37.184C24.366,37.184 23.537,37.59 23.537,38.34C23.537,39.059 24.288,39.793 24.945,39.856C25.055,38.981 25.071,38.074 25.023,37.184Z" style="fill:rgb(254,173,84);fill-rule:nonzero;"/>
    <path d="M10.327,41.012C9.435,41.012 8.84,41.762 8.605,42.559C8.323,43.513 8.871,43.669 9.278,44.419C8.402,44.294 7.963,45.731 7.838,46.357C7.697,47.107 8.073,47.716 8.762,48.013C7.901,48.404 7.666,49.357 7.666,50.232C7.666,50.92 8.073,51.357 8.699,51.701C8.042,52.357 7.431,54.951 9.09,54.483C10.374,54.123 10.076,52.92 9.982,52.014C12.049,51.295 11.329,49.373 9.951,48.373C10.405,47.607 11.219,47.435 11.438,46.466C11.61,45.638 11.235,45.028 10.609,44.497C10.859,44.106 11.532,43.825 11.845,42.981C12.205,42.028 11.313,40.168 10.483,40.809" style="fill:rgb(51,51,51);fill-rule:nonzero;"/>
    <path d="M72,92.659C72,92.315 72.133,91.972 72.4,91.71L78.708,85.501L72.4,79.292C71.868,78.767 71.868,77.917 72.4,77.393C72.933,76.869 73.796,76.869 74.329,77.393L81.6,84.551C82.133,85.075 82.133,85.925 81.6,86.449L74.329,93.607C73.796,94.131 72.933,94.131 72.4,93.607C72.133,93.346 72,93.002 72,92.659Z" style="fill:rgb(1,84,104);fill-rule:nonzero;"/>
    <path d="M163,92.659C163,92.315 163.133,91.972 163.4,91.71L169.708,85.501L163.4,79.292C162.868,78.767 162.868,77.917 163.4,77.393C163.933,76.869 164.796,76.869 165.329,77.393L172.6,84.551C173.133,85.075 173.133,85.925 172.6,86.449L165.329,93.607C164.796,94.131 163.933,94.131 163.4,93.607C163.133,93.346 163,93.002 163,92.659Z" style="fill:rgb(1,84,104);fill-rule:nonzero;"/>
    <path d="M44,85.498C44,85.155 44.133,84.811 44.4,84.55L51.672,77.393C52.205,76.869 53.068,76.869 53.6,77.393C54.133,77.918 54.133,78.767 53.6,79.292L47.292,85.5L53.6,91.709C54.133,92.233 54.133,93.083 53.6,93.607C53.068,94.131 52.205,94.131 51.672,93.607L44.4,86.45C44.133,86.186 44,85.842 44,85.498Z" style="fill:rgb(1,84,104);fill-rule:nonzero;"/>
    <path d="M135,85.498C135,85.155 135.132,84.811 135.4,84.55L142.672,77.393C143.204,76.869 144.068,76.869 144.601,77.393C145.133,77.918 145.133,78.767 144.601,79.292L138.292,85.5L144.601,91.709C145.133,92.233 145.133,93.083 144.601,93.607C144.068,94.131 143.204,94.131 142.672,93.607L135.4,86.45C135.132,86.186 135,85.842 135,85.498Z" style="fill:rgb(1,84,104);fill-rule:nonzero;"/>
    <path d="M44,85.5C44,84.672 44.608,84 45.357,84L80.643,84C81.392,84 82,84.672 82,85.5C82,86.328 81.392,87 80.643,87L45.357,87C44.608,87 44,86.328 44,85.5Z" style="fill:rgb(1,84,104);fill-rule:nonzero;"/>
    <path d="M135,85.5C135,84.672 135.608,84 136.357,84L171.643,84C172.392,84 173,84.672 173,85.5C173,86.328 172.392,87 171.643,87L136.357,87C135.608,87 135,86.328 135,85.5Z" style="fill:rgb(1,84,104);fill-rule:nonzero;"/>
</svg>
