<?xml version="1.0" encoding="UTF-8" standalone="no"?>
<!DOCTYPE svg PUBLIC "-//W3C//DTD SVG 1.1//EN" "http://www.w3.org/Graphics/SVG/1.1/DTD/svg11.dtd">
<svg width="100%" height="100%" viewBox="0 0 190 186" version="1.1" xmlns="http://www.w3.org/2000/svg" xmlns:xlink="http://www.w3.org/1999/xlink" xml:space="preserve" xmlns:serif="http://www.serif.com/" style="fill-rule:evenodd;clip-rule:evenodd;stroke-linejoin:round;stroke-miterlimit:2;">
    <circle cx="89.5" cy="89.5" r="89.5" style="fill:rgb(1,84,104);fill-opacity:0.13;"/>
    <path d="M94.77,25.365C92.72,31.395 92.6,38.065 94.44,44.155C95.57,47.905 97.44,51.645 96.87,55.525C96.4,58.685 94.35,61.445 93.95,64.615C93.13,71.055 99.25,77.155 97.6,83.435C96.84,86.325 94.47,88.615 91.73,89.795C88.99,90.975 85.91,91.155 82.93,90.905C78.54,90.525 73.79,88.855 71.76,84.945C70.14,81.825 70.65,78.085 71.21,74.615C73.69,59.295 76.55,43.865 82.77,29.645" style="fill:rgb(38,50,56);fill-rule:nonzero;"/>
    <path d="M96.72,72.715C96.72,72.715 96.55,72.795 96.21,72.885C95.87,72.975 95.34,73.045 94.67,73.015C94,72.965 93.17,72.795 92.31,72.335C91.46,71.885 90.59,71.125 90.05,70.025C89.5,68.935 89.28,67.535 89.6,66.135C89.77,65.435 90.07,64.735 90.53,64.125C90.99,63.505 91.57,62.975 92.2,62.485C93.46,61.505 94.94,60.715 96.16,59.535C97.38,58.355 98.14,56.685 98.38,54.905C98.63,53.125 98.44,51.335 98,49.685C97.56,48.035 96.91,46.505 96.26,45.065C94.94,42.205 93.7,39.595 93.23,37.215C92.73,34.855 92.87,32.855 93.25,31.565C93.62,30.265 94.07,29.655 94.07,29.655C94.11,29.675 93.69,30.305 93.37,31.595C93.03,32.875 92.92,34.845 93.44,37.175C93.93,39.515 95.18,42.085 96.51,44.955C97.17,46.395 97.83,47.935 98.28,49.615C98.72,51.295 98.93,53.115 98.67,54.955C98.42,56.785 97.63,58.535 96.36,59.755C95.09,60.975 93.6,61.755 92.36,62.715C91.1,63.645 90.13,64.845 89.83,66.205C89.51,67.545 89.71,68.895 90.22,69.945C90.73,71.005 91.56,71.745 92.37,72.205C93.19,72.665 94,72.845 94.65,72.915C96,72.995 96.71,72.665 96.72,72.715Z" style="fill:rgb(38,50,56);fill-rule:nonzero;"/>
    <path d="M36.25,171.355L33.75,180.925L8,180.695C8,180.695 9.89,176.185 23.97,176.395L25.01,171.355L36.25,171.355Z" style="fill:rgb(183,136,118);fill-rule:nonzero;"/>
    <path d="M130,27.725C129.75,28.215 123.22,61.815 123.22,61.815L138.63,62.535L144.6,33.645L130,27.725Z" style="fill:rgb(1,84,104);fill-rule:nonzero;"/>
    <path d="M123.21,61.805L121.45,61.065L128.12,27.945L130.21,27.805L123.21,61.805Z" style="fill:rgb(7,155,171);fill-rule:nonzero;"/>
    <path d="M136.19,35.065C136.14,35.505 136.45,35.905 136.88,35.955C137.32,36.005 137.72,35.695 137.77,35.265C137.82,34.825 137.51,34.425 137.08,34.375C136.65,34.315 136.25,34.625 136.19,35.065Z" style="fill:rgb(7,155,171);fill-rule:nonzero;"/>
    <path d="M139.37,58.645L139.6,54.245L133.02,51.535L135.59,45.435C136.84,42.595 140.25,41.425 142.98,42.905C143.86,43.385 144.78,43.885 145.62,44.335C147.5,45.355 148.87,47.125 149.37,49.205C150.23,52.795 150.98,60.285 150.9,59.945" style="fill:rgb(183,136,118);fill-rule:nonzero;"/>
    <path d="M156.99,170.645C156.99,170.645 184.07,178.145 185.16,178.525C186.79,179.095 186.52,185.075 183.98,184.985C182.78,184.945 163.18,185.715 160.7,185.555C158.22,185.405 150.75,182.455 150.75,182.455L156.99,170.645Z" style="fill:rgb(254,173,84);fill-rule:nonzero;"/>
    <path d="M168.28,180.985C168.42,181.005 168.6,179.575 169.47,178.075C170.32,176.565 171.47,175.695 171.38,175.585C171.33,175.485 169.99,176.245 169.07,177.855C168.15,179.445 168.16,180.995 168.28,180.985Z" style="fill:rgb(38,50,56);fill-rule:nonzero;"/>
    <path d="M165.45,179.705C165.58,179.725 165.86,178.445 166.58,177.035C167.29,175.615 168.15,174.635 168.05,174.535C167.98,174.445 166.92,175.335 166.17,176.825C165.42,178.315 165.34,179.695 165.45,179.705Z" style="fill:rgb(38,50,56);fill-rule:nonzero;"/>
    <path d="M162.8,178.995C162.94,178.985 162.83,177.635 163.43,176.135C164.01,174.625 165,173.705 164.9,173.605C164.85,173.505 163.63,174.335 163,175.975C162.37,177.595 162.69,179.025 162.8,178.995Z" style="fill:rgb(38,50,56);fill-rule:nonzero;"/>
    <path d="M163.28,175.495C163.33,175.505 163.57,174.755 163.57,173.475C163.57,172.845 163.5,172.085 163.3,171.265C163.2,170.855 163.07,170.435 162.9,170.005C162.81,169.795 162.71,169.545 162.47,169.345C162.22,169.115 161.76,169.165 161.54,169.395C161.29,169.615 161.21,169.915 161.18,170.165C161.15,170.415 161.14,170.645 161.14,170.885C161.15,171.355 161.21,171.795 161.31,172.215C161.51,173.045 161.83,173.735 162.14,174.285C162.77,175.385 163.32,175.945 163.36,175.915C163.42,175.875 162.97,175.245 162.43,174.135C162.16,173.585 161.89,172.905 161.72,172.125C161.64,171.735 161.59,171.315 161.59,170.885C161.6,170.465 161.6,169.945 161.84,169.745C161.97,169.635 162.09,169.635 162.2,169.715C162.32,169.805 162.42,169.995 162.5,170.185C162.67,170.585 162.8,170.995 162.91,171.375C163.12,172.155 163.23,172.875 163.27,173.485C163.33,174.715 163.21,175.485 163.28,175.495Z" style="fill:rgb(38,50,56);fill-rule:nonzero;"/>
    <path d="M163.25,175.215C163.26,175.165 162.61,174.945 161.5,174.935C160.95,174.935 160.29,174.995 159.58,175.175C159.23,175.265 158.85,175.365 158.47,175.585C158.1,175.775 157.71,176.285 157.86,176.825C157.98,177.325 158.41,177.685 158.84,177.795C159.27,177.915 159.69,177.875 160.05,177.795C160.79,177.625 161.37,177.255 161.81,176.925C162.68,176.245 163.1,175.725 163.07,175.685C163.02,175.625 162.51,176.075 161.63,176.665C161.19,176.945 160.63,177.255 159.97,177.385C159.64,177.445 159.29,177.465 158.97,177.375C158.65,177.285 158.39,177.045 158.31,176.735C158.23,176.435 158.42,176.155 158.71,175.975C159,175.795 159.36,175.695 159.69,175.595C160.36,175.405 160.99,175.315 161.51,175.275C162.57,175.185 163.24,175.285 163.25,175.215Z" style="fill:rgb(38,50,56);fill-rule:nonzero;"/>
    <path d="M172.44,181.275C172.57,181.255 172.44,180.105 172.97,178.835C173.48,177.555 174.38,176.815 174.3,176.715C174.26,176.605 173.12,177.245 172.55,178.665C171.97,180.065 172.33,181.315 172.44,181.275Z" style="fill:rgb(38,50,56);fill-rule:nonzero;"/>
    <path d="M153.54,182.525C153.53,182.555 153.9,182.725 154.59,183.015C155.29,183.275 156.3,183.645 157.6,183.945C160.19,184.595 163.88,184.965 167.94,184.925C172,184.885 175.66,184.695 178.31,184.585C179.57,184.515 180.62,184.465 181.45,184.415C182.19,184.365 182.6,184.325 182.6,184.295C182.6,184.265 182.19,184.245 181.45,184.245C180.62,184.255 179.56,184.255 178.31,184.265C175.57,184.315 171.95,184.385 167.95,184.465C163.91,184.505 160.26,184.195 157.68,183.625C155.08,183.105 153.57,182.435 153.54,182.525Z" style="fill:rgb(38,50,56);fill-rule:nonzero;"/>
    <path d="M152.74,183.135C152.78,183.195 153.52,182.765 154.77,182.215C156.01,181.685 157.86,181.045 159.89,181.365C161.93,181.675 163.38,183.045 164.32,183.995C165.27,184.985 165.83,185.635 165.88,185.585C165.92,185.555 165.46,184.835 164.55,183.775C164.09,183.255 163.51,182.645 162.75,182.095C162,181.545 161.03,181.075 159.95,180.905C157.77,180.575 155.84,181.305 154.62,181.915C153.39,182.565 152.71,183.095 152.74,183.135Z" style="fill:rgb(38,50,56);fill-rule:nonzero;"/>
    <path d="M128.25,163.175C128.25,163.175 102.62,179.955 101.7,180.645C100.32,181.685 101.9,186.655 104.29,185.795C105.42,185.385 126.92,179.405 129.24,178.505C131.55,177.605 137.78,172.535 137.78,172.535L128.25,163.175Z" style="fill:rgb(254,173,84);fill-rule:nonzero;"/>
    <path d="M120.64,176.445C120.75,176.425 120.3,174.945 118.93,173.705C117.57,172.455 116.06,172.135 116.04,172.245C115.99,172.375 117.35,172.865 118.62,174.035C119.91,175.195 120.51,176.505 120.64,176.445Z" style="fill:rgb(38,50,56);fill-rule:nonzero;"/>
    <path d="M122.94,174.365C123.05,174.325 122.55,173.035 121.38,171.845C120.21,170.645 118.94,170.125 118.89,170.235C118.83,170.355 119.95,171.025 121.05,172.165C122.17,173.285 122.82,174.425 122.94,174.365Z" style="fill:rgb(38,50,56);fill-rule:nonzero;"/>
    <path d="M125.25,172.885C125.37,172.885 125.24,171.415 124.13,170.065C123.04,168.695 121.62,168.275 121.6,168.385C121.54,168.505 122.77,169.085 123.77,170.345C124.8,171.595 125.12,172.915 125.25,172.885Z" style="fill:rgb(38,50,56);fill-rule:nonzero;"/>
    <path d="M123.73,169.695C123.8,169.665 123.45,168.965 123.15,167.775C123,167.175 122.88,166.455 122.85,165.655C122.83,165.255 122.84,164.825 122.88,164.395C122.89,164.185 122.93,163.975 123.02,163.855C123.1,163.745 123.21,163.715 123.37,163.775C123.66,163.895 123.81,164.385 123.95,164.785C124.08,165.195 124.16,165.605 124.2,166.005C124.28,166.805 124.22,167.535 124.13,168.135C123.95,169.355 123.71,170.095 123.78,170.115C123.83,170.135 124.18,169.435 124.44,168.195C124.57,167.575 124.67,166.815 124.61,165.965C124.58,165.545 124.5,165.095 124.37,164.655C124.3,164.425 124.22,164.215 124.12,163.985C124.01,163.765 123.85,163.495 123.54,163.365C123.26,163.215 122.81,163.315 122.64,163.605C122.47,163.875 122.45,164.135 122.43,164.365C122.4,164.825 122.4,165.265 122.43,165.685C122.49,166.525 122.65,167.265 122.84,167.875C123.23,169.075 123.69,169.725 123.73,169.695Z" style="fill:rgb(38,50,56);fill-rule:nonzero;"/>
    <path d="M123.68,169.425C123.71,169.495 124.31,169.185 125.35,168.935C125.87,168.815 126.49,168.705 127.19,168.685C127.54,168.675 127.91,168.665 128.24,168.755C128.58,168.835 128.83,169.045 128.85,169.355C128.87,169.675 128.69,169.985 128.42,170.165C128.14,170.355 127.8,170.445 127.47,170.485C126.8,170.565 126.18,170.435 125.67,170.305C124.65,170.015 124.03,169.745 124,169.815C123.98,169.865 124.54,170.225 125.58,170.615C126.1,170.795 126.76,170.965 127.52,170.905C127.89,170.875 128.3,170.785 128.68,170.535C129.05,170.295 129.36,169.835 129.32,169.315C129.3,168.765 128.77,168.385 128.36,168.325C127.93,168.225 127.54,168.255 127.18,168.275C126.45,168.325 125.8,168.465 125.28,168.635C124.2,168.965 123.65,169.385 123.68,169.425Z" style="fill:rgb(38,50,56);fill-rule:nonzero;"/>
    <path d="M107.56,184.855C107.59,184.895 107.99,184.595 108.19,183.865C108.4,183.145 108.27,182.045 107.71,181.085C107.44,180.595 107.14,180.175 106.85,179.805C106.57,179.435 106.28,179.095 105.98,178.875C105.68,178.645 105.37,178.545 105.16,178.535C104.95,178.525 104.84,178.575 104.84,178.605C104.84,178.675 105.3,178.645 105.77,179.125C106.01,179.355 106.25,179.675 106.51,180.055C106.77,180.435 107.06,180.855 107.31,181.305C107.83,182.205 107.98,183.145 107.87,183.805C107.78,184.465 107.5,184.815 107.56,184.855Z" style="fill:rgb(38,50,56);fill-rule:nonzero;"/>
    <path d="M116.76,177.985C116.88,177.995 116.84,176.695 115.86,175.525C114.89,174.345 113.61,174.075 113.6,174.195C113.55,174.325 114.64,174.745 115.51,175.815C116.4,176.865 116.63,178.005 116.76,177.985Z" style="fill:rgb(38,50,56);fill-rule:nonzero;"/>
    <path d="M135.15,173.435C135.13,173.405 134.74,173.695 134.02,174.205C133.3,174.705 132.24,175.405 130.86,176.145C129.48,176.885 127.78,177.655 125.84,178.375C123.9,179.095 121.72,179.785 119.42,180.445C114.81,181.775 110.64,182.985 107.62,183.895C106.18,184.335 104.98,184.705 104.06,184.985C103.22,185.255 102.76,185.415 102.77,185.445C102.78,185.475 103.25,185.375 104.11,185.155C105.04,184.905 106.25,184.585 107.71,184.205C110.75,183.375 114.93,182.215 119.54,180.885C121.85,180.215 124.03,179.515 125.98,178.765C127.93,178.015 129.63,177.205 131.01,176.425C132.38,175.645 133.43,174.895 134.12,174.345C134.81,173.795 135.16,173.455 135.15,173.435Z" style="fill:rgb(38,50,56);fill-rule:nonzero;"/>
    <path d="M136.1,173.775C136.11,173.725 135.31,173.425 133.93,173.195C132.58,172.985 130.52,172.875 128.54,173.855C127.56,174.345 126.78,175.085 126.23,175.835C125.67,176.585 125.31,177.345 125.03,177.985C124.49,179.265 124.27,180.095 124.32,180.115C124.39,180.145 124.72,179.345 125.32,178.125C125.93,176.935 126.89,175.185 128.74,174.265C130.58,173.345 132.54,173.395 133.88,173.525C135.24,173.665 136.08,173.845 136.1,173.775Z" style="fill:rgb(38,50,56);fill-rule:nonzero;"/>
    <path d="M66.79,63.205L87.81,65.185L96.35,67.605C100,68.635 103.34,70.555 106.07,73.175L133.58,99.585L138.6,58.565L152.34,59.765L150.05,112.565C148,118.985 142.03,123.495 135.07,123.515C130.95,123.525 127.01,121.785 124,118.965L104.42,100.535L103.83,126.845L117.43,137.885L65.01,167.085C65.01,167.085 62.17,155.935 63.46,131.075C63.7,126.515 55.34,112.675 54.7,108.605C52.25,92.955 52.63,70.065 52.63,70.065L66.79,63.205Z" style="fill:rgb(254,173,84);fill-rule:nonzero;"/>
    <path d="M53.88,69.585C53.88,69.585 43.25,73.525 40.68,81.855C38.4,89.235 30.79,130.765 30.79,130.765L23.24,174.715L39.04,175.315L57.24,100.415L53.88,69.585Z" style="fill:rgb(254,173,84);fill-rule:nonzero;"/>
    <path d="M53.17,118.125C53.2,118.135 53.31,117.815 53.49,117.235C53.67,116.655 53.91,115.805 54.19,114.755C54.76,112.655 55.49,109.735 56.22,106.485C56.95,103.245 57.54,100.285 57.93,98.145C58.12,97.075 58.27,96.205 58.36,95.605C58.45,95.005 58.48,94.665 58.45,94.665C58.42,94.655 58.33,94.985 58.18,95.575C58.02,96.265 57.83,97.105 57.61,98.085C57.12,100.315 56.48,103.195 55.78,106.385C55.05,109.565 54.39,112.445 53.88,114.675C53.66,115.665 53.47,116.505 53.32,117.195C53.2,117.785 53.14,118.115 53.17,118.125Z" style="fill:rgb(38,50,56);fill-rule:nonzero;"/>
    <path d="M149.92,63.705C150.04,63.715 150.22,62.785 150.32,61.635C150.42,60.475 150.4,59.535 150.27,59.525C150.15,59.515 149.97,60.445 149.87,61.595C149.77,62.745 149.79,63.685 149.92,63.705Z" style="fill:rgb(38,50,56);fill-rule:nonzero;"/>
    <path d="M145.89,63.825C146.01,63.835 146.17,62.845 146.23,61.615C146.29,60.395 146.24,59.395 146.12,59.385C146,59.375 145.84,60.365 145.78,61.595C145.72,62.825 145.77,63.825 145.89,63.825Z" style="fill:rgb(38,50,56);fill-rule:nonzero;"/>
    <path d="M141.9,63.575C142.02,63.585 142.19,62.485 142.26,61.115C142.34,59.755 142.3,58.635 142.17,58.635C142.05,58.625 141.88,59.725 141.81,61.095C141.73,62.455 141.77,63.565 141.9,63.575Z" style="fill:rgb(38,50,56);fill-rule:nonzero;"/>
    <path d="M134.17,105.885C134.29,105.875 134.23,104.245 134.02,102.255C133.81,100.265 133.55,98.655 133.42,98.665C133.3,98.675 133.36,100.305 133.57,102.295C133.78,104.285 134.04,105.895 134.17,105.885Z" style="fill:rgb(38,50,56);fill-rule:nonzero;"/>
    <path d="M36.45,170.745C36.33,170.725 36.05,171.715 35.84,172.945C35.63,174.185 35.55,175.205 35.68,175.225C35.8,175.245 36.08,174.255 36.29,173.025C36.5,171.785 36.57,170.765 36.45,170.745Z" style="fill:rgb(38,50,56);fill-rule:nonzero;"/>
    <path d="M31.25,170.735C31.13,170.715 30.87,171.605 30.69,172.735C30.5,173.855 30.45,174.785 30.58,174.805C30.7,174.825 30.96,173.935 31.14,172.805C31.32,171.685 31.38,170.755 31.25,170.735Z" style="fill:rgb(38,50,56);fill-rule:nonzero;"/>
    <path d="M26.32,170.235C26.19,170.225 26.01,171.245 25.8,172.495C25.59,173.745 25.43,174.765 25.55,174.795C25.67,174.825 26.03,173.845 26.25,172.565C26.47,171.295 26.44,170.245 26.32,170.235Z" style="fill:rgb(38,50,56);fill-rule:nonzero;"/>
    <path d="M45.35,74.705C45.35,74.785 46.45,74.725 48.17,75.085C49.87,75.435 52.19,76.315 54.2,78.065C56.21,79.815 57.39,81.995 57.96,83.635C58.55,85.285 58.63,86.385 58.71,86.375C58.74,86.375 58.74,86.095 58.7,85.605C58.65,85.105 58.53,84.395 58.27,83.535C57.76,81.835 56.58,79.545 54.5,77.725C52.42,75.905 49.99,75.045 48.23,74.775C47.35,74.635 46.62,74.605 46.12,74.625C45.62,74.635 45.35,74.675 45.35,74.705Z" style="fill:rgb(38,50,56);fill-rule:nonzero;"/>
    <path d="M102.12,111.785C102.03,111.755 102.53,110.485 103.03,108.375C103.53,106.265 103.95,103.275 103.78,99.965C103.6,96.655 102.87,93.725 102.14,91.685C101.42,89.635 100.79,88.435 100.88,88.395C100.91,88.375 101.09,88.665 101.39,89.205C101.7,89.735 102.08,90.545 102.49,91.565C103.31,93.605 104.12,96.585 104.3,99.955C104.47,103.325 103.99,106.365 103.39,108.485C103.09,109.545 102.8,110.385 102.55,110.945C102.3,111.495 102.15,111.805 102.12,111.785Z" style="fill:rgb(38,50,56);fill-rule:nonzero;"/>
    <path d="M103.47,126.295C103.47,126.335 103.15,126.355 102.56,126.355C101.97,126.365 101.13,126.335 100.08,126.245C97.99,126.085 95.12,125.645 92.04,124.765C88.96,123.885 86.29,122.725 84.43,121.765C83.5,121.285 82.76,120.865 82.27,120.545C81.78,120.235 81.51,120.045 81.53,120.015C81.57,119.945 82.7,120.565 84.59,121.435C86.47,122.315 89.13,123.395 92.18,124.265C95.22,125.135 98.06,125.625 100.12,125.875C102.18,126.145 103.47,126.215 103.47,126.295Z" style="fill:rgb(38,50,56);fill-rule:nonzero;"/>
    <g opacity="0.2">
        <g opacity="0.2">
            <path d="M80.26,118.985C81.9,120.455 84.46,120.675 86.66,120.635C88.87,120.595 91.06,120.155 93.27,120.195C95.48,120.235 97.81,120.825 99.29,122.465C99.74,122.965 100.11,123.595 100.14,124.275C100.17,124.955 99.79,125.675 99.14,125.885C98.74,126.015 98.3,125.925 97.88,125.845C91.71,124.555 85.05,123.105 80.26,118.985Z" style="fill-opacity:0.2;fill-rule:nonzero;"/>
        </g>
    </g>
    <g opacity="0.2">
        <g opacity="0.2">
            <path d="M60.01,120.945C61.64,120.475 61.91,118.565 62.07,116.875C62.73,109.925 61.35,102.785 58.14,96.585C57.37,101.185 56.09,105.965 55.18,110.645L60.01,120.945Z" style="fill-opacity:0.2;fill-rule:nonzero;"/>
        </g>
    </g>
    <path d="M57.16,101.795C57.12,101.855 56.75,101.395 55.82,101.195C54.92,100.985 53.44,101.195 52.13,102.255C50.79,103.295 50.05,105.295 49.64,107.515C49.2,109.705 48.98,112.395 47.29,114.625C46.45,115.725 45.17,116.435 43.9,116.655C42.63,116.895 41.41,116.855 40.29,116.915C38.02,116.945 36.14,117.925 34.94,119.115C33.71,120.295 33.12,121.595 32.83,122.495C32.54,123.405 32.51,123.945 32.46,123.945C32.44,123.945 32.44,123.805 32.45,123.555C32.46,123.295 32.51,122.915 32.63,122.445C32.87,121.505 33.43,120.135 34.68,118.865C35.3,118.235 36.08,117.635 37.04,117.195C37.99,116.735 39.11,116.505 40.27,116.445C41.42,116.365 42.63,116.395 43.81,116.155C45,115.935 46.11,115.305 46.89,114.305C47.67,113.305 48.13,112.095 48.45,110.925C48.77,109.745 48.94,108.555 49.18,107.425C49.62,105.185 50.42,103.075 51.91,101.975C53.34,100.875 54.93,100.715 55.88,101.005C56.37,101.135 56.69,101.355 56.9,101.515C57.08,101.685 57.17,101.785 57.16,101.795Z" style="fill:rgb(250,250,250);fill-rule:nonzero;"/>
    <path d="M116.56,82.445C116.56,82.445 116.28,83.285 115.24,84.475C114.22,85.625 112.29,87.095 109.48,87.565C108.09,87.775 106.49,87.765 104.91,87.205C103.32,86.655 101.86,85.595 100.45,84.425C99.03,83.275 97.6,81.955 95.86,81.095C94.99,80.665 94.04,80.375 93.04,80.325C92.05,80.255 91.03,80.405 90.04,80.705C88.05,81.295 86.3,82.395 84.65,83.505C83,84.615 81.4,85.725 79.69,86.485C77.98,87.235 76.2,87.585 74.54,87.575C72.88,87.575 71.35,87.275 70.02,86.825C67.35,85.905 65.54,84.415 64.49,83.285C63.97,82.695 63.6,82.225 63.39,81.865C63.17,81.515 63.06,81.335 63.07,81.325C63.12,81.285 63.56,82.035 64.63,83.145C65.71,84.215 67.52,85.625 70.13,86.475C72.71,87.315 76.18,87.555 79.48,86.045C81.13,85.305 82.7,84.195 84.35,83.085C86,81.965 87.79,80.825 89.88,80.215C90.92,79.915 92,79.745 93.06,79.825C94.13,79.885 95.15,80.205 96.07,80.655C97.91,81.575 99.34,82.925 100.75,84.075C102.15,85.245 103.55,86.275 105.05,86.815C106.54,87.365 108.08,87.405 109.42,87.225C112.14,86.825 114.05,85.445 115.09,84.365C116.16,83.225 116.51,82.415 116.56,82.445Z" style="fill:rgb(250,250,250);fill-rule:nonzero;"/>
    <path d="M142.45,122.085C142.41,122.095 142.28,121.425 142.04,120.235C141.79,119.055 141.47,117.305 140.6,115.335C140.16,114.355 139.56,113.335 138.72,112.405C137.88,111.475 136.78,110.655 135.45,110.245C134.12,109.815 132.61,109.785 131.06,109.805C129.5,109.815 127.84,109.895 126.17,109.455C124.5,109.025 123.09,108.045 121.9,107.005C120.71,105.955 119.7,104.805 118.72,103.765C116.8,101.655 114.76,99.965 112.67,99.465C110.59,98.965 108.79,99.515 107.83,100.195C106.85,100.885 106.59,101.565 106.54,101.525C106.52,101.515 106.6,101.365 106.75,101.075C106.94,100.815 107.21,100.405 107.72,100.035C108.69,99.275 110.56,98.635 112.76,99.115C114.98,99.595 117.12,101.345 119.07,103.445C120.07,104.495 121.07,105.615 122.23,106.635C123.39,107.645 124.73,108.565 126.3,108.965C129.44,109.755 132.73,108.825 135.6,109.795C137.02,110.255 138.18,111.145 139.04,112.125C139.91,113.105 140.51,114.175 140.94,115.195C141.78,117.235 142.04,119.015 142.24,120.205C142.33,120.805 142.39,121.275 142.42,121.595C142.46,121.915 142.47,122.085 142.45,122.085Z" style="fill:rgb(250,250,250);fill-rule:nonzero;"/>
    <path d="M103.43,106.925C103.43,106.945 103.26,106.965 102.92,107.005C102.58,107.035 102.07,107.045 101.43,106.955C100.13,106.815 98.37,106.095 96.31,105.115C95.27,104.635 94.14,104.115 92.86,103.775C91.59,103.415 90.16,103.365 88.7,103.635C85.77,104.205 82.92,106.085 80.42,108.455C77.91,110.855 75.73,113.415 73.3,115.285C70.9,117.205 68.23,118.235 65.95,118.585C63.66,118.955 61.76,118.765 60.51,118.515C59.88,118.395 59.4,118.255 59.08,118.145C58.76,118.035 58.59,117.975 58.6,117.955C58.61,117.905 59.29,118.125 60.55,118.315C61.8,118.505 63.67,118.635 65.9,118.225C68.13,117.835 70.69,116.805 73.02,114.905C75.39,113.055 77.54,110.505 80.08,108.075C82.62,105.665 85.56,103.735 88.63,103.165C90.15,102.895 91.67,102.965 92.99,103.355C94.31,103.725 95.46,104.275 96.49,104.775C98.54,105.805 100.22,106.555 101.48,106.755C102.72,106.975 103.43,106.865 103.43,106.925Z" style="fill:rgb(250,250,250);fill-rule:nonzero;"/>
    <path d="M94.25,124.535C94.24,124.685 93.2,124.615 92.27,125.365C91.31,126.075 91.11,127.095 90.96,127.075C90.9,127.065 90.84,126.795 90.96,126.365C91.07,125.935 91.4,125.375 91.95,124.955C92.49,124.535 93.12,124.365 93.56,124.365C94.01,124.355 94.26,124.475 94.25,124.535Z" style="fill:rgb(250,250,250);fill-rule:nonzero;"/>
    <path d="M102.83,120.465C102.96,120.505 102.57,121.965 101.55,123.485C100.53,125.015 99.34,125.935 99.25,125.835C99.15,125.725 100.14,124.675 101.11,123.195C102.09,121.735 102.68,120.415 102.83,120.465Z" style="fill:rgb(250,250,250);fill-rule:nonzero;"/>
    <path d="M67.88,134.595C67.83,134.735 66.75,134.435 65.41,134.435C64.06,134.415 62.98,134.705 62.93,134.555C62.87,134.435 63.95,133.895 65.41,133.915C66.86,133.915 67.94,134.465 67.88,134.595Z" style="fill:rgb(250,250,250);fill-rule:nonzero;"/>
    <path d="M39.18,86.045C39.21,86.005 39.41,86.165 39.84,86.285C40.26,86.395 40.92,86.415 41.65,86.125C42.39,85.855 43.11,85.225 43.76,84.375C44.41,83.535 45.06,82.495 45.98,81.595C47.81,79.775 50.03,78.845 51.65,78.485C52.47,78.305 53.14,78.255 53.6,78.235C54.07,78.235 54.32,78.265 54.32,78.295C54.32,78.385 53.3,78.395 51.74,78.835C50.19,79.265 48.1,80.225 46.35,81.955C45.47,82.815 44.84,83.805 44.13,84.665C43.44,85.525 42.61,86.205 41.77,86.455C40.95,86.725 40.21,86.645 39.77,86.455C39.32,86.285 39.16,86.065 39.18,86.045Z" style="fill:rgb(250,250,250);fill-rule:nonzero;"/>
    <path d="M92.68,66.335C92.72,66.365 92.37,66.945 91.55,67.645C90.74,68.355 89.43,69.145 87.83,69.565C86.22,69.985 84.69,69.935 83.64,69.715C82.58,69.495 81.99,69.175 82.01,69.125C82.04,69.045 82.67,69.235 83.7,69.355C84.73,69.475 86.17,69.465 87.7,69.065C89.22,68.665 90.49,67.965 91.33,67.355C92.17,66.755 92.62,66.275 92.68,66.335Z" style="fill:rgb(250,250,250);fill-rule:nonzero;"/>
    <path d="M47.81,140.885C47.81,140.935 47.39,140.925 46.66,141.085C45.94,141.245 44.91,141.635 43.86,142.445C42.79,143.245 41.74,144.455 40.87,145.985C39.97,147.515 39.23,149.325 38.28,151.185C37.33,153.035 36.17,154.725 34.72,155.865C33.29,157.045 31.57,157.505 30.18,157.405C28.78,157.335 27.72,156.805 27.14,156.285C26.84,156.035 26.65,155.805 26.54,155.635C26.43,155.465 26.38,155.375 26.39,155.365C26.43,155.335 26.67,155.695 27.26,156.135C27.84,156.575 28.87,157.025 30.18,157.045C31.5,157.085 33.07,156.625 34.41,155.495C35.77,154.395 36.88,152.765 37.81,150.955C38.74,149.135 39.51,147.305 40.45,145.755C41.37,144.195 42.5,142.945 43.63,142.155C44.76,141.355 45.85,140.995 46.61,140.895C46.99,140.835 47.29,140.835 47.49,140.845C47.7,140.845 47.81,140.865 47.81,140.885Z" style="fill:rgb(250,250,250);fill-rule:nonzero;"/>
    <g opacity="0.3">
        <g opacity="0.3">
            <path d="M133.13,99.035C131.34,101.165 130.65,104.175 131.33,106.875C131.44,107.315 131.64,107.815 132.08,107.945C132.44,108.055 132.83,107.855 133.06,107.565C133.29,107.275 133.39,106.905 133.48,106.535C134.07,104.005 134.02,101.325 133.35,98.815" style="fill-opacity:0.3;fill-rule:nonzero;"/>
        </g>
    </g>
    <path d="M151.86,75.935C151.93,76.015 150.6,76.855 149.34,78.965C148.71,80.005 148.1,81.335 147.53,82.855C146.95,84.375 146.4,86.085 145.6,87.815C144.8,89.535 143.78,91.105 142.49,92.195C141.2,93.275 139.74,93.845 138.48,94.005C137.22,94.165 136.18,93.935 135.54,93.625C135.22,93.465 134.99,93.335 134.84,93.215C134.69,93.105 134.62,93.035 134.63,93.025C134.66,92.975 134.97,93.205 135.61,93.435C136.24,93.665 137.23,93.835 138.42,93.635C139.6,93.445 140.97,92.855 142.17,91.825C143.37,90.785 144.34,89.265 145.12,87.585C145.9,85.895 146.47,84.195 147.08,82.665C147.68,81.145 148.34,79.795 149.03,78.755C149.72,77.715 150.43,76.965 150.96,76.525C151.5,76.085 151.85,75.915 151.86,75.935Z" style="fill:rgb(250,250,250);fill-rule:nonzero;"/>
    <path d="M152.7,64.825C152.74,64.865 152.14,65.545 150.95,66.355C149.76,67.175 147.92,68.065 145.74,68.505C143.56,68.935 141.52,68.805 140.11,68.505C138.69,68.205 137.88,67.805 137.9,67.755C137.93,67.675 138.77,67.945 140.17,68.145C141.56,68.355 143.53,68.415 145.64,68.005C147.75,67.585 149.54,66.775 150.75,66.055C151.97,65.325 152.64,64.755 152.7,64.825Z" style="fill:rgb(250,250,250);fill-rule:nonzero;"/>
    <path d="M160.07,170.335C160.07,170.335 97.22,129.115 94.65,128.255C92.08,127.395 85.86,123.325 79.64,125.035C73.42,126.755 67.85,132.325 65.06,140.475C62.27,148.625 62.06,166.855 62.06,166.855C62.06,166.855 66.99,181.225 76.64,184.225C77.44,184.475 78.29,184.685 79.15,184.855C90.93,187.195 102.91,181.775 109.5,171.735L110.9,169.605C110.9,169.605 152.01,184.705 152.65,184.495L160.07,170.335Z" style="fill:rgb(38,50,56);fill-rule:nonzero;"/>
    <path d="M181.5,122.245C181.5,122.245 189.19,124.995 189.22,133.615C189.28,150.125 155.86,168.325 155.86,168.325L111.38,138.855L111.38,135.755C111.38,135.755 168.64,115.175 181.5,122.245Z" style="fill:rgb(38,50,56);fill-rule:nonzero;"/>
    <path d="M82.32,158.985C82.32,158.985 82.43,159.045 82.66,159.135C82.91,159.235 83.25,159.365 83.69,159.545C84.62,159.905 85.96,160.415 87.67,161.075C91.17,162.395 96.21,164.295 102.48,166.655C108.77,169.005 116.3,171.795 124.76,174.865C133.21,177.935 142.58,181.315 152.59,184.695L152.77,184.755L152.86,184.585C154.43,181.585 156.09,178.425 157.77,175.205C158.63,173.565 159.48,171.945 160.27,170.425L160.37,170.245L160.2,170.135C141.33,158.155 124.45,147.435 112.26,139.705C106.18,135.865 101.27,132.775 97.86,130.625C96.17,129.575 94.86,128.755 93.95,128.185C93.51,127.915 93.17,127.715 92.93,127.565C92.7,127.425 92.57,127.365 92.57,127.365C92.57,127.365 92.68,127.455 92.9,127.605C93.14,127.765 93.47,127.985 93.9,128.265C94.8,128.845 96.1,129.695 97.77,130.775C101.16,132.955 106.04,136.085 112.09,139.975C124.25,147.735 141.11,158.495 159.95,170.525L159.87,170.235C159.08,171.755 158.22,173.375 157.37,175.015C155.69,178.225 154.03,181.395 152.46,184.395L152.73,184.285C142.73,180.905 133.36,177.545 124.9,174.505C116.45,171.435 108.91,168.685 102.59,166.385C96.3,164.075 91.24,162.225 87.74,160.935C86.01,160.305 84.66,159.815 83.73,159.475C83.28,159.315 82.94,159.195 82.69,159.105C82.45,159.015 82.32,158.985 82.32,158.985Z" style="fill:rgb(69,90,100);fill-rule:nonzero;"/>
    <path d="M133.91,153.745C133.93,153.765 134.34,153.485 135.07,152.955C135.8,152.425 136.84,151.645 138.11,150.655C140.66,148.685 144.12,145.895 147.85,142.695C151.58,139.495 154.86,136.485 157.19,134.265C158.36,133.155 159.29,132.245 159.92,131.605C160.55,130.965 160.89,130.605 160.87,130.575C160.85,130.555 160.47,130.875 159.8,131.475C159.07,132.135 158.12,132.995 156.97,134.025C154.59,136.185 151.27,139.145 147.55,142.345C143.83,145.535 140.4,148.365 137.91,150.395C136.71,151.375 135.72,152.185 134.96,152.805C134.27,153.385 133.89,153.715 133.91,153.745Z" style="fill:rgb(69,90,100);fill-rule:nonzero;"/>
    <path d="M168.95,128.425C168.97,128.315 166.98,128.125 164.66,128.815C162.34,129.495 160.77,130.735 160.85,130.815C160.92,130.935 162.55,129.895 164.79,129.245C167.03,128.575 168.95,128.565 168.95,128.425Z" style="fill:rgb(69,90,100);fill-rule:nonzero;"/>
    <path d="M165.12,125.815C165.08,125.705 163.65,126.335 162.48,127.795C161.3,129.245 160.98,130.775 161.1,130.795C161.23,130.835 161.72,129.455 162.84,128.085C163.93,126.705 165.19,125.935 165.12,125.815Z" style="fill:rgb(69,90,100);fill-rule:nonzero;"/>
    <path d="M183.95,178.105C183.97,178.055 183.42,177.945 182.8,178.455C182.19,178.935 181.68,179.905 181.51,181.035C181.34,182.175 181.6,183.215 181.92,183.885C182.23,184.565 182.58,184.875 182.62,184.845C182.68,184.805 182.44,184.425 182.22,183.765C181.99,183.115 181.81,182.145 181.97,181.105C182.12,180.065 182.55,179.175 183.02,178.695C183.49,178.195 183.96,178.175 183.95,178.105Z" style="fill:rgb(38,50,56);fill-rule:nonzero;"/>
    <path d="M55.17,30.945C53.94,29.745 52.2,29.075 50.48,29.155C48.76,29.225 47.09,30.045 45.97,31.345C44.65,32.875 44.15,34.925 43.85,36.925C43.55,38.915 43.42,40.965 42.69,42.845C41.96,44.725 40.47,46.455 38.49,46.825C36.99,47.105 35.21,46.635 34.07,47.645C33.09,48.505 33.11,50.115 33.81,51.225C34.5,52.325 35.7,53.005 36.89,53.535C37.36,53.745 37.92,54.045 37.93,54.565C37.94,55.235 37.08,55.485 36.46,55.745C34.6,56.535 34.06,59.185 35.09,60.925C36.12,62.665 38.26,63.505 40.28,63.515C42.3,63.525 44.26,62.845 46.16,62.165C45.42,62.925 45.45,64.235 46.1,65.065C46.75,65.895 47.89,66.255 48.93,66.125C49.98,65.995 50.93,65.425 51.7,64.695C53.2,63.275 54.03,61.275 54.41,59.245C54.79,57.215 54.76,55.145 54.77,53.075C54.8,45.715 55.32,38.355 56.34,31.065" style="fill:rgb(38,50,56);fill-rule:nonzero;"/>
    <path d="M76.41,16.745C84.52,17.125 90.9,23.805 90.91,31.915C90.92,38.205 90.82,45.045 90.42,49.105C89.49,58.545 82.39,60.155 82.39,60.155C82.39,60.155 82.62,66.015 82.93,71.585C83.23,76.885 78.88,81.555 73.22,82.005C67.61,82.455 62.8,78.605 62.42,73.365L60.52,32.635C60.1,23.695 67.47,16.335 76.41,16.745Z" style="fill:rgb(183,136,118);fill-rule:nonzero;"/>
    <path d="M88.76,36.045C88.82,36.675 88.33,37.245 87.68,37.325C87.02,37.395 86.44,36.945 86.38,36.315C86.32,35.685 86.81,35.115 87.46,35.035C88.12,34.965 88.7,35.415 88.76,36.045Z" style="fill:rgb(38,50,56);fill-rule:nonzero;"/>
    <path d="M88.73,34.185C88.59,34.355 87.64,33.735 86.35,33.815C85.06,33.875 84.15,34.595 84,34.445C83.93,34.375 84.06,34.085 84.46,33.765C84.85,33.445 85.52,33.115 86.33,33.065C87.13,33.025 87.83,33.275 88.23,33.555C88.65,33.835 88.8,34.115 88.73,34.185Z" style="fill:rgb(38,50,56);fill-rule:nonzero;"/>
    <path d="M75.32,36.755C75.38,37.385 74.89,37.955 74.24,38.035C73.58,38.105 73,37.655 72.94,37.025C72.88,36.395 73.37,35.825 74.02,35.745C74.68,35.665 75.26,36.115 75.32,36.755Z" style="fill:rgb(38,50,56);fill-rule:nonzero;"/>
    <path d="M75.3,35.455C75.16,35.625 74.21,35.005 72.92,35.085C71.63,35.145 70.72,35.865 70.57,35.715C70.5,35.645 70.63,35.355 71.03,35.035C71.42,34.715 72.09,34.385 72.9,34.335C73.7,34.295 74.4,34.545 74.8,34.825C75.21,35.105 75.36,35.385 75.3,35.455Z" style="fill:rgb(38,50,56);fill-rule:nonzero;"/>
    <path d="M80.55,44.745C80.54,44.675 81.33,44.485 82.62,44.245C82.95,44.195 83.26,44.105 83.3,43.875C83.36,43.635 83.2,43.285 83.02,42.915C82.66,42.135 82.29,41.315 81.9,40.465C80.33,36.975 79.18,34.095 79.32,34.035C79.46,33.975 80.84,36.755 82.41,40.245C82.79,41.105 83.15,41.925 83.49,42.715C83.64,43.085 83.88,43.495 83.74,43.995C83.67,44.245 83.43,44.435 83.23,44.505C83.02,44.585 82.84,44.595 82.67,44.615C81.37,44.765 80.56,44.825 80.55,44.745Z" style="fill:rgb(38,50,56);fill-rule:nonzero;"/>
    <path d="M82.44,60.175C82.44,60.175 76.08,60.745 69.63,57.365C69.63,57.365 73.12,64.085 82.52,62.865L82.44,60.175Z" style="fill:rgb(153,80,55);fill-rule:nonzero;"/>
    <path d="M71.04,31.865C71.2,32.095 72.13,31.705 73.31,31.445C74.48,31.175 75.49,31.125 75.54,30.855C75.6,30.605 74.48,30.195 73.1,30.505C71.71,30.815 70.88,31.665 71.04,31.865Z" style="fill:rgb(38,50,56);fill-rule:nonzero;"/>
    <path d="M83.82,29.545C83.88,29.815 84.94,29.775 86.21,29.795C87.48,29.805 88.54,29.875 88.61,29.605C88.68,29.355 87.63,28.845 86.22,28.825C84.81,28.805 83.75,29.285 83.82,29.545Z" style="fill:rgb(38,50,56);fill-rule:nonzero;"/>
    <path d="M62.92,68.475C62.83,66.535 65,58.115 65.86,52.945C66.72,47.775 63.34,46.935 62.81,43.885C62.27,40.835 63.8,37.935 63.8,37.935C68.74,39.705 70.69,36.185 73.39,34.105C76.26,31.895 76.89,29.175 78.06,25.745C79.23,22.315 80.6,20.175 84.2,19.845C84.2,19.845 87.73,21.625 89,25.355C90.1,28.565 90.98,41.085 90.98,41.085C91.48,35.075 96.35,32.555 95.03,23.725C94.46,19.905 91.3,14.695 86.42,13.935C85.01,13.715 82.33,13.545 82.33,13.545C79.42,10.925 78,10.995 75.21,9.765C69.19,7.095 61.96,11.865 57.96,17.095C54.89,21.115 53.39,26.565 52.56,31.685C51.98,35.235 51.99,38.845 52.33,42.425C52.53,44.555 52.27,47.265 50.17,48.895C47.18,51.225 46.39,55.665 48.46,61.595C50.53,67.515 42.9,77.585 42.9,77.585C42.9,77.585 46.6,74.555 49.7,72.975C52.79,71.395 62.92,68.475 62.92,68.475Z" style="fill:rgb(38,50,56);fill-rule:nonzero;"/>
    <path d="M78.99,47.835C78.57,47.355 77.87,47.125 77.21,47.245C76.75,47.325 76.3,47.585 76.04,47.985C75.79,48.385 75.77,48.925 76.05,49.265C76.37,49.645 76.98,49.695 77.48,49.515C77.98,49.335 78.39,48.965 78.79,48.595C78.9,48.495 79.01,48.385 79.07,48.255C79.13,48.125 79.14,47.955 79.04,47.855" style="fill:rgb(153,80,55);fill-rule:nonzero;"/>
    <path d="M76.16,46.195C76.33,46.175 76.42,47.335 77.48,48.085C78.53,48.835 79.76,48.615 79.78,48.775C79.8,48.845 79.52,49.025 79,49.075C78.49,49.135 77.73,49.025 77.08,48.565C76.44,48.105 76.12,47.455 76.05,46.975C75.97,46.495 76.08,46.195 76.16,46.195Z" style="fill:rgb(38,50,56);fill-rule:nonzero;"/>
    <path d="M35.37,43.545C35.4,43.545 35.33,44.015 35.47,44.845C35.54,45.255 35.68,45.755 35.96,46.275C36.24,46.785 36.69,47.315 37.36,47.635C38.01,47.955 38.88,48.095 39.66,47.745C40.45,47.405 40.99,46.575 41.2,45.625C41.43,44.675 41.41,43.625 41.37,42.535C41.33,41.445 41.27,40.315 41.26,39.155C41.23,36.845 41.56,34.565 42.52,32.755C43.43,30.935 44.99,29.665 46.51,29.315C48.01,28.905 49.32,29.205 50.07,29.595C50.84,29.995 51.12,30.395 51.12,30.395C51.1,30.425 50.78,30.055 50.02,29.705C49.27,29.365 48.01,29.115 46.57,29.535C45.12,29.905 43.65,31.125 42.78,32.895C41.86,34.655 41.55,36.875 41.57,39.165C41.57,40.315 41.64,41.445 41.67,42.535C41.71,43.625 41.73,44.705 41.48,45.705C41.26,46.695 40.65,47.625 39.77,47.995C38.89,48.365 37.96,48.195 37.27,47.845C36.56,47.495 36.1,46.915 35.81,46.375C35.53,45.825 35.41,45.305 35.35,44.885C35.25,44.015 35.37,43.545 35.37,43.545Z" style="fill:rgb(38,50,56);fill-rule:nonzero;"/>
    <path d="M49.16,63.835C49.16,63.835 48.96,63.705 48.67,63.345C48.39,62.985 48.06,62.365 47.94,61.495C47.82,60.635 47.93,59.515 48.49,58.405C49.03,57.275 49.97,56.195 51.08,55.135C52.18,54.055 53.5,52.965 54.48,51.465C55.49,49.975 55.78,47.995 55.64,45.985C55.53,43.965 55.04,41.845 55.15,39.595C55.21,38.475 55.41,37.325 55.93,36.255C56.45,35.195 57.33,34.295 58.37,33.715C60.47,32.525 62.81,32.195 64.74,31.135C66.69,30.105 67.94,28.265 68.86,26.485C69.78,24.675 70.44,22.845 71.29,21.225C72.12,19.605 73.18,18.205 74.44,17.275C75.68,16.325 77.11,15.855 78.36,15.935C79.61,16.005 80.61,16.535 81.27,17.105C81.94,17.675 82.25,18.315 82.4,18.745C82.47,18.965 82.51,19.135 82.52,19.255C82.54,19.375 82.54,19.435 82.54,19.435C82.51,19.445 82.51,19.195 82.34,18.775C82.18,18.355 81.86,17.755 81.19,17.215C80.54,16.675 79.56,16.185 78.35,16.125C77.15,16.075 75.77,16.535 74.57,17.475C73.35,18.395 72.33,19.765 71.51,21.375C70.68,22.975 70.03,24.805 69.1,26.645C68.18,28.455 66.9,30.355 64.87,31.435C62.89,32.535 60.53,32.865 58.52,34.015C57.51,34.575 56.69,35.425 56.2,36.425C55.71,37.435 55.5,38.545 55.45,39.635C55.33,41.835 55.81,43.945 55.92,45.995C56.06,48.035 55.75,50.095 54.69,51.635C53.67,53.175 52.33,54.265 51.23,55.325C50.11,56.375 49.18,57.425 48.64,58.515C48.09,59.595 47.97,60.675 48.06,61.515C48.28,63.215 49.23,63.815 49.16,63.835Z" style="fill:rgb(69,90,100);fill-rule:nonzero;"/>
    <path d="M51.64,35.455C51.52,35.525 50.91,34.155 51.28,32.415C51.63,30.675 52.75,29.665 52.83,29.775C52.95,29.875 52.11,30.935 51.79,32.525C51.44,34.105 51.79,35.415 51.64,35.455Z" style="fill:rgb(250,250,250);fill-rule:nonzero;"/>
    <path d="M54.92,64.305C54.21,69.265 55.26,74.465 57.83,78.765C58.75,80.305 59.89,81.755 61.4,82.715C62.91,83.675 64.85,84.065 66.53,83.445C68.21,82.815 69.47,81.025 69.19,79.255C68.79,76.755 65.7,75.185 65.69,72.645C66.81,73.315 68.33,73.975 69.31,73.105C69.98,72.515 70.01,71.465 69.68,70.645C69.35,69.825 68.72,69.165 68.17,68.475C65.9,65.595 64.88,61.755 65.44,58.125C65.6,57.115 65.87,53.995 65.88,52.965C65.89,51.935 65.61,52.965 64.83,52.295C64.07,51.635 62.95,51.505 61.98,51.775C61.01,52.045 60.17,52.655 59.45,53.365C57.1,55.645 55.8,58.975 55.97,62.245" style="fill:rgb(38,50,56);fill-rule:nonzero;"/>
</svg>
