<?xml version="1.0" encoding="UTF-8" standalone="no"?>
<!DOCTYPE svg PUBLIC "-//W3C//DTD SVG 1.1//EN" "http://www.w3.org/Graphics/SVG/1.1/DTD/svg11.dtd">
<svg width="100%" height="100%" viewBox="0 0 40 40" version="1.1" xmlns="http://www.w3.org/2000/svg" xmlns:xlink="http://www.w3.org/1999/xlink" xml:space="preserve" xmlns:serif="http://www.serif.com/" style="fill-rule:evenodd;clip-rule:evenodd;stroke-linejoin:round;stroke-miterlimit:2;">
    <circle cx="20" cy="20" r="20" style="fill:white;"/>
    <g>
        <path d="M29.315,29.102L19.729,29.102C19.351,29.102 19.044,28.795 19.044,28.417C19.044,28.039 19.351,27.732 19.729,27.732L29.315,27.732C29.693,27.732 30,28.039 30,28.417C30,28.795 29.693,29.102 29.315,29.102Z" style="fill:rgb(1,84,104);fill-rule:nonzero;"/>
        <path d="M29.315,20.2L19.729,20.2C19.351,20.2 19.044,19.893 19.044,19.515C19.044,19.137 19.351,18.831 19.729,18.831L29.315,18.831C29.693,18.831 30,19.137 30,19.515C30,19.893 29.693,20.2 29.315,20.2Z" style="fill:rgb(1,84,104);fill-rule:nonzero;"/>
        <path d="M29.315,11.298L19.729,11.298C19.351,11.298 19.044,10.991 19.044,10.613C19.044,10.235 19.351,9.929 19.729,9.929L29.315,9.929C29.693,9.929 30,10.235 30,10.613C30,10.991 29.693,11.298 29.315,11.298Z" style="fill:rgb(1,84,104);fill-rule:nonzero;"/>
        <path d="M16.99,14.95C16.814,14.95 16.639,14.884 16.506,14.749L13.337,11.581L10.169,14.749C9.902,15.017 9.468,15.017 9.201,14.749C8.933,14.482 8.933,14.048 9.201,13.781L12.853,10.129C13.12,9.861 13.554,9.861 13.821,10.129L17.473,13.781C17.741,14.048 17.741,14.482 17.473,14.749C17.34,14.884 17.165,14.95 16.99,14.95Z" style="fill:rgb(1,84,104);fill-rule:nonzero;"/>
        <path d="M13.338,29.102C13.162,29.102 12.987,29.035 12.854,28.901L9.202,25.249C8.934,24.981 8.934,24.548 9.202,24.28C9.469,24.013 9.903,24.013 10.17,24.28L13.339,27.449L16.507,24.28C16.774,24.013 17.208,24.013 17.475,24.28C17.743,24.548 17.743,24.981 17.475,25.249L13.823,28.901C13.688,29.035 13.513,29.102 13.338,29.102Z" style="fill:rgb(1,84,104);fill-rule:nonzero;"/>
        <path d="M13.337,29.102C12.959,29.102 12.653,28.795 12.653,28.417L12.653,10.613C12.653,10.235 12.959,9.929 13.337,9.929C13.715,9.929 14.022,10.235 14.022,10.613L14.022,28.417C14.022,28.795 13.715,29.102 13.337,29.102Z" style="fill:rgb(1,84,104);fill-rule:nonzero;"/>
    </g>
</svg>
