<?xml version="1.0" encoding="UTF-8" standalone="no"?>
<!DOCTYPE svg PUBLIC "-//W3C//DTD SVG 1.1//EN" "http://www.w3.org/Graphics/SVG/1.1/DTD/svg11.dtd">
<svg width="100%" height="100%" viewBox="0 0 177 31" version="1.1" xmlns="http://www.w3.org/2000/svg" xmlns:xlink="http://www.w3.org/1999/xlink" xml:space="preserve" xmlns:serif="http://www.serif.com/" style="fill-rule:evenodd;clip-rule:evenodd;stroke-linejoin:round;stroke-miterlimit:2;">
    <g transform="matrix(1,0,0,1,0,-0.944)">
        <path d="M177,22.5C177,19.464 174.536,17 171.5,17L9.5,17C6.464,17 4,19.464 4,22.5C4,25.536 6.464,28 9.5,28L171.5,28C174.536,28 177,25.536 177,22.5Z" style="fill:rgb(236,236,236);"/>
    </g>
    <g transform="matrix(1,0,0,1,0,-0.944)">
        <path d="M25,22C25,19.24 22.76,17 20,17L5,17C2.24,17 0,19.24 0,22L0,23C0,25.76 2.24,28 5,28L20,28C22.76,28 25,25.76 25,23L25,22Z" style="fill:rgb(1,84,104);"/>
    </g>
    <g transform="matrix(1,0,0,1,0,-0.944)">
        <circle cx="25.5" cy="22.5" r="8.5" style="fill:rgb(254,173,84);"/>
    </g>
    <g transform="matrix(1,0,0,1,0,-0.944)">
        <path d="M86.118,1.4L83.662,7L82.87,7L80.406,1.4L81.27,1.4L83.286,6L85.318,1.4L86.118,1.4ZM86.728,2.76L87.496,2.76L87.496,7L86.728,7L86.728,2.76ZM87.112,1.944C86.963,1.944 86.837,1.896 86.736,1.8C86.64,1.704 86.592,1.587 86.592,1.448C86.592,1.309 86.64,1.192 86.736,1.096C86.837,0.995 86.963,0.944 87.112,0.944C87.261,0.944 87.384,0.992 87.48,1.088C87.581,1.179 87.632,1.293 87.632,1.432C87.632,1.576 87.581,1.699 87.48,1.8C87.384,1.896 87.261,1.944 87.112,1.944ZM92.962,1.064L92.962,7L92.226,7L92.226,6.328C92.056,6.563 91.84,6.741 91.578,6.864C91.317,6.987 91.029,7.048 90.714,7.048C90.304,7.048 89.936,6.957 89.61,6.776C89.285,6.595 89.029,6.341 88.842,6.016C88.661,5.685 88.57,5.307 88.57,4.88C88.57,4.453 88.661,4.077 88.842,3.752C89.029,3.427 89.285,3.173 89.61,2.992C89.936,2.811 90.304,2.72 90.714,2.72C91.018,2.72 91.298,2.779 91.554,2.896C91.81,3.008 92.024,3.176 92.194,3.4L92.194,1.064L92.962,1.064ZM90.778,6.376C91.045,6.376 91.288,6.315 91.506,6.192C91.725,6.064 91.896,5.888 92.018,5.664C92.141,5.435 92.202,5.173 92.202,4.88C92.202,4.587 92.141,4.328 92.018,4.104C91.896,3.875 91.725,3.699 91.506,3.576C91.288,3.453 91.045,3.392 90.778,3.392C90.506,3.392 90.261,3.453 90.042,3.576C89.829,3.699 89.658,3.875 89.53,4.104C89.408,4.328 89.346,4.587 89.346,4.88C89.346,5.173 89.408,5.435 89.53,5.664C89.658,5.888 89.829,6.064 90.042,6.192C90.261,6.315 90.506,6.376 90.778,6.376ZM98.248,4.904C98.248,4.963 98.242,5.04 98.232,5.136L94.792,5.136C94.84,5.509 95.002,5.811 95.28,6.04C95.562,6.264 95.912,6.376 96.328,6.376C96.834,6.376 97.242,6.205 97.552,5.864L97.976,6.36C97.784,6.584 97.543,6.755 97.256,6.872C96.973,6.989 96.656,7.048 96.304,7.048C95.856,7.048 95.458,6.957 95.112,6.776C94.765,6.589 94.496,6.331 94.304,6C94.117,5.669 94.024,5.296 94.024,4.88C94.024,4.469 94.114,4.099 94.296,3.768C94.482,3.437 94.736,3.181 95.056,3C95.381,2.813 95.746,2.72 96.152,2.72C96.557,2.72 96.917,2.813 97.232,3C97.552,3.181 97.8,3.437 97.976,3.768C98.157,4.099 98.248,4.477 98.248,4.904ZM96.152,3.368C95.784,3.368 95.474,3.48 95.224,3.704C94.978,3.928 94.834,4.221 94.792,4.584L97.512,4.584C97.469,4.227 97.322,3.936 97.072,3.712C96.826,3.483 96.519,3.368 96.152,3.368Z" style="fill:rgb(94,94,94);fill-rule:nonzero;"/>
    </g>
</svg>
