<?xml version="1.0" encoding="UTF-8" standalone="no"?>
<!DOCTYPE svg PUBLIC "-//W3C//DTD SVG 1.1//EN" "http://www.w3.org/Graphics/SVG/1.1/DTD/svg11.dtd">
<svg width="100%" height="100%" viewBox="0 0 40 40" version="1.1" xmlns="http://www.w3.org/2000/svg" xmlns:xlink="http://www.w3.org/1999/xlink" xml:space="preserve" xmlns:serif="http://www.serif.com/" style="fill-rule:evenodd;clip-rule:evenodd;stroke-linejoin:round;stroke-miterlimit:2;">
    <circle cx="20" cy="20" r="20" style="fill:white;"/>
    <path d="M29.161,16.346C28.977,16.294 28.79,16.292 28.615,16.329L28.905,15.288C29.133,14.47 28.38,13.673 27.548,13.863C27.635,13.164 27.045,12.538 26.343,12.58C25.71,12.617 25.396,13.093 25.241,13.648C24.625,13.069 23.579,13.365 23.353,14.177L21.604,20.461C21.593,20.501 21.534,20.503 21.522,20.462L20.899,18.498C20.755,18.046 20.355,17.745 19.909,17.704L20.007,17.493C20.269,16.918 20.014,16.237 19.439,15.975C18.869,15.715 18.18,15.974 17.921,16.543L17.069,18.419C17.051,18.458 16.994,18.45 16.987,18.408L15.996,11.961C15.868,11.128 14.865,10.71 14.184,11.211C14.097,10.646 13.848,10.135 13.225,10.02C12.532,9.891 11.865,10.443 11.868,11.15C11.065,10.864 10.223,11.566 10.352,12.405L10.516,13.473C9.716,13.198 8.885,13.897 9.013,14.732L9.979,21.01C10.122,21.939 10.424,22.827 10.876,23.65L10.712,27.606C10.694,28.049 11.098,28.413 11.538,28.345L18.483,27.276C18.931,27.207 19.21,26.722 19.039,26.299L17.599,22.726L18.924,19.844L20.484,24.676L18.63,28.052C18.41,28.451 18.629,28.967 19.066,29.089L25.834,30.974C26.263,31.094 26.708,30.782 26.743,30.339L27.05,26.391C27.596,25.627 28.001,24.781 28.253,23.876L28.565,22.757C28.671,22.377 28.078,22.211 27.972,22.592L27.661,23.711C27.42,24.573 27.03,25.377 26.502,26.099C26.468,26.145 26.447,26.2 26.443,26.257L26.254,28.692L19.945,26.934L21.087,24.855C21.128,24.781 21.137,24.693 21.11,24.613L19.301,19.007C19.095,18.361 20.104,18.032 20.312,18.684L20.935,20.648C21.128,21.258 22.025,21.242 22.197,20.626L23.946,14.342C24.127,13.692 25.156,13.955 24.968,14.627L23.465,20.024C23.359,20.405 23.951,20.57 24.058,20.189L25.561,14.792L25.899,13.58C26.08,12.931 27.109,13.193 26.922,13.865L25.08,20.474C24.97,20.87 25.569,21.014 25.673,20.639L27.289,14.838C27.473,14.179 28.496,14.463 28.312,15.123L27.75,17.142C27.75,17.142 27.75,17.142 27.749,17.142L26.696,20.924C26.59,21.305 27.182,21.472 27.289,21.089L28.342,17.307C28.527,16.648 29.549,16.933 29.365,17.592L28.486,20.746C28.38,21.127 28.973,21.293 29.079,20.912L29.958,17.758C30.128,17.149 29.77,16.515 29.161,16.346ZM26.205,29.317L26.13,30.291C26.125,30.355 26.061,30.399 26,30.382L19.231,28.496C19.168,28.479 19.137,28.406 19.169,28.348L19.641,27.488L26.205,29.317ZM16.978,22.833L17.865,25.033L16.869,25.186C16.48,25.246 16.572,25.855 16.963,25.794L18.102,25.619L18.469,26.529C18.493,26.589 18.454,26.658 18.389,26.668L11.445,27.737C11.381,27.747 11.324,27.695 11.327,27.631L11.367,26.655L15.076,26.085C15.466,26.025 15.373,25.416 14.982,25.477L11.393,26.029L11.494,23.589C11.497,23.532 11.483,23.475 11.455,23.425C11.016,22.645 10.724,21.801 10.587,20.916L9.621,14.639C9.517,13.961 10.566,13.8 10.671,14.477L11.268,18.357C11.325,18.73 11.941,18.685 11.876,18.264L11.279,14.383C11.279,14.383 11.279,14.383 11.279,14.383L10.96,12.312C10.856,11.635 11.905,11.473 12.009,12.15L12.926,18.102C12.983,18.475 13.598,18.429 13.534,18.009L12.49,11.228C12.386,10.551 13.435,10.389 13.54,11.066L14.583,17.847C14.643,18.238 15.251,18.144 15.191,17.754L14.339,12.216C14.235,11.539 15.284,11.377 15.388,12.054L16.379,18.501C16.476,19.134 17.364,19.257 17.629,18.673L18.481,16.798C18.764,16.175 19.732,16.612 19.447,17.237C19.354,17.44 19.187,17.679 19.155,17.903C18.821,18.134 18.632,18.53 18.665,18.938L16.984,22.589C16.949,22.666 16.947,22.754 16.978,22.833Z" style="fill:rgb(1,84,104);fill-rule:nonzero;"/>
</svg>
