<?xml version="1.0" encoding="UTF-8" standalone="no"?>
<!DOCTYPE svg PUBLIC "-//W3C//DTD SVG 1.1//EN" "http://www.w3.org/Graphics/SVG/1.1/DTD/svg11.dtd">
<svg width="100%" height="100%" viewBox="0 0 32 32" version="1.1" xmlns="http://www.w3.org/2000/svg" xmlns:xlink="http://www.w3.org/1999/xlink" xml:space="preserve" xmlns:serif="http://www.serif.com/" style="fill-rule:evenodd;clip-rule:evenodd;stroke-linejoin:round;stroke-miterlimit:2;">
    <circle cx="16" cy="16" r="16" style="fill:rgb(236,236,236);"/>
    <path d="M12.901,15.358C12.758,15.358 12.641,15.475 12.641,15.618L12.641,16.784C12.641,16.927 12.758,17.044 12.901,17.044C13.045,17.044 13.161,16.927 13.161,16.784L13.161,15.618C13.161,15.475 13.045,15.358 12.901,15.358Z" style="fill:rgb(94,94,94);fill-rule:nonzero;"/>
    <path d="M18.26,17.044C18.404,17.044 18.52,16.927 18.52,16.784L18.52,15.618C18.52,15.475 18.404,15.358 18.26,15.358C18.116,15.358 18,15.475 18,15.618L18,16.784C18,16.927 18.116,17.044 18.26,17.044Z" style="fill:rgb(94,94,94);fill-rule:nonzero;"/>
    <path d="M21.991,14.262L21.991,13.63C21.991,11.918 21.325,10.308 20.114,9.097C19.203,8.186 18.057,7.576 16.798,7.334C16.4,7.258 15.99,7.219 15.581,7.219C12.046,7.219 9.17,10.095 9.17,13.63L9.17,14.267C9.12,14.264 9.07,14.262 9.019,14.262C7.764,14.262 6.743,15.283 6.743,16.537C6.743,17.792 7.764,18.813 9.019,18.813C9.095,18.813 9.172,18.809 9.247,18.802C9.371,19.602 9.645,20.375 10.058,21.075C10.609,22.007 11.392,22.789 12.324,23.34L12.353,23.391C12.779,24.151 13.586,24.623 14.457,24.623L16.704,24.623C17.576,24.623 18.382,24.151 18.809,23.391L18.838,23.34C19.77,22.789 20.552,22.007 21.104,21.074C21.515,20.378 21.789,19.609 21.913,18.812C21.936,18.812 21.958,18.813 21.981,18.813C23.236,18.813 24.257,17.792 24.257,16.538C24.257,15.286 23.241,14.268 21.991,14.262ZM15.581,7.739C15.957,7.739 16.334,7.775 16.7,7.845C17.856,8.068 18.909,8.627 19.746,9.464C20.858,10.577 21.471,12.057 21.471,13.63L21.471,14.275C19.232,14.25 17.243,13.938 15.555,13.346C15.419,13.298 15.271,13.369 15.223,13.505C15.176,13.64 15.247,13.789 15.383,13.836C17.125,14.448 19.173,14.77 21.471,14.795L21.471,15.329L20.06,17.532L15.612,16.987C15.591,16.984 15.57,16.984 15.549,16.987L11.102,17.532L9.691,15.329L9.691,14.721C10.342,14.473 10.956,14.05 11.435,13.514C11.832,13.07 12.101,12.583 12.22,12.102C12.602,12.435 13.28,12.935 14.334,13.416C14.465,13.475 14.619,13.418 14.679,13.287C14.738,13.156 14.681,13.002 14.55,12.942C13.691,12.551 13.106,12.148 12.767,11.88C12.399,11.589 12.232,11.388 12.231,11.386C12.162,11.301 12.046,11.269 11.942,11.305C11.839,11.342 11.769,11.44 11.769,11.55C11.769,12.072 11.513,12.646 11.047,13.168C10.675,13.584 10.194,13.934 9.691,14.158L9.691,13.63C9.691,10.382 12.333,7.739 15.581,7.739ZM9.019,18.293C8.051,18.293 7.264,17.505 7.264,16.537C7.264,15.57 8.051,14.783 9.019,14.783C9.07,14.783 9.12,14.786 9.17,14.79L9.17,15.839C8.774,15.822 8.263,15.948 8.025,16.494C7.968,16.626 8.029,16.779 8.16,16.837C8.194,16.851 8.229,16.858 8.264,16.858C8.364,16.858 8.46,16.8 8.503,16.702C8.644,16.377 8.962,16.343 9.17,16.359L9.17,17.818C9.17,17.974 9.177,18.13 9.188,18.285C9.132,18.29 9.076,18.293 9.019,18.293ZM18.355,23.136C18.021,23.733 17.388,24.103 16.704,24.103L14.457,24.103C13.774,24.103 13.141,23.733 12.806,23.136L11.231,20.329L11.231,19.811C11.231,19.667 11.115,19.551 10.971,19.551C10.827,19.551 10.711,19.667 10.711,19.811L10.711,20.397C10.711,20.442 10.722,20.486 10.744,20.525L11.723,22.269C11.243,21.853 10.831,21.36 10.506,20.81C9.973,19.907 9.691,18.873 9.691,17.818L9.691,16.293L10.711,17.886L10.711,18.77C10.711,18.914 10.827,19.031 10.971,19.031C11.115,19.031 11.231,18.914 11.231,18.77L11.231,18.04L15.581,17.507L19.93,18.04L19.93,20.329L18.355,23.136ZM20.656,20.81C20.331,21.36 19.918,21.853 19.438,22.269L20.417,20.525C20.439,20.486 20.451,20.442 20.451,20.397L20.451,17.886L21.471,16.293L21.471,17.818C21.471,18.873 21.189,19.907 20.656,20.81ZM21.981,18.293C21.978,18.293 21.976,18.293 21.973,18.293C21.985,18.135 21.991,17.977 21.991,17.818L21.991,16.359C22.2,16.343 22.518,16.378 22.659,16.702C22.702,16.8 22.797,16.858 22.898,16.858C22.932,16.858 22.967,16.851 23.001,16.837C23.133,16.779 23.193,16.626 23.136,16.494C22.898,15.948 22.387,15.822 21.991,15.839L21.991,14.783C22.955,14.788 23.736,15.573 23.736,16.538C23.736,17.505 22.949,18.293 21.981,18.293Z" style="fill:rgb(94,94,94);fill-rule:nonzero;"/>
    <g transform="matrix(2.30045,2.30045,-1.05561,1.05561,-1.56654,-9.58608)">
        <path d="M14.906,3.508C14.906,3.323 14.837,3.173 14.753,3.173L3.88,3.173C3.795,3.173 3.726,3.323 3.726,3.508L3.726,4.178C3.726,4.363 3.795,4.513 3.88,4.513L14.753,4.513C14.837,4.513 14.906,4.363 14.906,4.178L14.906,3.508Z" style="fill:rgb(254,173,84);"/>
    </g>
</svg>
