<?xml version="1.0" encoding="UTF-8" standalone="no"?>
<!DOCTYPE svg PUBLIC "-//W3C//DTD SVG 1.1//EN" "http://www.w3.org/Graphics/SVG/1.1/DTD/svg11.dtd">
<svg width="100%" height="100%" viewBox="0 0 32 32" version="1.1" xmlns="http://www.w3.org/2000/svg" xmlns:xlink="http://www.w3.org/1999/xlink" xml:space="preserve" xmlns:serif="http://www.serif.com/" style="fill-rule:evenodd;clip-rule:evenodd;stroke-linejoin:round;stroke-miterlimit:2;">
    <circle cx="16" cy="16" r="16" style="fill:rgb(1,84,104);"/>
    <path d="M23.438,23L15.563,23C15.252,23 15,22.776 15,22.5C15,22.224 15.252,22 15.563,22L23.438,22C23.748,22 24,22.224 24,22.5C24,22.776 23.748,23 23.438,23Z" style="fill:white;fill-rule:nonzero;"/>
    <path d="M23.438,16L15.563,16C15.252,16 15,15.776 15,15.5C15,15.224 15.252,15 15.563,15L23.438,15C23.748,15 24,15.224 24,15.5C24,15.776 23.748,16 23.438,16Z" style="fill:white;fill-rule:nonzero;"/>
    <path d="M23.438,9L15.563,9C15.252,9 15,8.776 15,8.5C15,8.224 15.252,8 15.563,8L23.438,8C23.748,8 24,8.224 24,8.5C24,8.776 23.748,9 23.438,9Z" style="fill:white;fill-rule:nonzero;"/>
    <path d="M13.448,12C13.306,12 13.165,11.947 13.057,11.84L10.5,9.317L7.944,11.84C7.728,12.053 7.378,12.053 7.162,11.84C6.946,11.627 6.946,11.282 7.162,11.069L10.109,8.16C10.325,7.947 10.675,7.947 10.891,8.16L13.838,11.069C14.054,11.282 14.054,11.627 13.838,11.84C13.731,11.947 13.589,12 13.448,12Z" style="fill:white;fill-rule:nonzero;"/>
    <path d="M10.499,23C10.358,23 10.216,22.947 10.109,22.84L7.162,19.931C6.946,19.718 6.946,19.373 7.162,19.16C7.378,18.947 7.728,18.947 7.944,19.16L10.5,21.683L13.057,19.16C13.272,18.947 13.622,18.947 13.838,19.16C14.054,19.373 14.054,19.718 13.838,19.931L10.891,22.84C10.782,22.947 10.641,23 10.499,23Z" style="fill:white;fill-rule:nonzero;"/>
    <path d="M10.5,23C10.224,23 10,22.76 10,22.464L10,8.536C10,8.24 10.224,8 10.5,8C10.776,8 11,8.24 11,8.536L11,22.464C11,22.76 10.776,23 10.5,23Z" style="fill:white;fill-rule:nonzero;"/>
</svg>
