<?xml version="1.0" encoding="UTF-8" standalone="no"?>
<!DOCTYPE svg PUBLIC "-//W3C//DTD SVG 1.1//EN" "http://www.w3.org/Graphics/SVG/1.1/DTD/svg11.dtd">
<svg width="100%" height="100%" viewBox="0 0 32 32" version="1.1" xmlns="http://www.w3.org/2000/svg" xmlns:xlink="http://www.w3.org/1999/xlink" xml:space="preserve" xmlns:serif="http://www.serif.com/" style="fill-rule:evenodd;clip-rule:evenodd;stroke-linejoin:round;stroke-miterlimit:2;">
    <circle cx="16" cy="16" r="16" style="fill:rgb(236,236,236);"/>
    <path d="M23.321,13.137C23.172,13.095 23.021,13.093 22.879,13.123L23.113,12.28C23.298,11.618 22.689,10.973 22.015,11.127C22.085,10.56 21.608,10.054 21.04,10.088C20.528,10.118 20.273,10.503 20.148,10.952C19.649,10.484 18.802,10.723 18.619,11.381L17.203,16.468C17.194,16.501 17.147,16.502 17.137,16.469L16.632,14.879C16.516,14.513 16.192,14.269 15.831,14.236L15.91,14.065C16.122,13.6 15.916,13.049 15.451,12.836C14.989,12.626 14.431,12.836 14.221,13.296L13.532,14.815C13.518,14.846 13.471,14.84 13.466,14.806L12.664,9.587C12.56,8.912 11.748,8.574 11.197,8.98C11.126,8.522 10.925,8.109 10.42,8.015C9.859,7.911 9.319,8.358 9.322,8.931C8.671,8.698 7.99,9.267 8.094,9.946L8.227,10.811C7.579,10.589 6.907,11.154 7.011,11.83L7.793,16.912C7.909,17.664 8.153,18.383 8.519,19.05L8.386,22.252C8.371,22.611 8.698,22.906 9.055,22.851L14.676,21.985C15.04,21.93 15.265,21.536 15.127,21.194L13.961,18.302L15.034,15.969L16.297,19.88L14.795,22.613C14.618,22.937 14.795,23.354 15.149,23.453L20.628,24.979C20.975,25.076 21.335,24.823 21.363,24.465L21.612,21.269C22.054,20.65 22.382,19.966 22.586,19.233L22.838,18.327C22.924,18.019 22.445,17.885 22.359,18.193L22.106,19.099C21.912,19.797 21.596,20.448 21.168,21.032C21.141,21.07 21.124,21.114 21.121,21.16L20.967,23.131L15.861,21.709L16.785,20.026C16.818,19.966 16.825,19.895 16.804,19.829L15.339,15.291C15.172,14.768 15.989,14.501 16.157,15.03L16.662,16.62C16.818,17.113 17.544,17.1 17.683,16.602L19.099,11.514C19.245,10.989 20.078,11.201 19.927,11.745L18.71,16.115C18.624,16.423 19.104,16.557 19.189,16.248L20.407,11.879L20.68,10.898C20.826,10.372 21.66,10.585 21.508,11.128L20.017,16.479C19.928,16.799 20.413,16.916 20.497,16.613L21.805,11.916C21.954,11.382 22.782,11.613 22.634,12.147L22.178,13.781C22.178,13.781 22.178,13.781 22.178,13.782L21.325,16.843C21.24,17.151 21.719,17.286 21.805,16.977L22.658,13.915C22.807,13.381 23.635,13.612 23.486,14.146L22.775,16.699C22.689,17.007 23.169,17.141 23.255,16.833L23.966,14.28C24.103,13.787 23.814,13.274 23.321,13.137ZM20.928,23.638L20.867,24.426C20.863,24.478 20.812,24.514 20.762,24.5L15.283,22.973C15.231,22.959 15.207,22.9 15.232,22.853L15.614,22.157L20.928,23.638ZM13.459,18.388L14.177,20.169L13.37,20.293C13.055,20.342 13.13,20.834 13.446,20.786L14.368,20.644L14.665,21.38C14.685,21.429 14.653,21.485 14.601,21.493L8.979,22.358C8.928,22.366 8.881,22.325 8.883,22.273L8.916,21.483L11.919,21.021C12.235,20.972 12.159,20.48 11.843,20.528L8.937,20.976L9.019,19C9.021,18.954 9.01,18.908 8.987,18.868C8.632,18.236 8.395,17.553 8.285,16.837L7.503,11.755C7.419,11.206 8.268,11.076 8.353,11.624L8.836,14.765C8.882,15.067 9.381,15.03 9.328,14.689L8.845,11.548C8.845,11.548 8.845,11.548 8.845,11.548L8.587,9.871C8.502,9.323 9.352,9.192 9.436,9.74L10.178,14.559C10.224,14.86 10.723,14.823 10.67,14.483L9.825,8.993C9.741,8.445 10.591,8.314 10.675,8.862L11.52,14.352C11.568,14.668 12.061,14.593 12.012,14.276L11.322,9.793C11.238,9.245 12.087,9.114 12.172,9.662L12.974,14.882C13.052,15.394 13.771,15.493 13.986,15.021L14.675,13.502C14.904,12.999 15.688,13.352 15.457,13.858C15.382,14.022 15.247,14.216 15.22,14.397C14.951,14.584 14.797,14.904 14.824,15.235L13.463,18.191C13.435,18.253 13.433,18.325 13.459,18.388Z" style="fill:rgb(94,94,94);fill-rule:nonzero;"/>
    <g transform="matrix(2.30045,2.30045,-1.05561,1.05561,-1.56654,-9.58608)">
        <path d="M14.906,3.508C14.906,3.323 14.837,3.173 14.753,3.173L3.88,3.173C3.795,3.173 3.726,3.323 3.726,3.508L3.726,4.178C3.726,4.363 3.795,4.513 3.88,4.513L14.753,4.513C14.837,4.513 14.906,4.363 14.906,4.178L14.906,3.508Z" style="fill:rgb(254,173,84);"/>
    </g>
</svg>
