<?xml version="1.0" encoding="UTF-8" standalone="no"?>
<!DOCTYPE svg PUBLIC "-//W3C//DTD SVG 1.1//EN" "http://www.w3.org/Graphics/SVG/1.1/DTD/svg11.dtd">
<svg width="100%" height="100%" viewBox="0 0 25 25" version="1.1" xmlns="http://www.w3.org/2000/svg" xmlns:xlink="http://www.w3.org/1999/xlink" xml:space="preserve" xmlns:serif="http://www.serif.com/" style="fill-rule:evenodd;clip-rule:evenodd;stroke-linejoin:round;stroke-miterlimit:2;">
    <path d="M12.5,0C5.597,0 0,5.597 0,12.5C0,19.402 5.597,25 12.5,25C19.402,25 25,19.402 25,12.5C25,5.597 19.402,0 12.5,0ZM15.102,19.373C14.458,19.627 13.946,19.819 13.562,19.952C13.179,20.086 12.733,20.152 12.227,20.152C11.448,20.152 10.841,19.962 10.41,19.582C9.978,19.202 9.763,18.721 9.763,18.136C9.763,17.908 9.779,17.675 9.811,17.438C9.843,17.201 9.895,16.934 9.966,16.635L10.771,13.791C10.842,13.518 10.904,13.258 10.952,13.017C11.001,12.774 11.024,12.55 11.024,12.347C11.024,11.985 10.949,11.731 10.8,11.588C10.649,11.445 10.364,11.376 9.94,11.376C9.732,11.376 9.519,11.406 9.299,11.471C9.083,11.538 8.894,11.598 8.74,11.657L8.952,10.781C9.479,10.566 9.984,10.382 10.466,10.23C10.947,10.075 11.402,9.999 11.831,9.999C12.604,9.999 13.201,10.187 13.621,10.56C14.039,10.933 14.25,11.419 14.25,12.016C14.25,12.14 14.235,12.358 14.206,12.669C14.178,12.981 14.124,13.266 14.046,13.527L13.244,16.363C13.179,16.591 13.121,16.851 13.068,17.142C13.016,17.433 12.991,17.655 12.991,17.804C12.991,18.181 13.074,18.438 13.243,18.575C13.411,18.711 13.704,18.78 14.118,18.78C14.314,18.78 14.533,18.745 14.781,18.677C15.027,18.61 15.204,18.549 15.316,18.497L15.102,19.373ZM14.96,7.861C14.586,8.208 14.137,8.382 13.611,8.382C13.086,8.382 12.633,8.208 12.256,7.861C11.882,7.514 11.692,7.092 11.692,6.599C11.692,6.107 11.883,5.684 12.256,5.333C12.633,4.982 13.086,4.807 13.611,4.807C14.137,4.807 14.587,4.982 14.96,5.333C15.333,5.684 15.521,6.107 15.521,6.599C15.521,7.093 15.333,7.514 14.96,7.861Z" style="fill:rgb(7,155,171);fill-rule:nonzero;"/>
</svg>
