<?xml version="1.0" encoding="UTF-8" standalone="no"?>
<!DOCTYPE svg PUBLIC "-//W3C//DTD SVG 1.1//EN" "http://www.w3.org/Graphics/SVG/1.1/DTD/svg11.dtd">
<svg width="100%" height="100%" viewBox="0 0 20 20" version="1.1" xmlns="http://www.w3.org/2000/svg" xmlns:xlink="http://www.w3.org/1999/xlink" xml:space="preserve" xmlns:serif="http://www.serif.com/" style="fill-rule:evenodd;clip-rule:evenodd;stroke-linejoin:round;stroke-miterlimit:2;">
    <path d="M10,0C4.477,0 0,4.477 0,10C0,15.522 4.477,20 10,20C15.522,20 20,15.522 20,10C20,4.477 15.522,0 10,0ZM12.081,15.498C11.567,15.701 11.157,15.855 10.85,15.962C10.543,16.069 10.187,16.122 9.781,16.122C9.158,16.122 8.673,15.97 8.328,15.666C7.982,15.362 7.81,14.977 7.81,14.508C7.81,14.326 7.823,14.14 7.848,13.951C7.875,13.761 7.916,13.548 7.973,13.308L8.617,11.032C8.674,10.814 8.723,10.607 8.762,10.414C8.801,10.219 8.819,10.04 8.819,9.878C8.819,9.588 8.759,9.385 8.64,9.271C8.519,9.156 8.291,9.101 7.952,9.101C7.786,9.101 7.615,9.125 7.44,9.177C7.266,9.23 7.115,9.278 6.992,9.326L7.162,8.625C7.583,8.453 7.987,8.306 8.372,8.184C8.758,8.06 9.122,7.999 9.465,7.999C10.083,7.999 10.561,8.15 10.897,8.448C11.231,8.747 11.4,9.135 11.4,9.613C11.4,9.712 11.388,9.886 11.365,10.135C11.342,10.385 11.299,10.613 11.236,10.822L10.596,13.09C10.543,13.272 10.496,13.481 10.454,13.713C10.413,13.946 10.392,14.124 10.392,14.243C10.392,14.545 10.459,14.751 10.595,14.86C10.729,14.969 10.963,15.024 11.295,15.024C11.451,15.024 11.627,14.996 11.825,14.942C12.021,14.888 12.163,14.839 12.253,14.798L12.081,15.498ZM11.968,6.289C11.669,6.567 11.309,6.706 10.889,6.706C10.469,6.706 10.106,6.567 9.805,6.289C9.505,6.011 9.354,5.674 9.354,5.279C9.354,4.886 9.506,4.547 9.805,4.267C10.106,3.986 10.469,3.846 10.889,3.846C11.309,3.846 11.67,3.986 11.968,4.267C12.267,4.547 12.416,4.886 12.416,5.279C12.416,5.675 12.267,6.011 11.968,6.289Z" style="fill:white;fill-rule:nonzero;"/>
</svg>
