<?xml version="1.0" encoding="UTF-8" standalone="no"?>
<!DOCTYPE svg PUBLIC "-//W3C//DTD SVG 1.1//EN" "http://www.w3.org/Graphics/SVG/1.1/DTD/svg11.dtd">
<svg width="100%" height="100%" viewBox="0 0 21 19" version="1.1" xmlns="http://www.w3.org/2000/svg" xmlns:xlink="http://www.w3.org/1999/xlink" xml:space="preserve" xmlns:serif="http://www.serif.com/" style="fill-rule:evenodd;clip-rule:evenodd;stroke-linejoin:round;stroke-miterlimit:2;">
    <path d="M13.203,13.847C11.845,14.69 10.2,15.184 8.426,15.184C3.773,15.184 0,11.785 0,7.592C0,3.399 3.773,0 8.426,0C13.08,0 16.853,3.399 16.853,7.592C16.853,9.189 16.305,10.672 15.369,11.895L21,16.968L18.833,18.92L13.203,13.847ZM8.426,12.423C11.388,12.423 13.789,10.26 13.789,7.592C13.789,4.924 11.388,2.761 8.426,2.761C5.465,2.761 3.064,4.924 3.064,7.592C3.064,10.26 5.465,12.423 8.426,12.423Z" style="fill:rgb(17,128,123);"/>
</svg>
