<?xml version="1.0" encoding="UTF-8" standalone="no"?>
<!DOCTYPE svg PUBLIC "-//W3C//DTD SVG 1.1//EN" "http://www.w3.org/Graphics/SVG/1.1/DTD/svg11.dtd">
<svg width="100%" height="100%" viewBox="0 0 40 40" version="1.1" xmlns="http://www.w3.org/2000/svg" xmlns:xlink="http://www.w3.org/1999/xlink" xml:space="preserve" xmlns:serif="http://www.serif.com/" style="fill-rule:evenodd;clip-rule:evenodd;stroke-linejoin:round;stroke-miterlimit:2;">
    <circle cx="20" cy="20" r="20" style="fill:white;"/>
    <path d="M15.736,19.293C15.555,19.293 15.409,19.44 15.409,19.62L15.409,21.084C15.409,21.264 15.555,21.41 15.736,21.41C15.916,21.41 16.062,21.264 16.062,21.084L16.062,19.62C16.062,19.44 15.916,19.293 15.736,19.293Z" style="fill:rgb(1,84,104);fill-rule:nonzero;"/>
    <path d="M22.467,21.41C22.648,21.41 22.794,21.264 22.794,21.084L22.794,19.62C22.794,19.44 22.648,19.293 22.467,19.293C22.287,19.293 22.141,19.44 22.141,19.62L22.141,21.084C22.141,21.264 22.287,21.41 22.467,21.41Z" style="fill:rgb(1,84,104);fill-rule:nonzero;"/>
    <path d="M27.154,17.917L27.154,17.122C27.154,14.971 26.317,12.949 24.796,11.427C23.652,10.283 22.212,9.518 20.631,9.214C20.13,9.117 19.616,9.068 19.101,9.068C14.661,9.068 11.049,12.681 11.049,17.122L11.049,17.923C10.986,17.919 10.922,17.917 10.859,17.917C9.282,17.917 8,19.199 8,20.774C8,22.351 9.282,23.633 10.859,23.633C10.955,23.633 11.05,23.628 11.145,23.619C11.301,24.625 11.645,25.595 12.164,26.474C12.856,27.646 13.839,28.627 15.01,29.319L15.046,29.384C15.582,30.339 16.595,30.932 17.69,30.932L20.513,30.932C21.608,30.932 22.621,30.339 23.157,29.384L23.193,29.319C24.364,28.627 25.347,27.645 26.039,26.474C26.556,25.599 26.9,24.633 27.056,23.631C27.085,23.632 27.113,23.633 27.141,23.633C28.718,23.633 30,22.351 30,20.775C30,19.203 28.725,17.924 27.154,17.917ZM19.101,9.722C19.574,9.722 20.047,9.767 20.507,9.855C21.959,10.134 23.283,10.838 24.333,11.889C25.731,13.287 26.501,15.146 26.501,17.122L26.501,17.932C23.689,17.901 21.189,17.509 19.069,16.765C18.899,16.705 18.712,16.795 18.653,16.965C18.593,17.135 18.682,17.322 18.853,17.381C21.042,18.15 23.614,18.554 26.501,18.586L26.501,19.256L24.728,22.023L19.141,21.339C19.115,21.336 19.088,21.336 19.062,21.339L13.475,22.023L11.702,19.256L11.702,18.492C12.521,18.182 13.291,17.65 13.893,16.977C14.393,16.418 14.73,15.806 14.88,15.203C15.359,15.621 16.212,16.249 17.535,16.853C17.7,16.928 17.893,16.855 17.968,16.691C18.043,16.527 17.971,16.333 17.807,16.258C16.728,15.766 15.993,15.261 15.567,14.923C15.105,14.558 14.895,14.305 14.894,14.304C14.807,14.196 14.661,14.156 14.531,14.202C14.401,14.248 14.314,14.371 14.314,14.51C14.314,15.165 13.991,15.886 13.406,16.541C12.938,17.065 12.334,17.503 11.702,17.786L11.702,17.122C11.702,13.041 15.021,9.722 19.101,9.722ZM10.859,22.979C9.643,22.979 8.653,21.99 8.653,20.774C8.653,19.559 9.643,18.57 10.859,18.57C10.922,18.57 10.986,18.574 11.049,18.579L11.049,19.897C10.551,19.875 9.909,20.034 9.611,20.72C9.539,20.886 9.614,21.078 9.78,21.15C9.822,21.169 9.867,21.177 9.91,21.177C10.036,21.177 10.156,21.104 10.21,20.981C10.387,20.573 10.787,20.53 11.049,20.55L11.049,22.383C11.049,22.579 11.057,22.774 11.071,22.969C11.001,22.976 10.93,22.979 10.859,22.979ZM22.587,29.064C22.166,29.813 21.372,30.278 20.513,30.278L17.69,30.278C16.831,30.278 16.037,29.813 15.616,29.064L13.637,25.538L13.637,24.887C13.637,24.706 13.491,24.56 13.311,24.56C13.13,24.56 12.984,24.706 12.984,24.887L12.984,25.623C12.984,25.679 12.999,25.734 13.026,25.783L14.256,27.975C13.653,27.452 13.135,26.832 12.726,26.142C12.056,25.007 11.702,23.708 11.702,22.383L11.702,20.468L12.984,22.468L12.984,23.58C12.984,23.76 13.13,23.906 13.311,23.906C13.491,23.906 13.637,23.76 13.637,23.58L13.637,22.662L19.102,21.993L24.565,22.662L24.565,25.538L22.587,29.064ZM25.477,26.141C25.069,26.832 24.55,27.451 23.947,27.974L25.177,25.783C25.205,25.734 25.219,25.679 25.219,25.623L25.219,22.468L26.501,20.467L26.501,22.383C26.501,23.708 26.147,25.007 25.477,26.141ZM27.141,22.979C27.138,22.979 27.135,22.979 27.132,22.979C27.146,22.781 27.154,22.582 27.154,22.383L27.154,20.55C27.416,20.53 27.816,20.574 27.993,20.981C28.047,21.104 28.167,21.177 28.293,21.177C28.336,21.177 28.381,21.169 28.423,21.15C28.588,21.078 28.664,20.886 28.592,20.72C28.294,20.034 27.652,19.875 27.154,19.897L27.154,18.57C28.364,18.577 29.347,19.563 29.347,20.775C29.347,21.99 28.357,22.979 27.141,22.979Z" style="fill:rgb(1,84,104);fill-rule:nonzero;"/>
</svg>
