<?xml version="1.0" encoding="UTF-8" standalone="no"?>
<!DOCTYPE svg PUBLIC "-//W3C//DTD SVG 1.1//EN" "http://www.w3.org/Graphics/SVG/1.1/DTD/svg11.dtd">
<svg width="100%" height="100%" viewBox="0 0 177 31" version="1.1" xmlns="http://www.w3.org/2000/svg" xmlns:xlink="http://www.w3.org/1999/xlink" xml:space="preserve" xmlns:serif="http://www.serif.com/" style="fill-rule:evenodd;clip-rule:evenodd;stroke-linejoin:round;stroke-miterlimit:2;">
    <g transform="matrix(1,0,0,1,0,-0.944)">
        <path d="M177,22.5C177,19.464 174.536,17 171.5,17L9.5,17C6.464,17 4,19.464 4,22.5C4,25.536 6.464,28 9.5,28L171.5,28C174.536,28 177,25.536 177,22.5Z" style="fill:rgb(236,236,236);"/>
    </g>
    <g transform="matrix(1,0,0,1,0,-0.944)">
        <path d="M91,22C91,19.24 88.76,17 86,17L5,17C2.24,17 0,19.24 0,22L0,23C0,25.76 2.24,28 5,28L86,28C88.76,28 91,25.76 91,23L91,22Z" style="fill:rgb(1,84,104);"/>
    </g>
    <g transform="matrix(1,0,0,1,0,-0.944)">
        <circle cx="90.5" cy="22.5" r="8.5" style="fill:rgb(254,173,84);"/>
    </g>
    <g transform="matrix(1,0,0,1,0,-0.944)">
        <path d="M61.103,6.304L61.103,7L57.039,7L57.039,1.4L60.991,1.4L60.991,2.096L57.839,2.096L57.839,3.816L60.647,3.816L60.647,4.496L57.839,4.496L57.839,6.304L61.103,6.304ZM64.551,2.72C65.089,2.72 65.516,2.877 65.831,3.192C66.151,3.501 66.311,3.957 66.311,4.56L66.311,7L65.543,7L65.543,4.648C65.543,4.237 65.444,3.928 65.247,3.72C65.049,3.512 64.767,3.408 64.399,3.408C63.983,3.408 63.655,3.531 63.415,3.776C63.175,4.016 63.055,4.363 63.055,4.816L63.055,7L62.287,7L62.287,2.76L63.023,2.76L63.023,3.4C63.177,3.181 63.385,3.013 63.647,2.896C63.913,2.779 64.215,2.72 64.551,2.72ZM72.128,2.72C72.539,2.72 72.907,2.811 73.232,2.992C73.558,3.173 73.811,3.427 73.992,3.752C74.179,4.077 74.272,4.453 74.272,4.88C74.272,5.307 74.179,5.685 73.992,6.016C73.811,6.341 73.558,6.595 73.232,6.776C72.907,6.957 72.539,7.048 72.128,7.048C71.824,7.048 71.544,6.989 71.288,6.872C71.038,6.755 70.824,6.584 70.648,6.36L70.648,8.552L69.88,8.552L69.88,2.76L70.616,2.76L70.616,3.432C70.787,3.197 71.003,3.021 71.264,2.904C71.526,2.781 71.814,2.72 72.128,2.72ZM72.064,6.376C72.336,6.376 72.579,6.315 72.792,6.192C73.011,6.064 73.182,5.888 73.304,5.664C73.432,5.435 73.496,5.173 73.496,4.88C73.496,4.587 73.432,4.328 73.304,4.104C73.182,3.875 73.011,3.699 72.792,3.576C72.579,3.453 72.336,3.392 72.064,3.392C71.798,3.392 71.555,3.456 71.336,3.584C71.123,3.707 70.952,3.88 70.824,4.104C70.702,4.328 70.64,4.587 70.64,4.88C70.64,5.173 70.702,5.435 70.824,5.664C70.947,5.888 71.118,6.064 71.336,6.192C71.555,6.315 71.798,6.376 72.064,6.376ZM76.838,2.72C77.425,2.72 77.873,2.864 78.182,3.152C78.497,3.44 78.654,3.869 78.654,4.44L78.654,7L77.926,7L77.926,6.44C77.798,6.637 77.614,6.789 77.374,6.896C77.14,6.997 76.86,7.048 76.534,7.048C76.06,7.048 75.678,6.933 75.39,6.704C75.108,6.475 74.966,6.173 74.966,5.8C74.966,5.427 75.102,5.128 75.374,4.904C75.646,4.675 76.078,4.56 76.67,4.56L77.886,4.56L77.886,4.408C77.886,4.077 77.79,3.824 77.598,3.648C77.406,3.472 77.124,3.384 76.75,3.384C76.5,3.384 76.254,3.427 76.014,3.512C75.774,3.592 75.572,3.701 75.406,3.84L75.086,3.264C75.305,3.088 75.566,2.955 75.87,2.864C76.174,2.768 76.497,2.72 76.838,2.72ZM76.662,6.456C76.956,6.456 77.209,6.392 77.422,6.264C77.636,6.131 77.79,5.944 77.886,5.704L77.886,5.112L76.702,5.112C76.052,5.112 75.726,5.331 75.726,5.768C75.726,5.981 75.809,6.149 75.974,6.272C76.14,6.395 76.369,6.456 76.662,6.456ZM80.812,3.472C80.945,3.227 81.142,3.04 81.404,2.912C81.665,2.784 81.982,2.72 82.356,2.72L82.356,3.464C82.313,3.459 82.254,3.456 82.18,3.456C81.764,3.456 81.436,3.581 81.196,3.832C80.961,4.077 80.844,4.429 80.844,4.888L80.844,7L80.076,7L80.076,2.76L80.812,2.76L80.812,3.472ZM85.858,6.752C85.746,6.848 85.607,6.923 85.442,6.976C85.277,7.024 85.106,7.048 84.93,7.048C84.503,7.048 84.173,6.933 83.938,6.704C83.703,6.475 83.586,6.147 83.586,5.72L83.586,3.392L82.866,3.392L82.866,2.76L83.586,2.76L83.586,1.832L84.354,1.832L84.354,2.76L85.57,2.76L85.57,3.392L84.354,3.392L84.354,5.688C84.354,5.917 84.41,6.093 84.522,6.216C84.639,6.339 84.805,6.4 85.018,6.4C85.253,6.4 85.453,6.333 85.618,6.2L85.858,6.752ZM86.787,2.76L87.555,2.76L87.555,7L86.787,7L86.787,2.76ZM87.171,1.944C87.021,1.944 86.896,1.896 86.795,1.8C86.699,1.704 86.651,1.587 86.651,1.448C86.651,1.309 86.699,1.192 86.795,1.096C86.896,0.995 87.021,0.944 87.171,0.944C87.32,0.944 87.443,0.992 87.539,1.088C87.64,1.179 87.691,1.293 87.691,1.432C87.691,1.576 87.64,1.699 87.539,1.8C87.443,1.896 87.32,1.944 87.171,1.944ZM92.853,4.904C92.853,4.963 92.848,5.04 92.837,5.136L89.397,5.136C89.445,5.509 89.608,5.811 89.885,6.04C90.168,6.264 90.517,6.376 90.933,6.376C91.44,6.376 91.848,6.205 92.157,5.864L92.581,6.36C92.389,6.584 92.149,6.755 91.861,6.872C91.578,6.989 91.261,7.048 90.909,7.048C90.461,7.048 90.064,6.957 89.717,6.776C89.37,6.589 89.101,6.331 88.909,6C88.722,5.669 88.629,5.296 88.629,4.88C88.629,4.469 88.72,4.099 88.901,3.768C89.088,3.437 89.341,3.181 89.661,3C89.986,2.813 90.352,2.72 90.757,2.72C91.162,2.72 91.522,2.813 91.837,3C92.157,3.181 92.405,3.437 92.581,3.768C92.762,4.099 92.853,4.477 92.853,4.904ZM90.757,3.368C90.389,3.368 90.08,3.48 89.829,3.704C89.584,3.928 89.44,4.221 89.397,4.584L92.117,4.584C92.074,4.227 91.928,3.936 91.677,3.712C91.432,3.483 91.125,3.368 90.757,3.368ZM96.804,3.472C96.937,3.227 97.135,3.04 97.396,2.912C97.657,2.784 97.975,2.72 98.348,2.72L98.348,3.464C98.305,3.459 98.247,3.456 98.172,3.456C97.756,3.456 97.428,3.581 97.188,3.832C96.953,4.077 96.836,4.429 96.836,4.888L96.836,7L96.068,7L96.068,2.76L96.804,2.76L96.804,3.472ZM103.087,4.904C103.087,4.963 103.082,5.04 103.071,5.136L99.631,5.136C99.679,5.509 99.842,5.811 100.119,6.04C100.402,6.264 100.751,6.376 101.167,6.376C101.674,6.376 102.082,6.205 102.391,5.864L102.815,6.36C102.623,6.584 102.383,6.755 102.095,6.872C101.813,6.989 101.495,7.048 101.143,7.048C100.695,7.048 100.298,6.957 99.951,6.776C99.605,6.589 99.335,6.331 99.143,6C98.957,5.669 98.863,5.296 98.863,4.88C98.863,4.469 98.954,4.099 99.135,3.768C99.322,3.437 99.575,3.181 99.895,3C100.221,2.813 100.586,2.72 100.991,2.72C101.397,2.72 101.757,2.813 102.071,3C102.391,3.181 102.639,3.437 102.815,3.768C102.997,4.099 103.087,4.477 103.087,4.904ZM100.991,3.368C100.623,3.368 100.314,3.48 100.063,3.704C99.818,3.928 99.674,4.221 99.631,4.584L102.351,4.584C102.309,4.227 102.162,3.936 101.911,3.712C101.666,3.483 101.359,3.368 100.991,3.368ZM109.458,2.72C109.991,2.72 110.412,2.875 110.722,3.184C111.036,3.493 111.194,3.952 111.194,4.56L111.194,7L110.426,7L110.426,4.648C110.426,4.237 110.33,3.928 110.138,3.72C109.951,3.512 109.682,3.408 109.33,3.408C108.94,3.408 108.631,3.531 108.402,3.776C108.172,4.016 108.058,4.363 108.058,4.816L108.058,7L107.29,7L107.29,4.648C107.29,4.237 107.194,3.928 107.002,3.72C106.815,3.512 106.546,3.408 106.194,3.408C105.804,3.408 105.495,3.531 105.266,3.776C105.036,4.016 104.922,4.363 104.922,4.816L104.922,7L104.154,7L104.154,2.76L104.89,2.76L104.89,3.392C105.044,3.173 105.247,3.008 105.498,2.896C105.748,2.779 106.034,2.72 106.354,2.72C106.684,2.72 106.978,2.787 107.234,2.92C107.49,3.053 107.687,3.248 107.826,3.504C107.986,3.259 108.207,3.067 108.49,2.928C108.778,2.789 109.1,2.72 109.458,2.72ZM114.855,2.72C115.266,2.72 115.634,2.811 115.959,2.992C116.284,3.173 116.538,3.427 116.719,3.752C116.906,4.077 116.999,4.453 116.999,4.88C116.999,5.307 116.906,5.685 116.719,6.016C116.538,6.341 116.284,6.595 115.959,6.776C115.634,6.957 115.266,7.048 114.855,7.048C114.551,7.048 114.271,6.989 114.015,6.872C113.764,6.755 113.551,6.584 113.375,6.36L113.375,8.552L112.607,8.552L112.607,2.76L113.343,2.76L113.343,3.432C113.514,3.197 113.73,3.021 113.991,2.904C114.252,2.781 114.54,2.72 114.855,2.72ZM114.791,6.376C115.063,6.376 115.306,6.315 115.519,6.192C115.738,6.064 115.908,5.888 116.031,5.664C116.159,5.435 116.223,5.173 116.223,4.88C116.223,4.587 116.159,4.328 116.031,4.104C115.908,3.875 115.738,3.699 115.519,3.576C115.306,3.453 115.063,3.392 114.791,3.392C114.524,3.392 114.282,3.456 114.063,3.584C113.85,3.707 113.679,3.88 113.551,4.104C113.428,4.328 113.367,4.587 113.367,4.88C113.367,5.173 113.428,5.435 113.551,5.664C113.674,5.888 113.844,6.064 114.063,6.192C114.282,6.315 114.524,6.376 114.791,6.376ZM118.06,1.064L118.828,1.064L118.828,7L118.06,7L118.06,1.064ZM120.294,2.76L121.062,2.76L121.062,7L120.294,7L120.294,2.76ZM120.678,1.944C120.529,1.944 120.404,1.896 120.302,1.8C120.206,1.704 120.158,1.587 120.158,1.448C120.158,1.309 120.206,1.192 120.302,1.096C120.404,0.995 120.529,0.944 120.678,0.944C120.828,0.944 120.95,0.992 121.046,1.088C121.148,1.179 121.198,1.293 121.198,1.432C121.198,1.576 121.148,1.699 121.046,1.8C120.95,1.896 120.828,1.944 120.678,1.944Z" style="fill:rgb(94,94,94);fill-rule:nonzero;"/>
    </g>
</svg>
