<?xml version="1.0" encoding="UTF-8" standalone="no"?>
<!DOCTYPE svg PUBLIC "-//W3C//DTD SVG 1.1//EN" "http://www.w3.org/Graphics/SVG/1.1/DTD/svg11.dtd">
<svg width="100%" height="100%" viewBox="0 0 217 211" version="1.1" xmlns="http://www.w3.org/2000/svg" xmlns:xlink="http://www.w3.org/1999/xlink" xml:space="preserve" xmlns:serif="http://www.serif.com/" style="fill-rule:evenodd;clip-rule:evenodd;stroke-linejoin:round;stroke-miterlimit:2;">
    <circle cx="97.5" cy="89.5" r="89.5" style="fill:rgb(1,84,104);fill-opacity:0.13;"/>
    <path d="M197.694,174.646L123.234,170.086C122.764,169.016 122.454,168.396 122.454,168.396L102.274,168.796L95.704,168.396C95.704,168.396 95.604,168.596 95.444,168.936L27.704,170.286C14.194,170.286 0.004,178.526 0.004,189.056C-0.166,199.076 4.684,209.956 16.784,209.706L109.074,209.396L201.364,209.706C213.464,209.956 216.664,202.656 216.684,193.996C218.114,177.876 208.014,174.776 197.694,174.646Z" style="fill:rgb(69,90,100);fill-rule:nonzero;"/>
    <path d="M25.264,209.706C25.264,209.706 25.414,209.686 25.704,209.676C26.024,209.666 26.454,209.666 27.004,209.656C28.174,209.646 29.864,209.626 32.034,209.606C36.424,209.586 42.764,209.556 50.604,209.526C66.354,209.506 88.174,209.476 112.574,209.446L112.314,209.726C112.184,207.706 112.054,205.536 111.914,203.356C111.634,198.896 111.364,194.496 111.104,190.326L111.334,190.566C88.664,188.046 68.634,185.816 54.244,184.216C47.084,183.396 41.324,182.736 37.324,182.276C35.354,182.036 33.834,181.856 32.764,181.726C32.264,181.656 31.874,181.606 31.584,181.576C31.314,181.536 31.184,181.516 31.184,181.506C31.184,181.496 31.324,181.506 31.584,181.526C31.874,181.556 32.264,181.586 32.764,181.636C33.834,181.746 35.364,181.896 37.334,182.096C41.334,182.516 47.094,183.126 54.264,183.876C68.654,185.436 88.694,187.606 111.374,190.056L111.594,190.076L111.604,190.296C111.864,194.476 112.144,198.866 112.424,203.326C112.564,205.506 112.694,207.676 112.824,209.696L112.844,209.976L112.564,209.976C88.154,209.946 66.334,209.916 50.594,209.896C42.744,209.866 36.414,209.836 32.024,209.816C29.854,209.796 28.164,209.776 26.994,209.766C26.434,209.756 26.004,209.746 25.694,209.746C25.414,209.726 25.264,209.706 25.264,209.706Z" style="fill:rgb(38,50,56);fill-rule:nonzero;"/>
    <path d="M44.294,183.236C44.234,183.306 43.314,182.556 41.684,181.566C40.064,180.576 37.694,179.396 34.904,178.586C32.114,177.786 29.484,177.526 27.574,177.506C25.674,177.486 24.484,177.626 24.474,177.536C24.474,177.496 24.764,177.436 25.294,177.346C25.824,177.246 26.604,177.176 27.574,177.136C29.504,177.056 32.204,177.266 35.044,178.086C37.884,178.906 40.284,180.166 41.874,181.256C42.674,181.796 43.294,182.276 43.694,182.636C44.104,182.996 44.314,183.206 44.294,183.236Z" style="fill:rgb(38,50,56);fill-rule:nonzero;"/>
    <path d="M191.914,179.276C191.944,179.416 177.264,182.966 159.114,187.206C140.964,191.446 126.224,194.766 126.194,194.626C126.164,194.486 140.844,190.936 158.994,186.696C177.144,182.456 191.884,179.136 191.914,179.276Z" style="fill:rgb(38,50,56);fill-rule:nonzero;"/>
    <path d="M179.504,177.836C179.554,177.996 176.664,178.576 173.754,180.596C170.814,182.576 169.214,185.046 169.074,184.936C169.024,184.906 169.344,184.246 170.074,183.306C170.794,182.366 171.954,181.186 173.454,180.166C174.954,179.146 176.484,178.506 177.624,178.176C178.754,177.836 179.494,177.776 179.504,177.836Z" style="fill:rgb(38,50,56);fill-rule:nonzero;"/>
    <path d="M151.784,93.306L175.364,134.356C178.274,139.426 178.454,145.616 175.844,150.846C172.814,156.916 166.534,160.676 159.754,160.486L123.544,159.466L122.594,146.296L154.484,140.186L132.984,102.966L151.784,93.306Z" style="fill:rgb(255,190,157);fill-rule:nonzero;"/>
    <path d="M63.884,163.556L97.184,172.376L97.904,162.386L67.214,144.566L89.624,102.966L70.824,93.306L47.244,134.356C41.534,144.956 46.864,158.146 58.344,161.796L63.884,163.556Z" style="fill:rgb(255,190,157);fill-rule:nonzero;"/>
    <path d="M141.774,119.666L164.534,107.676C164.534,107.676 160.744,99.656 154.784,91.416C147.734,81.666 136.804,74.846 124.384,72.256L98.204,72.566C94.474,72.966 91.414,73.676 88.864,74.716L88.884,74.616C74.674,77.746 58.914,108.736 58.914,108.736L79.624,119.636L80.084,122.896C80.684,127.186 82.564,131.216 85.484,134.506L79.454,174.176L146.674,175.566L138.114,147.156L141.774,119.666Z" style="fill:rgb(254,173,84);fill-rule:nonzero;"/>
    <path d="M86.094,134.726C86.074,134.746 85.704,134.496 85.094,133.966C84.484,133.436 83.654,132.596 82.804,131.406C81.114,129.056 79.604,125.076 79.994,120.586C80.314,118.376 80.944,116.366 81.534,114.556C82.134,112.746 82.744,111.146 83.284,109.806C83.814,108.466 84.274,107.396 84.614,106.666C84.944,105.936 85.154,105.536 85.184,105.556C85.214,105.566 85.074,105.996 84.794,106.746C84.484,107.596 84.094,108.666 83.624,109.936C83.134,111.286 82.564,112.896 81.994,114.706C81.434,116.506 80.824,118.516 80.514,120.656C80.314,122.776 80.594,124.886 81.084,126.676C81.564,128.486 82.344,130.006 83.114,131.206C84.694,133.576 86.174,134.636 86.094,134.726Z" style="fill:rgb(38,50,56);fill-rule:nonzero;"/>
    <path d="M76.014,183.756L72.224,139.506L154.104,139.506L148.674,184.306L76.014,183.756Z" style="fill:rgb(38,50,56);fill-rule:nonzero;"/>
    <path d="M118.374,163.106C118.374,165.986 116.044,168.316 113.164,168.316C110.284,168.316 107.954,165.986 107.954,163.106C107.954,160.226 110.284,157.896 113.164,157.896C116.044,157.886 118.374,160.226 118.374,163.106Z" style="fill:rgb(250,250,250);fill-rule:nonzero;"/>
    <path d="M111.724,192.396L125.634,194.336L125.634,209.446L112.844,209.116L111.724,192.396Z" style="fill:rgb(255,190,157);fill-rule:nonzero;"/>
    <path d="M125.624,194.336L131.884,194.336C133.104,194.336 134.294,194.656 135.344,195.266L138.644,197.166C139.724,197.786 143.214,199.536 144.404,199.916C148.204,201.136 154.594,202.786 155.944,203.816C159.784,206.786 158.624,210.286 156.504,210.656C154.644,210.976 125.624,209.446 125.624,209.446L125.624,194.336Z" style="fill:rgb(254,173,84);fill-rule:nonzero;"/>
    <path d="M135.894,208.206C135.764,208.236 135.284,206.496 135.224,204.276C135.154,202.056 135.524,200.296 135.664,200.316C135.814,200.336 135.674,202.096 135.744,204.266C135.804,206.426 136.044,208.176 135.894,208.206Z" style="fill:rgb(38,50,56);fill-rule:nonzero;"/>
    <path d="M138.864,208.116C138.724,208.116 138.614,206.496 138.634,204.506C138.654,202.516 138.784,200.896 138.924,200.906C139.064,200.906 139.174,202.526 139.154,204.516C139.134,206.506 139.004,208.116 138.864,208.116Z" style="fill:rgb(38,50,56);fill-rule:nonzero;"/>
    <path d="M142.364,208.716C142.224,208.726 141.974,207.076 141.814,205.016C141.654,202.966 141.644,201.286 141.784,201.276C141.924,201.266 142.174,202.916 142.334,204.976C142.494,207.036 142.514,208.706 142.364,208.716Z" style="fill:rgb(38,50,56);fill-rule:nonzero;"/>
    <path d="M133.194,204.176C133.184,204.206 132.714,204.106 131.914,203.776C131.114,203.436 129.984,202.856 128.794,201.846C128.494,201.596 128.194,201.316 127.904,201.006C127.614,200.696 127.294,200.346 127.104,199.876C126.914,199.406 126.914,198.796 127.274,198.326C127.454,198.086 127.754,197.936 128.054,197.896C128.354,197.856 128.634,197.906 128.894,197.996C130.924,198.686 132.664,200.676 132.984,203.126C133.294,205.606 131.964,207.906 130.204,209.066C129.764,209.356 129.304,209.616 128.774,209.706C128.514,209.756 128.234,209.756 127.954,209.666C127.674,209.576 127.444,209.366 127.324,209.106C127.084,208.556 127.294,208.046 127.504,207.666C127.724,207.266 128.034,206.976 128.304,206.696C129.434,205.606 130.574,205.006 131.374,204.686C132.184,204.366 132.664,204.296 132.664,204.316C132.674,204.356 132.224,204.496 131.454,204.866C130.694,205.236 129.614,205.866 128.564,206.956C128.304,207.236 128.034,207.516 127.854,207.856C127.674,208.186 127.554,208.606 127.704,208.906C127.854,209.226 128.254,209.336 128.684,209.236C129.104,209.156 129.524,208.916 129.934,208.646C131.534,207.566 132.744,205.416 132.464,203.166C132.184,200.926 130.564,199.066 128.754,198.426C128.314,198.276 127.864,198.296 127.634,198.586C127.394,198.876 127.364,199.336 127.504,199.696C127.814,200.446 128.504,201.026 129.034,201.536C131.324,203.586 133.254,204.076 133.194,204.176Z" style="fill:rgb(38,50,56);fill-rule:nonzero;"/>
    <path d="M156.504,210.656C156.464,210.606 156.914,210.406 157.264,209.706C157.614,209.016 157.544,207.776 156.854,206.556C156.174,205.326 154.764,204.266 152.994,203.646C151.224,203.006 149.114,202.706 146.994,202.036C142.724,200.766 139.114,198.896 136.664,197.326C135.434,196.546 134.494,195.846 133.854,195.346C133.224,194.836 132.884,194.536 132.904,194.506C132.924,194.476 133.304,194.726 133.974,195.176C134.644,195.626 135.624,196.276 136.864,197.006C139.344,198.476 142.934,200.266 147.144,201.526C149.234,202.176 151.324,202.496 153.164,203.176C154.994,203.846 156.484,205.006 157.184,206.356C157.884,207.676 157.904,209.036 157.454,209.776C157.244,210.146 156.984,210.366 156.814,210.486C156.614,210.626 156.514,210.676 156.504,210.656Z" style="fill:rgb(38,50,56);fill-rule:nonzero;"/>
    <path d="M147.044,83.116C147.054,83.116 147.054,83.186 147.044,83.326C147.034,83.496 147.014,83.696 146.994,83.946C146.944,84.526 146.864,85.336 146.774,86.366C146.554,88.516 146.254,91.586 145.864,95.446L145.844,95.676L145.634,95.566C142.284,93.806 138.194,91.646 133.564,89.216L133.854,89.136C131.864,92.496 129.654,96.226 127.294,100.196L127.154,100.436L126.934,100.266C123.484,97.616 119.754,94.766 115.894,91.796L116.214,91.796C114.684,92.996 113.054,94.276 111.404,95.566C109.174,97.306 106.984,99.026 104.844,100.696L104.604,100.886L104.454,100.616C102.274,96.586 100.184,92.716 98.204,89.066L98.514,89.176C93.704,91.316 89.254,93.306 85.264,95.076L85.024,95.186L84.984,94.926C84.214,90.386 83.544,86.436 82.984,83.146L83.184,83.256C79.954,84.486 77.394,85.466 75.604,86.146C74.744,86.466 74.074,86.716 73.584,86.896C73.374,86.966 73.204,87.026 73.064,87.076C72.944,87.116 72.884,87.136 72.884,87.126C72.884,87.116 72.934,87.086 73.054,87.036C73.194,86.976 73.354,86.906 73.564,86.816C74.044,86.616 74.704,86.346 75.554,85.996C77.334,85.286 79.884,84.256 83.084,82.976L83.254,82.906L83.284,83.086C83.874,86.376 84.584,90.316 85.394,94.846L85.104,94.706C89.074,92.906 93.514,90.906 98.324,88.736L98.524,88.646L98.634,88.846C100.614,92.496 102.724,96.366 104.904,100.386L104.514,100.306C106.654,98.626 108.844,96.916 111.064,95.166C112.714,93.876 114.344,92.596 115.874,91.396L116.034,91.276L116.194,91.396C120.054,94.366 123.774,97.236 127.214,99.886L126.854,99.956C129.224,95.996 131.454,92.276 133.464,88.926L133.574,88.746L133.754,88.846C138.364,91.316 142.434,93.506 145.774,95.296L145.544,95.416C145.994,91.566 146.354,88.496 146.604,86.356C146.734,85.336 146.834,84.526 146.904,83.946C146.944,83.696 146.974,83.496 146.994,83.326C147.014,83.186 147.034,83.116 147.044,83.116Z" style="fill:rgb(245,245,245);fill-rule:nonzero;"/>
    <path d="M156.754,94.256C156.764,94.256 156.744,94.356 156.694,94.546C156.644,94.766 156.574,95.046 156.484,95.396C156.284,96.166 155.994,97.266 155.624,98.666C154.854,101.546 153.734,105.676 152.344,110.836L152.294,111.036L152.104,110.946C148.094,109.016 143.314,106.726 137.994,104.176L138.274,104.106C134.674,109.246 130.664,114.956 126.394,121.056L126.224,121.306L126.014,121.086C122.384,117.406 118.544,113.516 114.594,109.516C113.794,108.696 112.994,107.886 112.194,107.086L112.514,107.126C107.164,110.486 101.994,113.726 97.124,116.776L96.904,116.916L96.774,116.686C93.804,111.436 91.014,106.516 88.474,102.036L88.734,102.136C82.654,104.226 77.304,106.076 72.914,107.586L72.764,107.636L72.714,107.486C71.214,103.136 70.024,99.696 69.204,97.306C68.814,96.146 68.514,95.246 68.294,94.596C68.204,94.306 68.124,94.076 68.074,93.896C68.024,93.736 68.004,93.656 68.014,93.656C68.024,93.656 68.054,93.726 68.114,93.886C68.184,94.066 68.274,94.286 68.374,94.576C68.604,95.216 68.934,96.106 69.364,97.256C70.224,99.636 71.454,103.066 73.014,107.386L72.814,107.286C77.194,105.746 82.524,103.866 88.594,101.726L88.764,101.666L88.854,101.826C91.414,106.306 94.214,111.206 97.204,116.446L96.854,116.356C101.724,113.296 106.884,110.046 112.234,106.686L112.414,106.576L112.564,106.726C113.354,107.526 114.154,108.346 114.964,109.156C118.914,113.166 122.744,117.056 126.374,120.736L125.984,120.766C130.274,114.686 134.304,108.986 137.924,103.856L138.034,103.706L138.204,103.786C143.504,106.366 148.264,108.696 152.264,110.646L152.024,110.756C153.474,105.616 154.644,101.496 155.454,98.626C155.854,97.236 156.174,96.146 156.394,95.376C156.504,95.026 156.584,94.756 156.654,94.536C156.714,94.346 156.744,94.246 156.754,94.256Z" style="fill:rgb(245,245,245);fill-rule:nonzero;"/>
    <path d="M146.674,24.486C142.674,24.936 138.514,23.616 135.494,20.956C139.134,22.796 143.994,20.276 145.274,16.396C146.554,12.526 145.504,5.316 142.324,2.756C139.294,0.326 135.104,-0.604 131.354,0.396C127.604,1.396 123.634,7.106 122.404,10.786L122.474,10.896C121.894,10.666 121.314,10.456 120.734,10.256C116.584,8.866 112.144,8.186 107.794,8.686C103.444,9.186 99.184,10.916 95.964,13.896L121.394,54.766C126.014,54.356 130.104,51.246 132.524,47.286C134.944,43.336 135.874,38.626 136.104,33.996C136.164,32.836 136.154,31.656 136.114,30.486C138.844,30.926 141.564,31.366 144.294,31.796C142.834,29.836 140.974,28.166 138.854,26.936C141.594,28.006 145.004,26.936 146.674,24.486Z" style="fill:rgb(38,50,56);fill-rule:nonzero;"/>
    <path d="M114.524,87.926C121.424,87.776 126.954,82.186 127.034,75.286L127.624,24.436C127.664,22.336 126.094,20.556 124.004,20.336L102.524,14.906C95.644,14.176 91.074,22.646 90.634,29.546C90.154,37.216 89.864,46.596 90.774,52.316C92.604,63.826 101.424,65.286 101.424,65.286C101.424,65.256 101.434,69.736 101.454,75.196C101.494,82.346 107.384,88.076 114.524,87.926Z" style="fill:rgb(255,190,157);fill-rule:nonzero;"/>
    <path d="M95.114,36.996C95.084,37.776 95.724,38.446 96.534,38.486C97.344,38.526 98.024,37.936 98.054,37.156C98.084,36.376 97.444,35.706 96.634,35.666C95.814,35.616 95.134,36.216 95.114,36.996Z" style="fill:rgb(38,50,56);fill-rule:nonzero;"/>
    <path d="M92.685,34.426C92.865,34.616 93.985,33.796 95.575,33.796C97.165,33.776 98.325,34.596 98.495,34.396C98.575,34.306 98.394,33.966 97.885,33.596C97.385,33.226 96.534,32.866 95.545,32.876C94.555,32.886 93.725,33.246 93.245,33.616C92.754,33.996 92.595,34.346 92.685,34.426Z" style="fill:rgb(38,50,56);fill-rule:nonzero;"/>
    <path d="M110.214,36.996C110.184,37.776 110.824,38.446 111.634,38.486C112.444,38.526 113.124,37.936 113.154,37.156C113.184,36.376 112.544,35.706 111.734,35.666C110.924,35.616 110.244,36.216 110.214,36.996Z" style="fill:rgb(38,50,56);fill-rule:nonzero;"/>
    <path d="M108.294,34.726C108.474,34.916 109.594,34.096 111.184,34.096C112.774,34.076 113.934,34.896 114.104,34.696C114.184,34.606 114.004,34.266 113.494,33.896C112.994,33.526 112.144,33.166 111.154,33.176C110.164,33.186 109.334,33.546 108.854,33.916C108.364,34.286 108.204,34.636 108.294,34.726Z" style="fill:rgb(38,50,56);fill-rule:nonzero;"/>
    <path d="M102.524,46.506C102.534,46.416 101.544,46.246 99.944,46.036C99.534,45.996 99.154,45.916 99.084,45.636C98.984,45.346 99.154,44.906 99.354,44.436C99.734,43.456 100.134,42.426 100.554,41.346C102.224,36.946 103.424,33.336 103.244,33.266C103.064,33.196 101.574,36.706 99.904,41.106C99.504,42.186 99.124,43.226 98.754,44.216C98.604,44.676 98.334,45.196 98.544,45.806C98.654,46.106 98.954,46.326 99.214,46.396C99.474,46.476 99.704,46.476 99.904,46.496C101.524,46.586 102.524,46.596 102.524,46.506Z" style="fill:rgb(38,50,56);fill-rule:nonzero;"/>
    <path d="M101.435,65.296C101.435,65.296 109.175,65.796 116.845,61.186C116.845,61.186 113.105,69.086 101.595,68.016L101.435,65.296Z" style="fill:rgb(235,153,110);fill-rule:nonzero;"/>
    <path d="M103.204,50.326C103.774,49.566 104.774,49.156 105.774,49.266C106.464,49.336 107.164,49.676 107.574,50.236C107.994,50.796 108.084,51.596 107.704,52.126C107.274,52.726 106.384,52.866 105.624,52.656C104.864,52.436 104.214,51.946 103.594,51.446C103.424,51.306 103.244,51.166 103.144,50.976C103.034,50.786 103.014,50.546 103.144,50.386" style="fill:rgb(235,153,110);fill-rule:nonzero;"/>
    <path d="M107.204,47.596C106.944,47.586 106.944,49.306 105.464,50.526C103.994,51.756 102.154,51.556 102.144,51.796C102.124,51.906 102.554,52.126 103.324,52.156C104.084,52.186 105.194,51.936 106.094,51.186C106.994,50.436 107.384,49.436 107.444,48.726C107.514,48.016 107.324,47.586 107.204,47.596Z" style="fill:rgb(38,50,56);fill-rule:nonzero;"/>
    <path d="M107.574,31.946C107.734,32.376 109.314,32.176 111.174,32.396C113.044,32.586 114.544,33.126 114.794,32.746C114.904,32.556 114.644,32.156 114.034,31.736C113.434,31.316 112.474,30.926 111.354,30.796C110.234,30.676 109.214,30.856 108.534,31.126C107.854,31.396 107.514,31.736 107.574,31.946Z" style="fill:rgb(38,50,56);fill-rule:nonzero;"/>
    <path d="M92.904,31.496C93.184,31.856 94.274,31.486 95.594,31.466C96.904,31.406 98.024,31.706 98.284,31.336C98.394,31.156 98.224,30.796 97.734,30.446C97.254,30.106 96.454,29.826 95.544,29.856C94.644,29.886 93.854,30.216 93.404,30.586C92.934,30.956 92.784,31.326 92.904,31.496Z" style="fill:rgb(38,50,56);fill-rule:nonzero;"/>
    <path d="M126.354,38.736C127.224,38.136 128.444,38.356 129.364,38.886C131.474,40.106 132.534,42.906 131.744,45.216C130.964,47.526 128.424,49.106 126.004,48.786" style="fill:rgb(255,190,157);fill-rule:nonzero;"/>
    <path d="M127.164,45.366C127.194,45.286 127.614,45.466 128.164,45.206C128.714,44.986 129.204,44.176 129.154,43.236C129.124,42.286 128.504,41.596 127.924,41.386C127.344,41.146 126.924,41.266 126.904,41.176C126.864,41.116 127.294,40.816 128.054,40.986C128.424,41.076 128.844,41.286 129.174,41.686C129.504,42.076 129.714,42.626 129.744,43.196C129.824,44.356 129.094,45.406 128.304,45.586C127.524,45.806 127.104,45.406 127.164,45.366Z" style="fill:rgb(235,153,110);fill-rule:nonzero;"/>
    <path d="M130.304,47.686C130.314,47.666 130.504,47.796 130.834,48.056C131.214,48.366 131.684,48.756 132.244,49.206C133.514,50.286 135.204,51.726 137.214,53.426L137.384,53.566L137.244,53.736C135.394,55.956 133.334,58.736 131.024,61.636C130.504,62.296 129.974,62.936 129.464,63.536L129.034,64.036L129.004,63.376C128.794,58.686 128.634,54.546 128.544,51.566C128.514,50.146 128.484,48.976 128.464,48.056C128.454,47.236 128.464,46.776 128.494,46.776C128.524,46.776 128.584,47.226 128.644,48.046C128.704,48.956 128.784,50.136 128.884,51.546C129.064,54.516 129.294,58.666 129.514,63.346L129.064,63.186C129.554,62.586 130.084,61.946 130.604,61.296C132.914,58.406 134.994,55.636 136.894,53.436L136.924,53.746C134.974,51.986 133.324,50.506 132.074,49.386C131.544,48.896 131.104,48.486 130.744,48.146C130.444,47.876 130.294,47.706 130.304,47.686Z" style="fill:rgb(69,90,100);fill-rule:nonzero;"/>
    <path d="M107.034,9.876C104.214,9.996 101.384,10.116 98.644,10.796C95.904,11.476 93.254,12.766 91.394,14.876C89.534,16.996 88.584,20.026 89.394,22.726C90.194,25.426 92.974,27.546 95.764,27.166C97.884,26.886 99.914,25.316 101.964,25.936C103.894,26.526 104.964,28.886 106.954,29.256C108.914,29.616 110.664,27.856 112.654,27.686C114.844,27.496 116.754,29.296 117.724,31.266C118.704,33.236 119.074,35.466 120.054,37.446C120.684,38.706 121.654,39.916 123.014,40.266C124.264,40.586 125.624,40.106 126.604,39.256C127.574,38.406 128.214,37.236 128.704,36.036C130.774,30.946 130.324,24.906 127.524,20.186C124.724,15.466 119.634,12.166 114.184,11.546" style="fill:rgb(38,50,56);fill-rule:nonzero;"/>
    <path d="M135.074,22.096C134.984,22.126 134.714,21.166 134.014,19.756C133.314,18.346 132.094,16.516 130.314,14.906C128.524,13.296 126.584,12.266 125.114,11.716C123.644,11.156 122.664,10.986 122.684,10.896C122.694,10.856 122.934,10.876 123.384,10.936C123.834,10.986 124.474,11.126 125.244,11.376C126.784,11.856 128.824,12.866 130.674,14.526C132.514,16.196 133.734,18.126 134.364,19.606C134.684,20.346 134.894,20.966 134.984,21.406C135.064,21.836 135.104,22.086 135.074,22.096Z" style="fill:rgb(7,155,171);fill-rule:nonzero;"/>
    <path d="M143.874,5.236C143.824,5.326 142.864,4.696 141.104,4.376C139.364,4.046 136.794,4.176 134.354,5.396C131.914,6.616 130.194,8.496 129.134,9.936C128.064,11.386 127.564,12.396 127.494,12.356C127.464,12.346 127.554,12.076 127.764,11.606C127.974,11.146 128.324,10.486 128.834,9.716C129.834,8.196 131.564,6.206 134.114,4.926C136.674,3.646 139.384,3.576 141.164,4.016C142.064,4.226 142.764,4.526 143.204,4.776C143.674,5.036 143.894,5.216 143.874,5.236Z" style="fill:rgb(69,90,100);fill-rule:nonzero;"/>
    <path d="M132.814,18.756C132.874,18.756 132.964,19.656 132.834,21.126C132.704,22.586 132.284,24.596 131.394,26.656C130.504,28.716 129.324,30.406 128.354,31.506C127.384,32.606 126.664,33.166 126.624,33.116C126.484,33.006 129.194,30.516 130.914,26.456C132.684,22.406 132.634,18.736 132.814,18.756Z" style="fill:rgb(69,90,100);fill-rule:nonzero;"/>
    <path d="M133.144,19.006C133.174,18.996 133.274,19.226 133.424,19.666C133.584,20.096 133.744,20.746 133.874,21.566C134.144,23.186 134.184,25.516 133.564,27.976C132.934,30.436 131.804,32.466 130.794,33.766C130.294,34.416 129.844,34.916 129.494,35.226C129.154,35.536 128.954,35.696 128.934,35.676C128.864,35.606 129.584,34.896 130.494,33.556C131.404,32.226 132.454,30.236 133.064,27.856C133.664,25.466 133.694,23.216 133.514,21.616C133.344,20.006 133.054,19.026 133.144,19.006Z" style="fill:rgb(69,90,100);fill-rule:nonzero;"/>
</svg>
