<?xml version="1.0" encoding="UTF-8" standalone="no"?>
<!DOCTYPE svg PUBLIC "-//W3C//DTD SVG 1.1//EN" "http://www.w3.org/Graphics/SVG/1.1/DTD/svg11.dtd">
<svg width="100%" height="100%" viewBox="0 0 314 241" version="1.1" xmlns="http://www.w3.org/2000/svg" xmlns:xlink="http://www.w3.org/1999/xlink" xml:space="preserve" xmlns:serif="http://www.serif.com/" style="fill-rule:evenodd;clip-rule:evenodd;stroke-linejoin:round;stroke-miterlimit:2;">
    <circle cx="193.5" cy="120.5" r="120.5" style="fill:rgb(1,84,104);fill-opacity:0.13;"/>
    <g>
        <rect x="0.156" y="54.919" width="146.734" height="114.872" style="fill:rgb(250,250,250);fill-rule:nonzero;"/>
        <path d="M146.89,169.791C146.89,168.713 146.836,124.221 146.758,54.919L146.89,55.051C105.076,55.057 54.56,55.063 0.168,55.075L0.156,55.075L0.313,54.919C0.307,96.342 0.301,135.509 0.295,169.791L0.156,169.652C87.264,169.73 145.657,169.785 146.89,169.791C145.657,169.791 87.264,169.851 0.156,169.929L0.018,169.929L0.018,169.791C0.012,135.509 0.006,96.342 0,54.919L0,54.762L0.168,54.762C54.56,54.774 105.076,54.78 146.89,54.786L147.023,54.786L147.023,54.919C146.945,124.215 146.896,168.707 146.89,169.791Z" style="fill:rgb(38,50,56);fill-rule:nonzero;"/>
        <path d="M146.89,66.141C146.89,66.225 114.12,66.298 73.707,66.298C33.282,66.298 0.518,66.225 0.518,66.141C0.518,66.057 33.276,65.985 73.707,65.985C114.126,65.985 146.89,66.051 146.89,66.141Z" style="fill:rgb(38,50,56);fill-rule:nonzero;"/>
        <path d="M5.35,61.225C5.822,61.225 6.204,60.842 6.204,60.37C6.204,59.899 5.822,59.516 5.35,59.516C4.878,59.516 4.495,59.899 4.495,60.37C4.495,60.842 4.878,61.225 5.35,61.225Z" style="fill:rgb(38,50,56);fill-rule:nonzero;"/>
        <path d="M8.527,61.225C8.999,61.225 9.381,60.842 9.381,60.37C9.381,59.899 8.999,59.516 8.527,59.516C8.055,59.516 7.672,59.899 7.672,60.37C7.672,60.842 8.055,61.225 8.527,61.225Z" style="fill:rgb(38,50,56);fill-rule:nonzero;"/>
        <path d="M12.51,60.37C12.51,60.84 12.131,61.225 11.656,61.225C11.186,61.225 10.801,60.846 10.801,60.37C10.801,59.895 11.18,59.516 11.656,59.516C12.125,59.522 12.51,59.901 12.51,60.37Z" style="fill:rgb(38,50,56);fill-rule:nonzero;"/>
        <path d="M243.355,132.092C243.355,132.092 250.66,127.651 252.303,128.957C254.68,130.84 255.468,134.023 255.468,134.023C255.468,134.023 259.325,119.311 263.008,119.87C265.12,120.189 264.085,121.838 263.134,123.902C262.256,125.821 260.757,132.856 260.757,132.856C260.757,132.856 267.738,124.576 269.79,124.726C271.378,124.841 271.607,126.237 269.32,128.475C267.04,130.714 263.249,137.766 263.249,137.766C263.249,137.766 268.141,133.211 270.157,133.181C271.769,133.163 272.81,134.282 270.722,136.087C268.64,137.898 265.481,139.252 263.802,142.532C261.726,146.569 257.303,156.625 257.303,156.625L241.821,151.143C241.821,151.143 239.299,140.871 239.203,138.38C239.203,138.38 239.414,133.109 239.384,132.17C239.354,131.231 241.845,130.99 242.597,132.796C243.355,134.595 243.012,136.49 243.319,137.688C243.626,138.885 244.173,139.998 245.046,140.534C245.925,141.07 248.151,141.106 248.723,140.444C249.294,139.782 249.98,137.85 250.131,136.665C250.281,135.479 250.089,133.602 250.089,133.602C250.089,133.602 243.668,136.214 243.355,132.092Z" style="fill:rgb(255,190,157);fill-rule:nonzero;"/>
        <path d="M69.429,180.002L58.67,175.97C58.67,175.97 47.718,169.556 45.69,171.836C45.69,171.836 43.524,170.801 42.561,173.112C42.001,174.448 43.843,176.392 43.843,176.392C43.843,176.392 43.271,176.969 44.18,178.937C45.088,180.905 55.48,187.103 55.48,187.103C55.48,187.103 68.995,194.474 74.459,198L83.888,185.177L82.577,184.69C82.577,184.69 81.8,178.299 79.183,176.596C76.337,174.743 72.901,169.724 72.148,167.757C71.39,165.789 67.762,166.698 68.37,170.777C68.971,174.857 72.148,175.916 71.848,178.636C71.547,181.368 69.429,180.002 69.429,180.002Z" style="fill:rgb(255,190,157);fill-rule:nonzero;"/>
        <path d="M52.941,181.494C52.899,181.573 50.805,180.477 48.259,179.051C45.714,177.625 43.692,176.41 43.734,176.337C43.776,176.259 45.871,177.354 48.416,178.781C50.955,180.207 52.983,181.422 52.941,181.494Z" style="fill:rgb(235,153,110);fill-rule:nonzero;"/>
        <path d="M58.188,178.474C58.17,178.51 57.436,178.215 56.256,177.703C55.083,177.192 53.464,176.458 51.719,175.567C49.974,174.677 48.44,173.78 47.363,173.076C46.827,172.721 46.4,172.426 46.117,172.203C45.828,171.987 45.678,171.854 45.69,171.836C45.72,171.794 46.382,172.234 47.477,172.883C48.578,173.533 50.125,174.394 51.858,175.284C53.597,176.175 55.191,176.939 56.341,177.499C57.502,178.064 58.206,178.432 58.188,178.474Z" style="fill:rgb(235,153,110);fill-rule:nonzero;"/>
        <path d="M60.451,184.395C60.439,184.413 60.102,184.226 59.5,183.877C58.856,183.492 58.002,182.981 56.967,182.367L56.937,182.349L56.918,182.313C56.443,181.284 55.853,180.08 55.095,178.817C54.71,178.197 54.289,177.529 53.729,177.005C53.17,176.488 52.279,176.398 51.611,176.849C51.467,176.927 51.292,177.102 51.274,177.156C51.292,177.18 51.286,177.186 51.298,177.228L51.34,177.36C51.364,177.451 51.401,177.541 51.437,177.631C51.569,177.992 51.707,178.341 51.846,178.69C52.129,179.382 52.405,180.056 52.67,180.7C53.206,181.976 53.693,183.149 54.126,184.172L54.108,184.142C54.993,185.177 55.721,186.031 56.269,186.675C56.497,186.952 56.69,187.187 56.846,187.379C56.973,187.542 57.039,187.632 57.033,187.638C57.027,187.644 56.943,187.572 56.798,187.421C56.63,187.241 56.419,187.024 56.172,186.76C55.607,186.134 54.848,185.303 53.928,184.292L53.916,184.28L53.91,184.262C53.464,183.257 52.953,182.096 52.405,180.808C52.135,180.164 51.858,179.491 51.569,178.799C51.431,178.45 51.286,178.095 51.154,177.727C51.118,177.637 51.088,177.547 51.058,177.451L51.009,177.306C50.991,177.252 50.979,177.162 50.979,177.09C51.033,176.897 51.124,176.861 51.196,176.771C51.28,176.698 51.364,176.632 51.455,176.578C51.84,176.331 52.297,176.205 52.748,176.247C53.206,176.277 53.615,176.494 53.94,176.771C54.56,177.354 54.969,178.022 55.36,178.66C56.118,179.948 56.69,181.169 57.147,182.216L57.105,182.162C58.116,182.818 58.952,183.354 59.584,183.763C60.144,184.154 60.463,184.377 60.451,184.395Z" style="fill:rgb(235,153,110);fill-rule:nonzero;"/>
        <path d="M71.234,184.503C71.222,184.545 70.716,184.407 69.91,184.178C69.104,183.961 67.984,183.649 66.733,183.618C65.481,183.588 64.362,183.943 63.664,184.371C62.96,184.792 62.647,185.225 62.605,185.183C62.581,185.171 62.834,184.678 63.544,184.184C64.242,183.685 65.421,183.276 66.733,183.306C68.045,183.342 69.182,183.697 69.97,183.967C70.776,184.25 71.246,184.461 71.234,184.503Z" style="fill:rgb(235,153,110);fill-rule:nonzero;"/>
        <path d="M70.428,181.657C70.5,181.711 70.229,182.174 69.97,182.776C69.706,183.372 69.543,183.883 69.459,183.865C69.375,183.853 69.405,183.281 69.687,182.65C69.964,182.012 70.361,181.609 70.428,181.657Z" style="fill:rgb(235,153,110);fill-rule:nonzero;"/>
        <path d="M132.425,130.521C133.165,125.454 139.068,118.179 144.297,118.173C141.3,113.835 141.258,107.727 144.183,103.341C146.198,100.326 149.448,98.105 150.826,94.76C152.384,90.975 151.187,86.703 151.337,82.623C151.554,76.653 154.659,71.202 157.686,66.015C160.454,61.267 163.835,56.062 169.281,54.895C172.729,54.154 176.303,55.244 179.541,56.622C195.035,63.223 207.082,77.129 211.216,93.183C212.203,97.028 212.871,101.186 215.549,104.153C218.383,107.3 223.353,109.003 224.208,113.119C224.816,116.067 222.926,119.034 223.209,122.037C223.45,124.546 228.149,131.869 229.238,134.156C231.104,138.097 230.43,142.351 228.528,146.281C226.627,150.204 221.783,154.031 217.486,155.096L169.468,139.096C164.949,141.665 160.448,151.618 155.261,152.226C150.074,152.84 143.743,155.096 138.755,149.632C133.526,143.928 131.678,135.594 132.425,130.521Z" style="fill:rgb(38,50,56);fill-rule:nonzero;"/>
        <path d="M212.047,82.761C211.511,86.781 212.612,93.424 214.809,96.854C216.283,99.159 218.744,100.657 221.169,101.975C223.594,103.292 226.139,104.556 227.975,106.59C229.816,108.624 230.803,111.681 229.569,114.118C233.896,115.73 235.833,121.242 234.251,125.503C232.662,129.763 228.312,132.633 223.769,133.482L203.965,127.524L199.615,102.251L211.048,82.755" style="fill:rgb(38,50,56);fill-rule:nonzero;"/>
        <path d="M214.478,108.528C214.484,108.522 214.616,108.576 214.863,108.696C215.11,108.828 215.495,108.973 215.946,109.256C216.867,109.785 218.13,110.706 219.418,112.15C220.074,112.86 220.676,113.739 221.265,114.719C221.807,115.724 222.361,116.832 222.71,118.089C223.48,120.562 223.648,123.571 222.764,126.526L222.691,126.345C223.829,126.983 224.93,127.807 225.917,128.794C228.444,131.303 229.888,134.565 230.237,137.61C230.574,140.684 229.84,143.47 228.817,145.534C227.788,147.622 226.513,149.037 225.562,149.909C225.08,150.336 224.689,150.655 224.406,150.848C224.13,151.046 223.979,151.143 223.973,151.137C223.967,151.131 224.1,151.01 224.364,150.8C224.635,150.595 225.008,150.264 225.472,149.825C226.386,148.934 227.62,147.508 228.607,145.438C229.587,143.386 230.285,140.648 229.936,137.64C229.581,134.655 228.161,131.466 225.682,129.011C224.719,128.048 223.642,127.236 222.529,126.61L222.421,126.55L222.457,126.429C223.329,123.547 223.179,120.604 222.439,118.167C222.102,116.934 221.572,115.833 221.049,114.84C220.477,113.871 219.893,112.998 219.256,112.288C218.01,110.844 216.776,109.912 215.88,109.352C215.447,109.057 215.067,108.895 214.833,108.744C214.598,108.612 214.472,108.534 214.478,108.528Z" style="fill:rgb(69,90,100);fill-rule:nonzero;"/>
        <path d="M155.886,134.703C155.886,134.703 147.035,137.393 143.936,141.906C141.739,145.095 119.271,193.758 119.271,193.758L85.164,183.504L72.967,199.613L110.918,220.649C117.953,224.549 126.509,224.513 133.514,220.547C137.395,218.351 140.56,215.077 142.624,211.124L152.276,192.639L155.886,134.703Z" style="fill:rgb(254,173,84);fill-rule:nonzero;"/>
        <path d="M146.83,240.681L152.156,217.725L148.118,201.057C145.524,192.476 143.292,178.492 146.12,167.233L155.555,134.854L165.929,130.082L189.662,126.002C190.577,126.309 214.478,133.06 214.478,133.06C217.787,133.831 219.117,134.354 219.117,134.354L221.861,152.081L213.617,181.296L210.031,210.408L217.914,240.687L146.83,240.687L146.83,240.681Z" style="fill:rgb(254,173,84);fill-rule:nonzero;"/>
        <path d="M160.55,132.555L167.434,129.474L198.453,129.907L205.789,134.168C205.789,134.168 180.161,162.449 173.728,163.388C157.553,165.741 160.55,132.555 160.55,132.555Z" style="fill:rgb(255,190,157);fill-rule:nonzero;"/>
        <path d="M218.443,134.107C218.443,134.107 223.088,135.154 227.072,143.651C231.055,152.148 237.494,175.796 237.494,175.796L240.244,150.733L262.671,153.201L258.332,213.092C258.332,213.092 250.395,224.603 237.121,223.538C223.847,222.473 206.992,180.514 206.992,180.514L218.443,134.107Z" style="fill:rgb(254,173,84);fill-rule:nonzero;"/>
        <path d="M233.992,206.394C233.986,206.394 233.986,206.346 233.986,206.25C233.992,206.136 233.998,205.997 234.004,205.823C234.028,205.426 234.058,204.878 234.1,204.192C234.185,202.778 234.353,200.732 234.588,198.205C235.057,193.156 235.912,186.2 236.959,178.54C238.006,170.874 238.896,163.93 239.42,158.893C239.685,156.372 239.883,154.332 240.009,152.924C240.076,152.238 240.13,151.696 240.166,151.299C240.184,151.131 240.202,150.992 240.214,150.878C240.226,150.782 240.238,150.733 240.244,150.733C240.25,150.733 240.25,150.782 240.25,150.878C240.244,150.992 240.238,151.131 240.232,151.305C240.208,151.702 240.178,152.25 240.136,152.936C240.052,154.35 239.883,156.396 239.648,158.923C239.179,163.972 238.325,170.928 237.278,178.594C236.231,186.254 235.34,193.198 234.816,198.241C234.552,200.762 234.353,202.802 234.227,204.216C234.161,204.902 234.106,205.444 234.07,205.841C234.052,206.009 234.034,206.148 234.022,206.262C234.01,206.346 233.998,206.394 233.992,206.394Z" style="fill:rgb(38,50,56);fill-rule:nonzero;"/>
        <path d="M119.662,206.677C119.644,206.683 119.553,206.527 119.415,206.232C119.27,205.937 119.09,205.498 118.891,204.938C118.494,203.831 118.085,202.242 117.91,200.449C117.742,198.656 117.838,197.019 118.013,195.858C118.097,195.274 118.193,194.811 118.278,194.492C118.362,194.173 118.416,193.998 118.434,194.004C118.482,194.016 118.35,194.727 118.235,195.888C118.121,197.043 118.055,198.656 118.223,200.425C118.398,202.188 118.765,203.759 119.102,204.872C119.439,205.985 119.71,206.659 119.662,206.677Z" style="fill:rgb(38,50,56);fill-rule:nonzero;"/>
        <path d="M123.435,207.237C123.417,207.249 123.278,207.092 123.038,206.791C122.797,206.491 122.472,206.039 122.099,205.462C121.353,204.312 120.456,202.621 119.764,200.642C119.078,198.656 118.729,196.772 118.603,195.407C118.537,194.721 118.506,194.167 118.512,193.782C118.512,193.397 118.525,193.186 118.543,193.186C118.597,193.186 118.633,194.029 118.819,195.376C119.006,196.724 119.379,198.572 120.059,200.533C120.745,202.489 121.599,204.174 122.291,205.341C122.977,206.515 123.477,207.207 123.435,207.237Z" style="fill:rgb(38,50,56);fill-rule:nonzero;"/>
        <path d="M149.983,153.724C149.995,153.73 149.953,153.893 149.869,154.212C149.773,154.555 149.646,155.012 149.484,155.589C149.135,156.811 148.653,158.532 148.052,160.638C146.884,164.904 145.266,170.832 144.489,177.541C144.104,180.893 144.026,184.118 144.357,187.018C144.664,189.925 145.308,192.488 145.94,194.606C146.571,196.724 147.173,198.415 147.588,199.583C147.787,200.148 147.943,200.594 148.064,200.931C148.172,201.237 148.22,201.406 148.208,201.406C148.196,201.412 148.13,201.255 148.004,200.949C147.871,200.618 147.697,200.178 147.474,199.625C147.029,198.469 146.397,196.791 145.729,194.666C145.067,192.548 144.399,189.973 144.074,187.048C143.719,184.124 143.791,180.869 144.183,177.505C144.965,170.765 146.626,164.832 147.847,160.578C148.467,158.448 149.002,156.739 149.376,155.553C149.562,154.988 149.706,154.53 149.815,154.193C149.911,153.881 149.971,153.724 149.983,153.724Z" style="fill:rgb(38,50,56);fill-rule:nonzero;"/>
        <path d="M212.697,193.186C212.69,193.186 212.666,193.138 212.612,193.042C212.558,192.927 212.486,192.777 212.402,192.596C212.215,192.181 211.95,191.604 211.619,190.875C211.288,190.123 210.861,189.209 210.41,188.138C209.977,187.048 209.483,185.815 208.936,184.455C208.406,183.083 207.895,181.554 207.311,179.93C207.058,179.105 206.793,178.251 206.517,177.372C206.384,176.933 206.246,176.488 206.107,176.031C205.981,175.573 205.867,175.11 205.74,174.641C204.729,170.886 203.875,166.674 203.622,162.179C203.346,157.696 203.773,153.357 204.916,149.626C205.987,145.865 207.871,142.778 209.886,140.624C211.896,138.446 213.984,137.188 215.483,136.52C216.241,136.189 216.842,135.973 217.258,135.865C217.45,135.81 217.607,135.768 217.733,135.732C217.841,135.702 217.896,135.69 217.896,135.696C217.896,135.702 217.841,135.726 217.739,135.762C217.619,135.804 217.462,135.858 217.276,135.925C216.867,136.051 216.271,136.292 215.531,136.635C214.062,137.333 212.011,138.608 210.043,140.781C208.075,142.935 206.234,145.986 205.187,149.717C204.068,153.423 203.652,157.714 203.929,162.172C204.182,166.637 205.024,170.838 206.017,174.58C206.138,175.05 206.258,175.513 206.378,175.97C206.517,176.422 206.649,176.867 206.781,177.306C207.046,178.185 207.305,179.039 207.558,179.864C208.129,181.488 208.623,183.023 209.14,184.395C209.67,185.761 210.145,187 210.566,188.089C211,189.172 211.409,190.087 211.722,190.845C212.029,191.585 212.275,192.169 212.45,192.59C212.522,192.777 212.582,192.927 212.63,193.048C212.684,193.132 212.703,193.186 212.697,193.186Z" style="fill:rgb(38,50,56);fill-rule:nonzero;"/>
        <g opacity="0.3">
            <g opacity="0.3">
                <path d="M204.152,166.06C201.221,179.93 201.179,194.197 206.228,207.441C206.523,208.212 207.678,210.943 208.502,210.98C209.543,211.034 210.037,209.734 210.217,208.705C210.59,206.593 210.813,203.121 211.186,201.009C211.649,198.367 212.281,192.247 212.281,192.247C212.281,192.247 209.856,186.699 208.791,183.721C206.811,178.197 205.139,172.926 204.218,166.493" style="fill-opacity:0.3;fill-rule:nonzero;"/>
            </g>
        </g>
        <path d="M201.757,219.789C201.763,219.795 201.685,219.921 201.522,220.15C201.342,220.403 201.101,220.74 200.8,221.155C200.638,221.378 200.463,221.618 200.27,221.877C200.066,222.136 199.825,222.395 199.578,222.683C199.073,223.255 198.531,223.941 197.821,224.591C197.478,224.928 197.117,225.283 196.744,225.644C196.365,226.005 195.932,226.342 195.505,226.709C194.662,227.467 193.663,228.147 192.628,228.893C190.51,230.295 188.049,231.649 185.317,232.732C182.573,233.779 179.841,234.453 177.332,234.851C176.069,235.001 174.871,235.175 173.74,235.187C173.174,235.206 172.633,235.254 172.103,235.242C171.58,235.224 171.074,235.212 170.593,235.193C169.63,235.193 168.769,235.055 168.011,234.977C167.632,234.929 167.277,234.899 166.958,234.851C166.639,234.784 166.35,234.73 166.08,234.676C165.58,234.574 165.177,234.489 164.87,234.423C164.593,234.363 164.449,234.327 164.455,234.315C164.455,234.303 164.605,234.321 164.882,234.363C165.189,234.411 165.598,234.477 166.098,234.556C166.363,234.598 166.657,234.652 166.976,234.7C167.301,234.742 167.65,234.766 168.029,234.802C168.788,234.863 169.642,234.989 170.599,234.971C171.074,234.977 171.58,234.989 172.097,235.001C172.621,235.007 173.162,234.953 173.722,234.929C174.847,234.905 176.032,234.718 177.284,234.562C179.775,234.146 182.477,233.473 185.197,232.432C187.905,231.354 190.348,230.025 192.46,228.641C193.489,227.906 194.488,227.239 195.33,226.498C195.757,226.137 196.197,225.812 196.576,225.451C196.955,225.09 197.316,224.747 197.659,224.416C198.375,223.779 198.923,223.105 199.434,222.551C199.687,222.268 199.934,222.015 200.138,221.763C200.337,221.51 200.517,221.275 200.686,221.059C201.005,220.655 201.257,220.337 201.45,220.09C201.648,219.897 201.745,219.783 201.757,219.789Z" style="fill:rgb(38,50,56);fill-rule:nonzero;"/>
        <path d="M196.859,210.612C196.883,210.618 196.853,210.847 196.781,211.268C196.714,211.69 196.576,212.291 196.359,213.025C195.938,214.488 195.138,216.461 193.868,218.423C192.592,220.385 191.118,221.919 189.957,222.906C189.373,223.399 188.886,223.773 188.525,224.007C188.17,224.242 187.971,224.368 187.959,224.35C187.929,224.302 188.693,223.76 189.806,222.744C190.92,221.727 192.346,220.186 193.603,218.261C194.855,216.329 195.673,214.397 196.149,212.965C196.624,211.527 196.805,210.6 196.859,210.612Z" style="fill:rgb(38,50,56);fill-rule:nonzero;"/>
        <path d="M185.937,51.074C194.331,51.134 202.545,55.869 206.799,63.114C211.048,70.359 211.18,79.837 207.136,87.196C205.758,89.705 203.773,92.082 201.047,92.955C201.973,78.567 196.239,63.879 185.805,53.926" style="fill:rgb(1,84,104);fill-rule:nonzero;"/>
        <path d="M195.763,53.246C194.518,50.652 195.854,47.409 198.074,45.586C200.294,43.762 203.195,43.022 205.993,42.354C208.791,41.686 211.691,40.994 213.96,39.231C213.635,43.738 212.51,48.378 209.597,51.826C206.679,55.28 201.624,57.199 197.46,55.448" style="fill:rgb(1,84,104);fill-rule:nonzero;"/>
        <path d="M198.652,56.218C196.738,57.025 194.452,56.519 192.743,55.346C191.028,54.173 189.8,52.415 188.795,50.598C187.562,48.366 186.587,45.953 186.262,43.419C185.937,40.886 186.28,38.226 187.532,36C190.823,39.508 194.452,42.457 196.335,46.885C197.442,49.485 197.31,53.661 196.118,56.224" style="fill:rgb(1,84,104);fill-rule:nonzero;"/>
        <path d="M207.985,70.805C208.009,70.799 208.063,71.099 208.147,71.641C208.195,71.912 208.243,72.243 208.274,72.634C208.31,73.025 208.364,73.464 208.37,73.958C208.424,74.939 208.406,76.112 208.31,77.412C208.195,78.705 207.985,80.126 207.648,81.588C207.293,83.05 206.841,84.41 206.36,85.613C205.861,86.817 205.349,87.87 204.862,88.724C204.633,89.158 204.386,89.531 204.182,89.862C203.977,90.193 203.785,90.469 203.622,90.692C203.303,91.137 203.117,91.378 203.099,91.366C203.081,91.354 203.231,91.089 203.52,90.626C203.664,90.397 203.845,90.114 204.031,89.771C204.218,89.434 204.453,89.055 204.669,88.622C205.133,87.762 205.62,86.709 206.095,85.511C206.559,84.308 206.998,82.96 207.347,81.516C207.684,80.071 207.9,78.669 208.027,77.388C208.141,76.106 208.177,74.945 208.153,73.97C208.159,73.482 208.117,73.043 208.105,72.652C208.093,72.267 208.063,71.93 208.033,71.659C207.979,71.111 207.961,70.811 207.985,70.805Z" style="fill:rgb(38,50,56);fill-rule:nonzero;"/>
        <path d="M206.107,54.672C206.119,54.69 205.885,54.877 205.439,55.202C204.958,55.466 204.242,55.851 203.267,56.044C201.329,56.483 198.537,56.393 195.583,55.605L195.493,55.581L195.475,55.49C195.432,55.31 195.39,55.117 195.348,54.925C195.029,53.36 194.957,51.826 195.15,50.448C195.324,49.07 195.799,47.872 196.413,47.018C197.003,46.133 197.725,45.646 198.2,45.315C198.718,45.038 199.001,44.894 199.013,44.912C199.025,44.93 198.754,45.11 198.273,45.417C197.827,45.772 197.147,46.278 196.606,47.144C196.04,47.987 195.601,49.148 195.444,50.49C195.27,51.826 195.354,53.336 195.661,54.865C195.703,55.057 195.745,55.244 195.787,55.424L195.679,55.31C198.574,56.086 201.335,56.212 203.231,55.839C204.194,55.677 204.898,55.334 205.391,55.105C205.83,54.81 206.089,54.654 206.107,54.672Z" style="fill:rgb(38,50,56);fill-rule:nonzero;"/>
        <path d="M208.568,46.873C208.575,46.934 207.69,47.054 206.306,47.463C205.614,47.662 204.814,47.957 203.941,48.342C203.081,48.739 202.154,49.226 201.233,49.822C200.319,50.43 199.506,51.08 198.796,51.711C198.098,52.355 197.509,52.975 197.051,53.529C196.125,54.63 195.655,55.394 195.607,55.364C195.589,55.352 195.691,55.153 195.902,54.804C196.1,54.449 196.437,53.962 196.883,53.39C197.328,52.813 197.912,52.169 198.604,51.501C199.308,50.845 200.132,50.171 201.065,49.557C201.998,48.949 202.942,48.462 203.827,48.077C204.717,47.704 205.542,47.427 206.246,47.253C206.95,47.072 207.527,46.964 207.937,46.922C208.346,46.867 208.568,46.849 208.568,46.873Z" style="fill:rgb(38,50,56);fill-rule:nonzero;"/>
        <path d="M198.526,56.146C198.538,56.146 198.526,56.212 198.501,56.327C198.483,56.447 198.429,56.609 198.339,56.826C198.164,57.247 197.797,57.819 197.148,58.331C196.504,58.824 195.553,59.257 194.446,59.203C193.333,59.167 192.183,58.493 191.467,57.452C190.751,56.405 190.54,55.093 190.908,54.04C191.257,52.987 192.003,52.253 192.701,51.832C193.411,51.411 194.079,51.278 194.536,51.266C194.765,51.26 194.939,51.272 195.06,51.296C195.18,51.314 195.24,51.326 195.234,51.338C195.228,51.368 194.981,51.338 194.542,51.386C194.109,51.435 193.477,51.597 192.815,52.018C192.171,52.44 191.485,53.15 191.184,54.124C190.865,55.093 191.064,56.297 191.726,57.271C192.394,58.24 193.447,58.866 194.464,58.914C195.487,58.98 196.389,58.601 197.015,58.15C197.647,57.687 198.026,57.157 198.231,56.772C198.435,56.381 198.495,56.134 198.526,56.146Z" style="fill:rgb(38,50,56);fill-rule:nonzero;"/>
        <path d="M191.232,56.297C191.202,56.327 191.022,55.972 191.31,55.502C191.443,55.28 191.696,55.057 192.027,54.943C192.351,54.822 192.731,54.804 193.104,54.828C194.608,54.937 195.697,55.52 195.655,55.587C195.619,55.671 194.512,55.238 193.08,55.135C192.37,55.063 191.756,55.25 191.491,55.623C191.208,55.972 191.28,56.291 191.232,56.297Z" style="fill:rgb(38,50,56);fill-rule:nonzero;"/>
        <path d="M187.532,36C187.592,36.024 186.87,36.879 186.611,38.575C186.473,39.412 186.455,40.429 186.467,41.56C186.479,42.691 186.533,43.937 186.786,45.201C187.357,47.728 188.392,49.9 189.355,51.29C189.842,51.988 190.276,52.536 190.583,52.903C190.889,53.27 191.076,53.456 191.064,53.475C191.028,53.517 190.209,52.813 189.181,51.423C188.146,50.033 187.068,47.854 186.485,45.261C186.22,43.961 186.178,42.691 186.184,41.554C186.184,40.417 186.226,39.382 186.394,38.527C186.557,37.673 186.834,37.011 187.08,36.596C187.333,36.187 187.52,35.988 187.532,36Z" style="fill:rgb(38,50,56);fill-rule:nonzero;"/>
        <path d="M190.649,43.137C190.679,43.112 191.022,43.492 191.497,44.166C191.973,44.84 192.568,45.808 193.098,46.952C193.621,48.095 193.964,49.19 194.157,49.99C194.349,50.791 194.404,51.296 194.361,51.308C194.265,51.332 193.856,49.341 192.815,47.084C191.78,44.828 190.564,43.197 190.649,43.137Z" style="fill:rgb(38,50,56);fill-rule:nonzero;"/>
        <path d="M189.632,46.885C189.698,46.831 190.709,47.854 192.039,49.046C193.362,50.243 194.421,51.236 194.361,51.302C194.307,51.362 193.158,50.478 191.828,49.274C190.486,48.083 189.559,46.946 189.632,46.885Z" style="fill:rgb(38,50,56);fill-rule:nonzero;"/>
        <path d="M205.379,61.008C205.379,61.014 205.349,61.038 205.295,61.093C205.211,61.165 205.12,61.237 205.03,61.315C204.802,61.514 204.452,61.772 204.001,62.079C203.111,62.687 201.787,63.409 200.21,63.927C198.64,64.438 197.141,64.643 196.064,64.685C195.523,64.709 195.083,64.703 194.783,64.679C194.662,64.673 194.548,64.661 194.434,64.655C194.355,64.649 194.313,64.643 194.313,64.637C194.313,64.631 194.355,64.631 194.434,64.631L194.783,64.631C195.083,64.637 195.517,64.631 196.058,64.595C197.129,64.534 198.61,64.318 200.168,63.806C201.727,63.289 203.044,62.591 203.947,62.001C204.398,61.706 204.753,61.46 204.994,61.273C205.09,61.201 205.187,61.135 205.271,61.068C205.343,61.026 205.379,61.002 205.379,61.008Z" style="fill:rgb(250,250,250);fill-rule:nonzero;"/>
        <path d="M208.924,68.289C208.924,68.295 208.893,68.319 208.833,68.374C208.749,68.446 208.659,68.518 208.568,68.596C208.334,68.789 207.985,69.054 207.54,69.354C206.643,69.962 205.331,70.696 203.773,71.262C202.214,71.822 200.734,72.098 199.657,72.201C199.115,72.255 198.682,72.279 198.375,72.273L198.026,72.273C197.948,72.273 197.906,72.267 197.906,72.267C197.906,72.261 197.948,72.255 198.026,72.249C198.134,72.243 198.249,72.237 198.375,72.225C198.676,72.213 199.109,72.177 199.645,72.11C200.716,71.984 202.184,71.701 203.731,71.147C205.277,70.588 206.589,69.872 207.491,69.282C207.943,68.987 208.304,68.741 208.544,68.56C208.641,68.488 208.737,68.422 208.827,68.356C208.887,68.307 208.924,68.283 208.924,68.289Z" style="fill:rgb(250,250,250);fill-rule:nonzero;"/>
        <path d="M207.943,78.91C207.949,78.916 207.858,78.982 207.69,79.097C207.521,79.211 207.269,79.367 206.95,79.542C206.312,79.891 205.379,80.3 204.302,80.589C203.219,80.872 202.208,80.968 201.48,80.974C201.113,80.98 200.818,80.968 200.62,80.95C200.415,80.932 200.307,80.92 200.307,80.914C200.307,80.908 200.421,80.902 200.626,80.902C200.83,80.908 201.125,80.902 201.486,80.884C202.208,80.854 203.207,80.745 204.278,80.463C205.349,80.18 206.27,79.789 206.914,79.464C207.239,79.301 207.497,79.157 207.672,79.054C207.834,78.958 207.937,78.904 207.943,78.91Z" style="fill:rgb(250,250,250);fill-rule:nonzero;"/>
        <path d="M209.983,77.285C209.989,77.321 209.628,77.418 209.17,77.508C208.713,77.598 208.34,77.64 208.334,77.604C208.328,77.568 208.689,77.472 209.146,77.382C209.603,77.297 209.977,77.249 209.983,77.285Z" style="fill:rgb(250,250,250);fill-rule:nonzero;"/>
        <path d="M204.013,89.771C204.019,89.801 203.399,89.898 202.641,89.838C201.877,89.783 201.281,89.603 201.293,89.567C201.299,89.531 201.901,89.657 202.653,89.711C203.393,89.777 204.007,89.735 204.013,89.771Z" style="fill:rgb(250,250,250);fill-rule:nonzero;"/>
        <path d="M192.592,58.306C192.61,58.337 192.249,58.565 191.792,58.818C191.335,59.071 190.944,59.251 190.932,59.221C190.914,59.191 191.275,58.962 191.732,58.71C192.189,58.457 192.574,58.276 192.592,58.306Z" style="fill:rgb(250,250,250);fill-rule:nonzero;"/>
        <path d="M189.602,51.994C189.62,52.03 188.735,52.295 187.826,52.951C186.912,53.595 186.376,54.341 186.34,54.311C186.328,54.305 186.448,54.106 186.683,53.824C186.924,53.541 187.291,53.18 187.748,52.849C188.212,52.524 188.675,52.295 189.018,52.163C189.373,52.024 189.596,51.976 189.602,51.994Z" style="fill:rgb(250,250,250);fill-rule:nonzero;"/>
        <path d="M195.023,58.986C194.981,58.98 195.192,58.168 195.053,57.163C194.927,56.158 194.518,55.424 194.56,55.406C194.572,55.4 194.692,55.569 194.831,55.881C194.969,56.188 195.114,56.634 195.18,57.151C195.246,57.663 195.216,58.132 195.162,58.463C195.108,58.794 195.035,58.992 195.023,58.986Z" style="fill:rgb(250,250,250);fill-rule:nonzero;"/>
        <path d="M213.641,39.364C213.641,39.364 213.431,39.635 212.979,40.068C212.534,40.501 211.836,41.073 210.897,41.668C209.959,42.264 208.779,42.866 207.437,43.456C206.095,44.051 204.597,44.635 203.075,45.363C201.558,46.097 200.168,46.934 199.085,47.908C198.002,48.883 197.22,49.966 196.744,50.959C196.269,51.952 196.082,52.843 196.028,53.456C195.974,54.07 196.016,54.413 195.998,54.413C195.998,54.413 195.986,54.329 195.98,54.167C195.962,54.004 195.968,53.763 195.98,53.45C196.016,52.831 196.191,51.934 196.666,50.917C197.141,49.912 197.918,48.805 199.013,47.818C200.102,46.825 201.504,45.983 203.027,45.243C204.555,44.509 206.059,43.925 207.395,43.341C208.737,42.758 209.916,42.168 210.855,41.584C211.794,41 212.498,40.441 212.949,40.02C213.178,39.809 213.352,39.641 213.461,39.526C213.575,39.418 213.641,39.364 213.641,39.364Z" style="fill:rgb(250,250,250);fill-rule:nonzero;"/>
        <path d="M212.017,46.5C212.023,46.5 211.992,46.548 211.938,46.639C211.86,46.753 211.782,46.879 211.686,47.018C211.469,47.349 211.132,47.806 210.693,48.354C209.814,49.455 208.472,50.881 206.769,52.199C205.066,53.517 203.351,54.467 202.07,55.045C201.426,55.334 200.902,55.551 200.529,55.677C200.373,55.731 200.234,55.779 200.102,55.827C200.006,55.857 199.952,55.875 199.952,55.869C199.952,55.863 200,55.839 200.096,55.803C200.222,55.749 200.361,55.695 200.517,55.635C200.884,55.49 201.408,55.268 202.04,54.967C203.309,54.371 205.006,53.414 206.697,52.103C208.388,50.785 209.736,49.383 210.626,48.3C211.072,47.758 211.421,47.313 211.649,46.988C211.746,46.855 211.836,46.735 211.92,46.627C211.974,46.542 212.01,46.5 212.017,46.5Z" style="fill:rgb(250,250,250);fill-rule:nonzero;"/>
        <path d="M186.9,38.046C186.9,38.046 187.64,38.329 188.723,39.009C189.806,39.689 191.196,40.814 192.412,42.342C193.627,43.877 194.403,45.489 194.819,46.699C195.234,47.908 195.342,48.697 195.342,48.697C195.336,48.697 195.324,48.649 195.294,48.558C195.258,48.432 195.228,48.306 195.186,48.161C195.101,47.818 194.951,47.325 194.728,46.729C194.295,45.538 193.513,43.949 192.309,42.42C191.1,40.904 189.734,39.773 188.669,39.081C188.139,38.732 187.694,38.473 187.375,38.311C187.243,38.239 187.128,38.178 187.014,38.118C186.936,38.076 186.894,38.052 186.9,38.046Z" style="fill:rgb(250,250,250);fill-rule:nonzero;"/>
        <path d="M156.723,60.677C156.957,63.867 154.851,66.713 152.727,69.108C150.603,71.503 148.244,73.994 147.787,77.159C146.975,82.767 152.468,87.978 151.331,93.532C150.723,96.511 148.286,98.9 147.853,101.908C147.432,104.815 148.99,107.661 150.922,109.875C152.854,112.09 155.092,111.765 156.801,114.154C158.6,116.669 161.501,119.257 164.214,120.743C170.37,124.113 177.753,119.239 180.726,118.36" style="fill:rgb(38,50,56);fill-rule:nonzero;"/>
        <path d="M203.261,73.747C206.095,72.513 206.318,62.344 199.205,61.171C196.353,60.701 193.97,59.305 191.569,57.693C189.445,56.261 188.813,52.632 187.014,50.809C182.603,46.332 175.707,44.478 169.648,46.133C163.582,47.788 158.588,52.885 157.06,58.98C156.025,63.102 156.729,67.97 159.978,70.708C163.745,73.885 169.335,73.181 174.161,72.189C178.993,71.202 184.457,70.227 188.488,73.061C190.919,74.77 192.315,77.556 193.802,80.126C195.288,82.701 197.153,85.331 199.964,86.293C199.964,86.293 202.106,91.324 200.355,94.826C198.61,98.328 202.407,92.359 202.407,92.359C202.407,92.359 209.339,80.035 203.261,73.747Z" style="fill:rgb(38,50,56);fill-rule:nonzero;"/>
        <path d="M167.211,145.101C167.169,138.464 167.211,119.828 167.211,119.858C167.211,119.858 156.669,118.083 154.514,104.315C153.443,97.468 153.81,86.251 154.412,77.081C154.954,68.825 160.441,58.71 168.667,59.6L194.337,66.147C196.835,66.418 198.712,68.554 198.658,71.063L197.093,134.817L167.211,145.101Z" style="fill:rgb(255,190,157);fill-rule:nonzero;"/>
        <path d="M158.775,84.945C158.739,85.878 159.503,86.678 160.472,86.733C161.44,86.787 162.259,86.077 162.295,85.144C162.331,84.211 161.567,83.411 160.598,83.357C159.629,83.303 158.811,84.013 158.775,84.945Z" style="fill:rgb(38,50,56);fill-rule:nonzero;"/>
        <path d="M156.825,82.924C157.042,83.152 158.384,82.165 160.279,82.177C162.174,82.159 163.571,83.14 163.775,82.906C163.877,82.803 163.655,82.388 163.047,81.943C162.451,81.504 161.434,81.07 160.249,81.076C159.063,81.082 158.071,81.516 157.499,81.961C156.921,82.406 156.723,82.821 156.825,82.924Z" style="fill:rgb(38,50,56);fill-rule:nonzero;"/>
        <path d="M175.497,85.95C175.714,86.179 177.055,85.192 178.957,85.204C180.852,85.186 182.248,86.167 182.453,85.932C182.555,85.83 182.333,85.415 181.725,84.97C181.129,84.53 180.112,84.097 178.927,84.103C177.741,84.109 176.749,84.542 176.177,84.988C175.587,85.433 175.389,85.848 175.497,85.95Z" style="fill:rgb(38,50,56);fill-rule:nonzero;"/>
        <path d="M168.571,97.389C168.583,97.281 167.398,97.077 165.49,96.824C165.003,96.77 164.545,96.673 164.467,96.342C164.353,95.993 164.557,95.47 164.792,94.904C165.249,93.731 165.731,92.503 166.236,91.216C168.24,85.962 169.69,81.642 169.48,81.564C169.269,81.485 167.47,85.68 165.466,90.933C164.985,92.226 164.521,93.46 164.082,94.645C163.895,95.199 163.583,95.819 163.829,96.547C163.962,96.908 164.317,97.173 164.624,97.257C164.936,97.353 165.207,97.359 165.448,97.371C167.368,97.486 168.565,97.498 168.571,97.389Z" style="fill:rgb(38,50,56);fill-rule:nonzero;"/>
        <path d="M167.211,119.858C167.211,119.858 176.466,120.478 185.654,114.984C185.498,115.014 180.582,124.552 167.391,123.108L167.211,119.858Z" style="fill:rgb(235,153,110);fill-rule:nonzero;"/>
        <path d="M169.118,102.871C168.89,101.704 170.268,101.325 171.279,100.693C172.29,100.067 172.873,99.231 173.818,99.953C174.36,100.362 174.745,100.958 174.985,101.59C175.148,102.017 175.25,102.48 175.172,102.931C175.076,103.479 174.727,103.954 174.323,104.339C173.752,104.881 173.036,105.29 172.259,105.417C171.483,105.549 170.647,105.38 170.027,104.893C169.407,104.406 169.046,103.587 169.179,102.811" style="fill:rgb(235,153,110);fill-rule:nonzero;"/>
        <path d="M174.155,98.713C173.848,98.695 173.836,100.753 172.067,102.215C170.304,103.678 168.108,103.443 168.09,103.732C168.06,103.858 168.577,104.135 169.504,104.159C170.412,104.195 171.742,103.9 172.825,103.01C173.902,102.113 174.372,100.922 174.444,100.073C174.528,99.213 174.3,98.701 174.155,98.713Z" style="fill:rgb(38,50,56);fill-rule:nonzero;"/>
        <path d="M175.214,81.708C175.401,82.226 177.296,81.985 179.523,82.256C181.755,82.484 183.548,83.14 183.849,82.677C183.981,82.454 183.669,81.967 182.946,81.467C182.23,80.968 181.081,80.493 179.745,80.336C178.409,80.186 177.182,80.396 176.369,80.727C175.545,81.058 175.13,81.461 175.214,81.708Z" style="fill:rgb(38,50,56);fill-rule:nonzero;"/>
        <path d="M157.09,76.353C157.421,76.786 158.733,76.341 160.303,76.323C161.874,76.25 163.21,76.617 163.516,76.166C163.649,75.949 163.444,75.516 162.861,75.107C162.289,74.698 161.332,74.367 160.249,74.397C159.166,74.427 158.233,74.818 157.68,75.257C157.126,75.703 156.945,76.142 157.09,76.353Z" style="fill:rgb(38,50,56);fill-rule:nonzero;"/>
        <path d="M200.156,112.186C196.371,112.95 196.034,111.025 193.206,108.395C190.378,105.766 188.916,101.74 189.403,97.913C189.83,94.531 191.654,91.095 190.48,87.894C188.934,83.664 183.001,82.364 181.43,78.14C180.515,75.685 181.334,72.82 180.299,70.413C179.324,68.151 176.947,66.851 174.63,66.015C172.314,65.178 169.835,64.601 167.891,63.09C165.947,61.58 164.738,58.728 165.989,56.61C176.255,57.837 186.376,60.298 196.058,63.915C198.303,64.751 200.662,65.762 201.991,67.76C203.393,69.872 203.327,72.604 203.213,75.137C202.635,87.491 202.058,99.851 201.486,112.204" style="fill:rgb(38,50,56);fill-rule:nonzero;"/>
        <path d="M208.93,107.565C208.936,107.571 208.99,107.511 209.08,107.396C209.164,107.27 209.321,107.101 209.459,106.849C209.772,106.349 210.145,105.549 210.368,104.442C210.59,103.347 210.608,101.92 210.145,100.38C209.718,98.84 208.641,97.191 206.944,96.072C205.313,94.922 203.183,94.116 201.835,92.287C201.161,91.39 200.878,90.229 201.089,89.055C201.275,87.876 201.811,86.715 202.286,85.487C203.339,83.02 203.351,79.939 202.112,77.273C201.486,75.943 200.559,74.71 199.32,73.807C198.086,72.875 196.582,72.393 195.102,72.056C193.609,71.713 192.123,71.521 190.745,71.105C189.367,70.696 188.055,70.077 187.099,69.108C186.118,68.151 185.702,66.827 185.516,65.497C185.329,64.167 185.227,62.783 184.866,61.496C184.192,58.914 182.88,56.628 181.153,54.985C179.426,53.33 177.308,52.385 175.304,52.085C173.295,51.772 171.405,52.145 169.985,52.891C168.547,53.625 167.548,54.636 166.91,55.557C166.272,56.489 165.971,57.32 165.833,57.891C165.689,58.463 165.701,58.776 165.701,58.776C165.791,58.812 165.809,57.482 167.103,55.695C167.753,54.822 168.745,53.872 170.142,53.198C171.519,52.512 173.325,52.187 175.244,52.512C177.152,52.825 179.174,53.757 180.81,55.352C182.453,56.941 183.699,59.143 184.331,61.64C184.673,62.886 184.758,64.204 184.944,65.588C185.125,66.947 185.582,68.458 186.677,69.529C187.736,70.606 189.144,71.256 190.577,71.683C192.021,72.122 193.513,72.315 194.975,72.652C196.425,72.983 197.84,73.44 198.977,74.295C200.126,75.131 200.999,76.28 201.588,77.526C202.762,80.047 202.774,82.924 201.781,85.294C201.324,86.504 200.776,87.695 200.577,88.983C200.349,90.265 200.692,91.625 201.444,92.588C202.948,94.561 205.133,95.331 206.715,96.433C208.364,97.486 209.381,99.014 209.838,100.488C210.314,101.957 210.332,103.335 210.151,104.412C209.754,106.578 208.839,107.529 208.93,107.565Z" style="fill:rgb(69,90,100);fill-rule:nonzero;"/>
        <path d="M191.023,93.893C187.906,101.066 187.328,109.31 189.416,116.844C190.042,119.094 190.896,121.429 190.367,123.703C189.789,126.164 187.731,127.946 186.233,129.98C183.645,133.482 182.64,138.103 183.531,142.363C184.427,146.624 187.208,150.451 190.98,152.617C191.378,150.354 193.484,148.814 195.56,147.827C197.636,146.84 199.928,146.112 201.517,144.451C203.099,142.785 203.551,139.734 201.709,138.362C207.005,136.978 210.007,130.684 208.894,125.322C207.781,119.961 203.418,115.724 198.46,113.402" style="fill:rgb(38,50,56);fill-rule:nonzero;"/>
        <path d="M196.672,147.328C195.727,147.845 194.807,148.308 194.686,149.386C194.548,150.643 195.757,152.858 196.191,154.049C197.039,156.378 196.401,159.182 194.62,160.909C192.845,162.642 190.023,163.201 187.718,162.293C189.415,162.425 190.853,160.77 191.004,159.074C191.154,157.383 190.336,155.746 189.325,154.38C188.314,153.014 187.092,151.799 186.232,150.33C184.487,147.34 181.899,139.21 183.891,134.655" style="fill:rgb(38,50,56);fill-rule:nonzero;"/>
        <path d="M201.486,138.572C201.48,138.566 201.594,138.47 201.811,138.296C202.034,138.127 202.352,137.868 202.756,137.531C203.556,136.851 204.693,135.822 205.849,134.33C206.992,132.85 208.165,130.888 208.779,128.481C209.381,126.092 209.423,123.246 208.388,120.58C207.87,119.251 207.106,118.071 206.21,117.066C205.325,116.049 204.356,115.159 203.454,114.298C202.545,113.438 201.691,112.601 200.987,111.729C200.276,110.856 199.741,109.948 199.368,109.069C198.598,107.306 198.568,105.675 198.838,104.646C198.977,104.129 199.145,103.75 199.29,103.509C199.434,103.268 199.512,103.148 199.524,103.154C199.566,103.172 199.199,103.659 198.959,104.676C198.73,105.693 198.796,107.27 199.572,108.985C199.946,109.839 200.487,110.724 201.191,111.572C201.895,112.421 202.75,113.245 203.658,114.1C204.567,114.954 205.542,115.845 206.444,116.88C207.359,117.903 208.153,119.118 208.683,120.484C209.748,123.228 209.688,126.14 209.056,128.571C208.412,131.027 207.202,133.006 206.017,134.487C204.826,135.973 203.658,136.99 202.828,137.646C202.413,137.971 202.076,138.211 201.841,138.368C201.618,138.506 201.492,138.578 201.486,138.572Z" style="fill:rgb(69,90,100);fill-rule:nonzero;"/>
        <path d="M28.552,210.438C30.075,212.345 32.746,211.515 33.926,210.215C35.105,208.916 35.527,207.122 35.906,205.407C36.772,201.496 37.633,197.392 36.562,193.529C36.243,192.374 35.731,191.237 34.853,190.418C33.974,189.6 32.68,189.167 31.543,189.546C30.195,189.991 29.431,191.387 28.895,192.699C27.325,196.556 26.633,200.774 26.88,204.932C26.994,206.882 27.355,208.904 28.552,210.438Z" style="fill:rgb(254,173,84);fill-rule:nonzero;"/>
        <g opacity="0.2">
            <g opacity="0.2">
                <path d="M28.552,210.438C30.075,212.345 32.746,211.515 33.926,210.215C35.105,208.916 35.527,207.122 35.906,205.407C36.772,201.496 37.633,197.392 36.562,193.529C36.243,192.374 35.731,191.237 34.853,190.418C33.974,189.6 32.68,189.167 31.543,189.546C30.195,189.991 29.431,191.387 28.895,192.699C27.325,196.556 26.633,200.774 26.88,204.932C26.994,206.882 27.355,208.904 28.552,210.438Z" style="fill-opacity:0.2;fill-rule:nonzero;"/>
            </g>
        </g>
        <path d="M34.414,220.21C36.622,218.886 39.3,218.567 41.863,218.826C43.241,218.965 44.685,219.284 45.672,220.246C46.665,221.209 46.954,223.002 45.943,223.947C45.341,224.513 44.463,224.645 43.644,224.687C41.658,224.789 39.438,224.579 37.928,225.873C37.067,226.613 36.538,227.78 35.472,228.183C34.438,228.58 33.204,228.027 32.584,227.106C31.964,226.185 31.868,224.994 32.061,223.905C32.061,223.899 32.193,221.54 34.414,220.21Z" style="fill:rgb(254,173,84);fill-rule:nonzero;"/>
        <path d="M24.894,213.543C26.296,211.647 26.416,209.006 25.604,206.797C24.786,204.589 23.143,202.766 21.29,201.31C19.117,199.607 16.608,198.331 13.948,197.579C12.901,197.284 11.806,197.067 10.729,197.236C9.658,197.404 8.605,198.03 8.16,199.023C7.504,200.491 8.328,202.17 9.189,203.53C10.705,205.925 12.414,208.193 14.285,210.318C15.79,212.027 17.499,213.699 19.677,214.379C21.855,215.059 24.052,214.825 25.087,213.278" style="fill:rgb(254,173,84);fill-rule:nonzero;"/>
        <path d="M30.346,240.519C30.37,240.519 30.394,240.194 30.418,239.604C30.442,238.942 30.466,238.106 30.502,237.119C30.55,236.072 30.629,234.826 30.827,233.454C31.032,232.095 31.393,230.608 31.874,229.092C32.38,227.588 33.03,226.204 33.818,225.084C34.6,223.959 35.539,223.117 36.435,222.611C37.332,222.094 38.15,221.859 38.716,221.739C39.288,221.642 39.613,221.576 39.613,221.552C39.613,221.528 39.288,221.54 38.692,221.594C38.108,221.672 37.254,221.871 36.303,222.376C35.352,222.87 34.353,223.724 33.535,224.88C32.705,226.029 32.037,227.437 31.519,228.972C31.026,230.512 30.671,232.01 30.484,233.406C30.298,234.796 30.25,236.054 30.232,237.107C30.219,238.16 30.244,239.015 30.268,239.604C30.298,240.194 30.322,240.519 30.346,240.519Z" style="fill:rgb(38,50,56);fill-rule:nonzero;"/>
        <path d="M30.4,238.605C30.412,238.605 30.412,238.461 30.4,238.184C30.382,237.871 30.352,237.468 30.322,236.981C30.255,235.94 30.159,234.429 30.099,232.558C29.955,228.821 29.955,223.658 30.219,217.96C30.49,212.261 30.996,207.116 31.519,203.422C31.639,202.495 31.766,201.659 31.892,200.93C32.007,200.196 32.109,199.565 32.205,199.053C32.289,198.572 32.356,198.181 32.41,197.868C32.452,197.597 32.47,197.452 32.458,197.446C32.446,197.446 32.404,197.585 32.337,197.85C32.265,198.156 32.175,198.548 32.061,199.023C31.94,199.534 31.82,200.16 31.682,200.894C31.537,201.622 31.393,202.459 31.254,203.386C30.659,207.086 30.111,212.237 29.84,217.948C29.576,223.658 29.624,228.833 29.828,232.576C29.924,234.447 30.057,235.958 30.171,236.999C30.231,237.486 30.279,237.883 30.322,238.196C30.358,238.467 30.388,238.611 30.4,238.605Z" style="fill:rgb(38,50,56);fill-rule:nonzero;"/>
        <path d="M29.798,228.653C29.822,228.653 29.792,228.201 29.708,227.395C29.612,226.589 29.425,225.433 29.112,224.019C28.781,222.611 28.336,220.938 27.692,219.133C27.072,217.322 26.254,215.372 25.249,213.399C23.275,209.427 20.73,206.244 18.564,204.306C18.052,203.789 17.499,203.428 17.047,203.067C16.819,202.892 16.608,202.724 16.403,202.585C16.199,202.459 16,202.345 15.826,202.236C15.128,201.821 14.737,201.604 14.725,201.629C14.67,201.713 16.283,202.531 18.383,204.499C20.471,206.466 22.95,209.632 24.912,213.567C25.911,215.523 26.729,217.454 27.361,219.247C28.017,221.035 28.486,222.689 28.847,224.079C29.196,225.475 29.419,226.625 29.557,227.419C29.69,228.213 29.774,228.653 29.798,228.653Z" style="fill:rgb(38,50,56);fill-rule:nonzero;"/>
        <path d="M60.678,150.87L60.654,139.734L55.134,148.95L53.742,148.95L48.222,139.878L48.222,150.87L45.246,150.87L45.246,134.07L47.814,134.07L54.486,145.206L61.038,134.07L63.606,134.07L63.63,150.87L60.678,150.87ZM79.927,144.534C79.927,144.742 79.911,145.038 79.879,145.422L69.823,145.422C69.999,146.366 70.455,147.118 71.191,147.678C71.943,148.222 72.871,148.494 73.975,148.494C75.383,148.494 76.543,148.03 77.455,147.102L79.063,148.95C78.487,149.638 77.759,150.158 76.879,150.51C75.999,150.862 75.007,151.038 73.903,151.038C72.495,151.038 71.255,150.758 70.183,150.198C69.111,149.638 68.279,148.862 67.687,147.87C67.111,146.862 66.823,145.726 66.823,144.462C66.823,143.214 67.103,142.094 67.663,141.102C68.239,140.094 69.031,139.31 70.039,138.75C71.047,138.19 72.183,137.91 73.447,137.91C74.695,137.91 75.807,138.19 76.783,138.75C77.775,139.294 78.543,140.07 79.087,141.078C79.647,142.07 79.927,143.222 79.927,144.534ZM73.447,140.31C72.487,140.31 71.671,140.598 70.999,141.174C70.343,141.734 69.943,142.486 69.799,143.43L77.071,143.43C76.943,142.502 76.551,141.75 75.895,141.174C75.239,140.598 74.423,140.31 73.447,140.31ZM85.665,139.926C86.529,138.582 88.049,137.91 90.225,137.91L90.225,140.766C89.969,140.718 89.737,140.694 89.529,140.694C88.361,140.694 87.449,141.038 86.793,141.726C86.137,142.398 85.809,143.374 85.809,144.654L85.809,150.87L82.809,150.87L82.809,138.054L85.665,138.054L85.665,139.926ZM98.533,151.038C97.205,151.038 96.013,150.758 94.957,150.198C93.901,149.638 93.077,148.862 92.485,147.87C91.893,146.862 91.597,145.726 91.597,144.462C91.597,143.198 91.893,142.07 92.485,141.078C93.077,140.086 93.893,139.31 94.933,138.75C95.989,138.19 97.189,137.91 98.533,137.91C99.797,137.91 100.901,138.166 101.845,138.678C102.805,139.19 103.525,139.926 104.005,140.886L101.701,142.23C101.333,141.638 100.869,141.198 100.309,140.91C99.765,140.606 99.165,140.454 98.509,140.454C97.389,140.454 96.461,140.822 95.725,141.558C94.989,142.278 94.621,143.246 94.621,144.462C94.621,145.678 94.981,146.654 95.701,147.39C96.437,148.11 97.373,148.47 98.509,148.47C99.165,148.47 99.765,148.326 100.309,148.038C100.869,147.734 101.333,147.286 101.701,146.694L104.005,148.038C103.509,148.998 102.781,149.742 101.821,150.27C100.877,150.782 99.781,151.038 98.533,151.038ZM106.598,138.054L109.598,138.054L109.598,150.87L106.598,150.87L106.598,138.054ZM108.11,135.942C107.566,135.942 107.11,135.774 106.742,135.438C106.374,135.086 106.19,134.654 106.19,134.142C106.19,133.63 106.374,133.206 106.742,132.87C107.11,132.518 107.566,132.342 108.11,132.342C108.654,132.342 109.11,132.51 109.478,132.846C109.846,133.166 110.03,133.574 110.03,134.07C110.03,134.598 109.846,135.046 109.478,135.414C109.126,135.766 108.67,135.942 108.11,135.942ZM119.784,134.07L123.336,134.07L122.736,145.302L120.36,145.302L119.784,134.07ZM121.56,151.038C121,151.038 120.536,150.862 120.168,150.51C119.8,150.142 119.616,149.694 119.616,149.166C119.616,148.638 119.8,148.198 120.168,147.846C120.536,147.494 121,147.318 121.56,147.318C122.104,147.318 122.552,147.494 122.904,147.846C123.272,148.198 123.456,148.638 123.456,149.166C123.456,149.694 123.272,150.142 122.904,150.51C122.552,150.862 122.104,151.038 121.56,151.038Z" style="fill-rule:nonzero;"/>
        <circle cx="70.403" cy="100.791" r="21.061" style="fill:rgb(7,155,171);"/>
        <path d="M68.23,102.037L77.56,92.969L80.633,95.956L68.23,108.012L60.174,100.181L63.247,97.194L68.23,102.037Z" style="fill:white;"/>
    </g>
</svg>
