<?xml version="1.0" encoding="UTF-8" standalone="no"?>
<!DOCTYPE svg PUBLIC "-//W3C//DTD SVG 1.1//EN" "http://www.w3.org/Graphics/SVG/1.1/DTD/svg11.dtd">
<svg width="100%" height="100%" viewBox="0 0 503 723" version="1.1" xmlns="http://www.w3.org/2000/svg" xmlns:xlink="http://www.w3.org/1999/xlink" xml:space="preserve" xmlns:serif="http://www.serif.com/" style="fill-rule:evenodd;clip-rule:evenodd;stroke-linejoin:round;stroke-miterlimit:2;">
    <g transform="matrix(1,0,0,1,5.90488e-15,-101.036)">
        <clipPath id="_clip1">
            <rect x="0" y="101.036" width="502.189" height="722.026"/>
        </clipPath>
        <g clip-path="url(#_clip1)">
            <g transform="matrix(1,0,0,1,5.62449e-09,169)">
                <path d="M727,579C727,764.568 79.542,571.248 118,376C144,244 266,286.568 266,101C266,-84.568 173.432,-169 359,-169C544.568,-169 727,393.432 727,579Z" style="fill:rgb(1,84,104);fill-rule:nonzero;"/>
            </g>
            <g transform="matrix(1,0,0,1,5.62449e-09,169)">
                <ellipse cx="137.498" cy="366.477" rx="126" ry="126.164" style="fill:rgb(1,84,104);fill-opacity:0.13;"/>
            </g>
            <g transform="matrix(1,0,0,1,5.62449e-09,169)">
                <path d="M278.386,486.564L173.534,480.134C172.872,478.626 172.436,477.751 172.436,477.751L144.019,478.315L134.767,477.751C134.767,477.751 134.626,478.033 134.401,478.513L39.012,480.416C19.988,480.416 0.006,492.035 0.006,506.882C-0.233,521.01 6.596,536.351 23.635,535.998L153.594,535.561L283.554,535.998C300.592,536.351 305.099,526.058 305.127,513.847C307.14,491.118 292.918,486.747 278.386,486.564Z" style="fill:rgb(69,90,100);fill-rule:nonzero;"/>
            </g>
            <g transform="matrix(1,0,0,1,5.62449e-09,169)">
                <path d="M35.576,535.999C35.576,535.999 35.787,535.97 36.196,535.956C36.646,535.942 37.252,535.942 38.026,535.928C39.674,535.914 42.054,535.886 45.109,535.858C51.291,535.829 60.219,535.787 71.259,535.745C93.438,535.717 124.164,535.674 158.523,535.632L158.157,536.027C157.974,533.179 157.791,530.119 157.593,527.045C157.199,520.757 156.819,514.553 156.453,508.673L156.777,509.011C124.854,505.458 96.648,502.314 76.385,500.058C66.302,498.902 58.191,497.971 52.559,497.322C49.785,496.984 47.644,496.73 46.137,496.547C45.433,496.448 44.884,496.378 44.476,496.335C44.096,496.279 43.913,496.251 43.913,496.237C43.913,496.223 44.11,496.237 44.476,496.265C44.884,496.307 45.433,496.35 46.137,496.42C47.644,496.575 49.799,496.787 52.573,497.069C58.205,497.661 66.316,498.521 76.413,499.578C96.676,501.778 124.896,504.838 156.833,508.292L157.143,508.32L157.157,508.631C157.523,514.524 157.917,520.714 158.312,527.003C158.509,530.077 158.692,533.136 158.875,535.985L158.903,536.379L158.509,536.379C124.135,536.337 93.409,536.295 71.245,536.267C60.191,536.224 51.277,536.182 45.095,536.154C42.04,536.126 39.66,536.097 38.012,536.083C37.224,536.069 36.618,536.055 36.182,536.055C35.787,536.027 35.576,535.999 35.576,535.999Z" style="fill:rgb(38,50,56);fill-rule:nonzero;"/>
            </g>
            <g transform="matrix(1,0,0,1,5.62449e-09,169)">
                <path d="M62.374,498.676C62.289,498.774 60.994,497.717 58.698,496.321C56.417,494.925 53.08,493.261 49.151,492.119C45.222,490.991 41.519,490.625 38.829,490.596C36.154,490.568 34.478,490.766 34.464,490.639C34.464,490.582 34.872,490.498 35.619,490.371C36.365,490.23 37.463,490.131 38.829,490.075C41.547,489.962 45.349,490.258 49.348,491.414C53.347,492.57 56.727,494.347 58.966,495.884C60.092,496.645 60.966,497.322 61.529,497.83C62.106,498.337 62.402,498.633 62.374,498.676Z" style="fill:rgb(38,50,56);fill-rule:nonzero;"/>
            </g>
            <g transform="matrix(1,0,0,1,5.62449e-09,169)">
                <path d="M270.247,493.092C270.289,493.29 249.617,498.295 224.059,504.274C198.501,510.252 177.744,514.933 177.702,514.736C177.66,514.539 198.332,509.533 223.89,503.555C249.448,497.576 270.204,492.895 270.247,493.092Z" style="fill:rgb(38,50,56);fill-rule:nonzero;"/>
            </g>
            <g transform="matrix(1,0,0,1,5.62449e-09,169)">
                <path d="M252.771,491.062C252.842,491.287 248.772,492.105 244.674,494.953C240.534,497.745 238.281,501.228 238.084,501.073C238.014,501.03 238.464,500.1 239.492,498.775C240.506,497.449 242.14,495.785 244.252,494.347C246.364,492.909 248.519,492.007 250.124,491.541C251.715,491.062 252.757,490.977 252.771,491.062Z" style="fill:rgb(38,50,56);fill-rule:nonzero;"/>
            </g>
            <g transform="matrix(1,0,0,1,5.62449e-09,169)">
                <path d="M213.737,371.875L246.942,429.755C251.039,436.904 251.293,445.632 247.617,453.006C243.351,461.565 234.507,466.867 224.96,466.599L173.971,465.16L172.633,446.591L217.539,437.976L187.264,385.496L213.737,371.875Z" style="fill:rgb(255,190,157);fill-rule:nonzero;"/>
            </g>
            <g transform="matrix(1,0,0,1,5.62449e-09,169)">
                <path d="M89.959,470.927L136.851,483.364L137.865,469.278L94.649,444.151L126.205,385.496L99.732,371.875L66.528,429.755C58.487,444.701 65.992,463.299 82.158,468.446L89.959,470.927Z" style="fill:rgb(255,190,157);fill-rule:nonzero;"/>
            </g>
            <g transform="matrix(1,0,0,1,5.62449e-09,169)">
                <path d="M199.641,409.042L231.691,392.136C231.691,392.136 226.354,380.828 217.961,369.21C208.034,355.462 192.643,345.846 175.153,342.194L138.288,342.631C133.035,343.195 128.726,344.197 125.135,345.663L125.164,345.522C105.154,349.935 82.961,393.631 82.961,393.631L112.124,409L112.772,413.597C113.617,419.646 116.264,425.328 120.376,429.967L111.885,485.901L206.541,487.861L194.487,447.803L199.641,409.042Z" style="fill:rgb(254,173,84);fill-rule:nonzero;"/>
            </g>
            <g transform="matrix(1,0,0,1,5.62449e-09,169)">
                <path d="M121.235,430.277C121.207,430.305 120.686,429.953 119.827,429.206C118.968,428.458 117.799,427.274 116.602,425.596C114.222,422.282 112.096,416.671 112.645,410.34C113.096,407.224 113.983,404.39 114.814,401.837C115.658,399.285 116.517,397.029 117.278,395.14C118.024,393.251 118.672,391.742 119.151,390.713C119.615,389.683 119.911,389.119 119.953,389.147C119.996,389.162 119.799,389.768 119.404,390.825C118.968,392.024 118.418,393.533 117.757,395.323C117.067,397.227 116.264,399.497 115.461,402.049C114.673,404.587 113.814,407.421 113.377,410.438C113.096,413.428 113.49,416.403 114.18,418.927C114.856,421.479 115.954,423.622 117.038,425.314C119.263,428.656 121.347,430.15 121.235,430.277Z" style="fill:rgb(38,50,56);fill-rule:nonzero;"/>
            </g>
            <g transform="matrix(1,0,0,1,5.62449e-09,169)">
                <path d="M107.041,499.409L101.704,437.017L217.004,437.017L209.358,500.185L107.041,499.409Z" style="fill:rgb(38,50,56);fill-rule:nonzero;"/>
            </g>
            <g transform="matrix(1,0,0,1,5.62449e-09,169)">
                <path d="M166.69,470.293C166.69,474.353 163.409,477.639 159.354,477.639C155.298,477.639 152.017,474.353 152.017,470.293C152.017,466.232 155.298,462.947 159.354,462.947C163.409,462.932 166.69,466.232 166.69,470.293Z" style="fill:rgb(250,250,250);fill-rule:nonzero;"/>
            </g>
            <g transform="matrix(1,0,0,1,5.62449e-09,169)">
                <path d="M157.326,511.591L176.914,514.327L176.914,535.632L158.903,535.166L157.326,511.591Z" style="fill:rgb(255,190,157);fill-rule:nonzero;"/>
            </g>
            <g transform="matrix(1,0,0,1,5.62449e-09,169)">
                <path d="M176.899,514.327L185.715,514.327C187.432,514.327 189.108,514.778 190.587,515.638L195.234,518.317C196.755,519.191 201.669,521.659 203.345,522.194C208.696,523.915 217.694,526.241 219.595,527.693C225.002,531.881 223.369,536.816 220.383,537.338C217.764,537.789 176.899,535.632 176.899,535.632L176.899,514.327Z" style="fill:rgb(254,173,84);fill-rule:nonzero;"/>
            </g>
            <g transform="matrix(1,0,0,1,5.62449e-09,169)">
                <path d="M191.361,533.883C191.178,533.925 190.502,531.472 190.418,528.342C190.319,525.212 190.84,522.73 191.037,522.758C191.248,522.786 191.051,525.268 191.15,528.328C191.234,531.373 191.572,533.841 191.361,533.883Z" style="fill:rgb(38,50,56);fill-rule:nonzero;"/>
            </g>
            <g transform="matrix(1,0,0,1,5.62449e-09,169)">
                <path d="M195.543,533.756C195.346,533.756 195.191,531.472 195.219,528.666C195.247,525.86 195.43,523.576 195.628,523.59C195.825,523.59 195.98,525.875 195.951,528.68C195.923,531.486 195.74,533.756 195.543,533.756Z" style="fill:rgb(38,50,56);fill-rule:nonzero;"/>
            </g>
            <g transform="matrix(1,0,0,1,5.62449e-09,169)">
                <path d="M200.472,534.602C200.275,534.616 199.923,532.29 199.697,529.385C199.472,526.495 199.458,524.126 199.655,524.112C199.852,524.098 200.204,526.424 200.43,529.329C200.655,532.233 200.683,534.588 200.472,534.602Z" style="fill:rgb(38,50,56);fill-rule:nonzero;"/>
            </g>
            <g transform="matrix(1,0,0,1,5.62449e-09,169)">
                <path d="M187.559,528.201C187.545,528.243 186.883,528.102 185.757,527.637C184.63,527.158 183.039,526.34 181.363,524.916C180.941,524.563 180.518,524.168 180.11,523.731C179.702,523.294 179.251,522.801 178.983,522.138C178.716,521.475 178.716,520.615 179.223,519.953C179.476,519.614 179.899,519.403 180.321,519.346C180.744,519.29 181.138,519.36 181.504,519.487C184.363,520.46 186.813,523.266 187.263,526.721C187.7,530.217 185.827,533.46 183.349,535.096C182.729,535.505 182.081,535.871 181.335,535.998C180.969,536.069 180.575,536.069 180.18,535.942C179.786,535.815 179.462,535.519 179.293,535.152C178.955,534.377 179.251,533.658 179.547,533.122C179.857,532.558 180.293,532.149 180.673,531.754C182.264,530.217 183.87,529.371 184.996,528.92C186.137,528.469 186.813,528.37 186.813,528.398C186.827,528.455 186.193,528.652 185.109,529.174C184.039,529.696 182.518,530.584 181.039,532.121C180.673,532.516 180.293,532.91 180.04,533.39C179.786,533.855 179.617,534.447 179.828,534.87C180.04,535.322 180.603,535.477 181.208,535.336C181.8,535.223 182.391,534.884 182.969,534.504C185.222,532.981 186.925,529.949 186.531,526.777C186.137,523.619 183.856,520.996 181.307,520.094C180.687,519.882 180.054,519.91 179.73,520.319C179.392,520.728 179.35,521.377 179.547,521.884C179.983,522.942 180.955,523.76 181.701,524.479C184.926,527.369 187.644,528.06 187.559,528.201Z" style="fill:rgb(38,50,56);fill-rule:nonzero;"/>
            </g>
            <g transform="matrix(1,0,0,1,5.62449e-09,169)">
                <path d="M220.384,537.338C220.327,537.268 220.961,536.986 221.454,535.999C221.947,535.026 221.848,533.277 220.877,531.557C219.919,529.823 217.933,528.328 215.441,527.454C212.949,526.552 209.977,526.129 206.992,525.184C200.979,523.393 195.896,520.757 192.446,518.543C190.714,517.443 189.39,516.456 188.489,515.751C187.602,515.032 187.123,514.609 187.151,514.567C187.179,514.524 187.714,514.877 188.658,515.511C189.601,516.146 190.981,517.062 192.727,518.092C196.22,520.164 201.275,522.688 207.203,524.465C210.146,525.381 213.089,525.833 215.68,526.791C218.257,527.736 220.355,529.372 221.341,531.275C222.327,533.136 222.355,535.054 221.721,536.097C221.426,536.619 221.06,536.929 220.82,537.098C220.539,537.296 220.398,537.366 220.384,537.338Z" style="fill:rgb(38,50,56);fill-rule:nonzero;"/>
            </g>
            <g transform="matrix(1,0,0,1,5.62449e-09,169)">
                <path d="M207.062,357.507C207.076,357.507 207.076,357.605 207.062,357.803C207.048,358.043 207.02,358.325 206.992,358.677C206.921,359.495 206.809,360.637 206.682,362.089C206.372,365.121 205.95,369.449 205.4,374.892L205.372,375.216L205.077,375.061C200.359,372.58 194.6,369.534 188.08,366.108L188.488,365.995C185.686,370.733 182.574,375.992 179.251,381.59L179.054,381.928L178.744,381.688C173.886,377.952 168.633,373.933 163.198,369.746L163.648,369.746C161.494,371.438 159.199,373.242 156.875,375.061C153.735,377.515 150.651,379.94 147.638,382.295L147.3,382.562L147.088,382.182C144.019,376.499 141.076,371.043 138.287,365.896L138.724,366.051C131.951,369.069 125.684,371.875 120.066,374.37L119.728,374.525L119.672,374.159C118.587,367.757 117.644,362.188 116.855,357.549L117.137,357.704C112.589,359.438 108.984,360.82 106.463,361.779C105.252,362.23 104.309,362.583 103.619,362.837C103.323,362.935 103.083,363.02 102.886,363.09C102.717,363.147 102.633,363.175 102.633,363.161C102.633,363.147 102.703,363.104 102.872,363.034C103.069,362.949 103.295,362.851 103.59,362.724C104.266,362.442 105.196,362.061 106.393,361.568C108.899,360.566 112.49,359.114 116.996,357.309L117.235,357.211L117.278,357.464C118.109,362.103 119.108,367.659 120.249,374.046L119.841,373.849C125.431,371.311 131.683,368.491 138.456,365.431L138.738,365.304L138.893,365.586C141.681,370.733 144.652,376.189 147.722,381.857L147.173,381.745C150.186,379.376 153.27,376.965 156.396,374.497C158.72,372.678 161.015,370.874 163.17,369.182L163.395,369.012L163.62,369.182C169.056,373.369 174.294,377.416 179.138,381.152L178.631,381.251C181.969,375.668 185.109,370.422 187.939,365.699L188.094,365.445L188.348,365.586C194.839,369.069 200.57,372.157 205.274,374.681L204.95,374.85C205.584,369.421 206.09,365.093 206.443,362.075C206.626,360.637 206.766,359.495 206.865,358.677C206.921,358.325 206.964,358.043 206.992,357.803C207.02,357.605 207.048,357.507 207.062,357.507Z" style="fill:rgb(245,245,245);fill-rule:nonzero;"/>
            </g>
            <g transform="matrix(1,0,0,1,5.62449e-09,169)">
                <path d="M220.735,373.214C220.749,373.214 220.721,373.355 220.651,373.623C220.58,373.933 220.482,374.328 220.355,374.822C220.073,375.907 219.665,377.458 219.144,379.432C218.06,383.493 216.483,389.316 214.525,396.592L214.455,396.874L214.187,396.747C208.541,394.026 201.81,390.797 194.318,387.201L194.712,387.103C189.643,394.35 183.996,402.401 177.984,411.002L177.744,411.355L177.448,411.044C172.337,405.856 166.929,400.371 161.367,394.731C160.241,393.575 159.114,392.432 157.988,391.304L158.438,391.361C150.905,396.098 143.624,400.667 136.767,404.967L136.457,405.165L136.274,404.84C132.092,397.438 128.163,390.501 124.586,384.184L124.952,384.325C116.391,387.272 108.857,389.88 102.675,392.009L102.464,392.08L102.393,391.868C100.281,385.735 98.605,380.885 97.451,377.515C96.902,375.879 96.479,374.61 96.169,373.694C96.043,373.285 95.93,372.96 95.86,372.707C95.789,372.481 95.761,372.368 95.775,372.368C95.789,372.368 95.831,372.467 95.916,372.692C96.014,372.946 96.141,373.256 96.282,373.665C96.606,374.568 97.071,375.823 97.676,377.444C98.887,380.8 100.619,385.636 102.816,391.727L102.534,391.586C108.702,389.415 116.207,386.764 124.755,383.747L124.994,383.662L125.121,383.888C128.726,390.205 132.669,397.114 136.879,404.502L136.386,404.375C143.244,400.061 150.51,395.478 158.044,390.74L158.297,390.585L158.509,390.797C159.621,391.925 160.748,393.081 161.888,394.223C167.45,399.877 172.844,405.362 177.955,410.551L177.406,410.593C183.447,402.02 189.122,393.983 194.22,386.75L194.375,386.539L194.614,386.651C202.077,390.289 208.78,393.575 214.413,396.324L214.075,396.479C216.117,389.232 217.764,383.423 218.905,379.376C219.468,377.416 219.919,375.879 220.228,374.793C220.383,374.3 220.496,373.919 220.594,373.609C220.679,373.341 220.721,373.2 220.735,373.214Z" style="fill:rgb(245,245,245);fill-rule:nonzero;"/>
            </g>
            <g transform="matrix(1,0,0,1,5.62449e-09,169)">
                <path d="M206.541,274.839C200.909,275.473 195.051,273.612 190.798,269.862C195.924,272.456 202.767,268.903 204.57,263.432C206.372,257.975 204.894,247.809 200.416,244.2C196.149,240.773 190.249,239.462 184.968,240.872C179.688,242.282 174.097,250.333 172.365,255.522L172.464,255.677C171.647,255.353 170.83,255.057 170.014,254.775C164.17,252.815 157.917,251.856 151.792,252.561C145.666,253.266 139.668,255.705 135.133,259.907L170.943,317.534C177.449,316.955 183.208,312.57 186.616,306.987C190.024,301.417 191.333,294.776 191.657,288.248C191.741,286.612 191.727,284.948 191.671,283.299C195.515,283.919 199.346,284.54 203.19,285.146C201.134,282.382 198.515,280.028 195.529,278.293C199.388,279.802 204.19,278.293 206.541,274.839Z" style="fill:rgb(38,50,56);fill-rule:nonzero;"/>
            </g>
            <g transform="matrix(1,0,0,1,5.62449e-09,169)">
                <path d="M161.269,364.289C170.985,364.078 178.772,356.196 178.885,346.467L179.716,274.768C179.772,271.807 177.561,269.298 174.618,268.987L144.371,261.331C134.683,260.302 128.247,272.244 127.628,281.973C126.952,292.788 126.543,306.014 127.825,314.079C130.402,330.308 142.822,332.367 142.822,332.367C142.822,332.324 142.836,338.641 142.864,346.34C142.92,356.421 151.214,364.501 161.269,364.289Z" style="fill:rgb(255,190,157);fill-rule:nonzero;"/>
            </g>
            <g transform="matrix(1,0,0,1,5.62449e-09,169)">
                <path d="M133.936,292.478C133.894,293.578 134.795,294.522 135.936,294.579C137.077,294.635 138.034,293.803 138.077,292.703C138.119,291.604 137.218,290.659 136.077,290.602C134.922,290.532 133.965,291.378 133.936,292.478Z" style="fill:rgb(38,50,56);fill-rule:nonzero;"/>
            </g>
            <g transform="matrix(1,0,0,1,5.62449e-09,169)">
                <path d="M130.515,288.854C130.768,289.122 132.345,287.966 134.584,287.966C136.823,287.938 138.457,289.094 138.696,288.812C138.809,288.685 138.555,288.206 137.837,287.684C137.133,287.162 135.936,286.655 134.542,286.669C133.148,286.683 131.979,287.19 131.303,287.712C130.613,288.248 130.388,288.741 130.515,288.854Z" style="fill:rgb(38,50,56);fill-rule:nonzero;"/>
            </g>
            <g transform="matrix(1,0,0,1,5.62449e-09,169)">
                <path d="M155.199,292.478C155.157,293.578 156.058,294.523 157.199,294.579C158.339,294.635 159.297,293.803 159.339,292.704C159.381,291.604 158.48,290.659 157.34,290.603C156.199,290.532 155.241,291.378 155.199,292.478Z" style="fill:rgb(38,50,56);fill-rule:nonzero;"/>
            </g>
            <g transform="matrix(1,0,0,1,5.62449e-09,169)">
                <path d="M152.496,289.277C152.749,289.545 154.326,288.389 156.565,288.389C158.804,288.361 160.438,289.517 160.677,289.235C160.79,289.108 160.536,288.629 159.818,288.107C159.114,287.585 157.917,287.078 156.523,287.092C155.129,287.106 153.96,287.614 153.284,288.135C152.594,288.657 152.369,289.15 152.496,289.277Z" style="fill:rgb(38,50,56);fill-rule:nonzero;"/>
            </g>
            <g transform="matrix(1,0,0,1,5.62449e-09,169)">
                <path d="M144.371,305.887C144.385,305.76 142.991,305.521 140.738,305.224C140.16,305.168 139.625,305.055 139.527,304.66C139.386,304.252 139.625,303.631 139.907,302.968C140.442,301.587 141.005,300.134 141.597,298.612C143.948,292.408 145.638,287.317 145.385,287.219C145.131,287.12 143.033,292.069 140.681,298.273C140.118,299.796 139.583,301.262 139.062,302.658C138.851,303.307 138.47,304.04 138.766,304.9C138.921,305.323 139.343,305.633 139.71,305.732C140.076,305.845 140.4,305.845 140.681,305.873C142.962,306 144.371,306.014 144.371,305.887Z" style="fill:rgb(38,50,56);fill-rule:nonzero;"/>
            </g>
            <g transform="matrix(1,0,0,1,5.62449e-09,169)">
                <path d="M142.836,332.381C142.836,332.381 153.735,333.086 164.536,326.586C164.536,326.586 159.269,337.725 143.061,336.216L142.836,332.381Z" style="fill:rgb(235,153,110);fill-rule:nonzero;"/>
            </g>
            <g transform="matrix(1,0,0,1,5.62449e-09,169)">
                <path d="M145.328,311.273C146.131,310.202 147.539,309.623 148.947,309.779C149.919,309.877 150.904,310.357 151.482,311.146C152.073,311.936 152.2,313.064 151.665,313.811C151.059,314.657 149.806,314.855 148.736,314.558C147.666,314.248 146.75,313.557 145.877,312.852C145.638,312.655 145.384,312.458 145.244,312.19C145.089,311.922 145.061,311.583 145.244,311.358" style="fill:rgb(235,153,110);fill-rule:nonzero;"/>
            </g>
            <g transform="matrix(1,0,0,1,5.62449e-09,169)">
                <path d="M150.961,307.424C150.595,307.41 150.595,309.835 148.511,311.555C146.441,313.289 143.85,313.007 143.836,313.346C143.808,313.501 144.413,313.811 145.498,313.853C146.568,313.896 148.131,313.543 149.398,312.486C150.665,311.428 151.215,310.018 151.299,309.017C151.398,308.016 151.13,307.41 150.961,307.424Z" style="fill:rgb(38,50,56);fill-rule:nonzero;"/>
            </g>
            <g transform="matrix(1,0,0,1,5.62449e-09,169)">
                <path d="M151.482,285.358C151.708,285.964 153.932,285.682 156.552,285.992C159.185,286.26 161.297,287.021 161.649,286.486C161.804,286.218 161.438,285.654 160.579,285.061C159.734,284.469 158.382,283.919 156.805,283.736C155.228,283.567 153.792,283.821 152.834,284.201C151.876,284.582 151.398,285.061 151.482,285.358Z" style="fill:rgb(38,50,56);fill-rule:nonzero;"/>
            </g>
            <g transform="matrix(1,0,0,1,5.62449e-09,169)">
                <path d="M130.824,284.723C131.218,285.231 132.753,284.709 134.612,284.681C136.457,284.596 138.034,285.019 138.4,284.497C138.555,284.244 138.316,283.736 137.626,283.242C136.95,282.763 135.823,282.368 134.542,282.411C133.274,282.453 132.162,282.918 131.528,283.44C130.866,283.962 130.655,284.483 130.824,284.723Z" style="fill:rgb(38,50,56);fill-rule:nonzero;"/>
            </g>
            <g transform="matrix(1,0,0,1,5.62449e-09,169)">
                <path d="M177.927,294.931C179.153,294.085 180.87,294.396 182.166,295.143C185.137,296.863 186.63,300.811 185.517,304.068C184.419,307.325 180.842,309.553 177.435,309.102" style="fill:rgb(255,190,157);fill-rule:nonzero;"/>
            </g>
            <g transform="matrix(1,0,0,1,5.62449e-09,169)">
                <path d="M179.068,304.279C179.11,304.167 179.702,304.42 180.476,304.054C181.251,303.744 181.941,302.602 181.87,301.276C181.828,299.937 180.955,298.964 180.138,298.668C179.321,298.329 178.73,298.498 178.702,298.372C178.646,298.287 179.251,297.864 180.321,298.104C180.842,298.231 181.434,298.527 181.898,299.091C182.363,299.641 182.659,300.416 182.701,301.22C182.814,302.855 181.786,304.336 180.673,304.59C179.575,304.9 178.983,304.336 179.068,304.279Z" style="fill:rgb(235,153,110);fill-rule:nonzero;"/>
            </g>
            <g transform="matrix(1,0,0,1,5.62449e-09,169)">
                <path d="M183.49,307.551C183.504,307.522 183.771,307.706 184.236,308.072C184.771,308.509 185.433,309.059 186.222,309.694C188.01,311.217 190.39,313.247 193.22,315.644L193.46,315.841L193.263,316.081C190.657,319.211 187.757,323.131 184.504,327.22C183.771,328.151 183.025,329.053 182.307,329.899L181.701,330.604L181.659,329.674C181.364,323.061 181.138,317.223 181.011,313.021C180.969,311.019 180.927,309.37 180.899,308.072C180.885,306.916 180.899,306.268 180.941,306.268C180.983,306.268 181.068,306.902 181.152,308.058C181.237,309.341 181.349,311.005 181.49,312.993C181.744,317.181 182.068,323.032 182.377,329.631L181.744,329.406C182.434,328.56 183.18,327.657 183.912,326.741C187.165,322.666 190.094,318.76 192.77,315.658L192.812,316.095C190.066,313.614 187.743,311.527 185.982,309.948C185.236,309.257 184.616,308.679 184.109,308.199C183.687,307.819 183.476,307.579 183.49,307.551Z" style="fill:rgb(69,90,100);fill-rule:nonzero;"/>
            </g>
            <g transform="matrix(1,0,0,1,5.62449e-09,169)">
                <path d="M150.722,254.239C146.751,254.408 142.766,254.577 138.907,255.536C135.049,256.495 131.317,258.314 128.698,261.289C126.079,264.278 124.741,268.55 125.882,272.357C127.008,276.164 130.923,279.153 134.852,278.618C137.837,278.223 140.696,276.009 143.582,276.883C146.3,277.715 147.807,281.043 150.609,281.565C153.369,282.072 155.833,279.591 158.636,279.351C161.72,279.083 164.409,281.621 165.775,284.399C167.155,287.176 167.676,290.321 169.056,293.112C169.943,294.889 171.309,296.595 173.224,297.089C174.984,297.54 176.9,296.863 178.28,295.665C179.645,294.466 180.547,292.816 181.237,291.124C184.152,283.947 183.518,275.431 179.575,268.776C175.632,262.121 168.465,257.468 160.79,256.593" style="fill:rgb(38,50,56);fill-rule:nonzero;"/>
            </g>
            <g transform="matrix(1,0,0,1,5.62449e-09,169)">
                <path d="M190.207,271.469C190.08,271.511 189.7,270.158 188.714,268.17C187.728,266.182 186.01,263.601 183.504,261.331C180.983,259.061 178.252,257.609 176.182,256.833C174.112,256.044 172.732,255.804 172.76,255.677C172.774,255.621 173.112,255.649 173.745,255.733C174.379,255.804 175.28,256.001 176.365,256.354C178.533,257.031 181.406,258.455 184.011,260.795C186.602,263.15 188.32,265.871 189.207,267.958C189.658,269.002 189.953,269.876 190.08,270.496C190.193,271.102 190.249,271.455 190.207,271.469Z" style="fill:rgb(7,155,171);fill-rule:nonzero;"/>
            </g>
            <g transform="matrix(1,0,0,1,5.62449e-09,169)">
                <path d="M202.599,247.697C202.528,247.824 201.176,246.935 198.698,246.484C196.248,246.019 192.629,246.202 189.193,247.922C185.757,249.642 183.335,252.293 181.842,254.324C180.335,256.368 179.631,257.792 179.533,257.736C179.491,257.722 179.617,257.341 179.913,256.678C180.209,256.03 180.702,255.099 181.42,254.013C182.828,251.87 185.264,249.064 188.855,247.26C192.46,245.455 196.276,245.356 198.782,245.976C200.05,246.273 201.036,246.696 201.655,247.048C202.317,247.415 202.627,247.668 202.599,247.697Z" style="fill:rgb(69,90,100);fill-rule:nonzero;"/>
            </g>
            <g transform="matrix(1,0,0,1,5.62449e-09,169)">
                <path d="M187.024,266.76C187.109,266.76 187.235,268.029 187.052,270.101C186.869,272.16 186.278,274.994 185.025,277.899C183.771,280.803 182.11,283.186 180.744,284.737C179.378,286.288 178.364,287.078 178.308,287.007C178.11,286.852 181.927,283.341 184.349,277.617C186.841,271.906 186.771,266.731 187.024,266.76Z" style="fill:rgb(69,90,100);fill-rule:nonzero;"/>
            </g>
            <g transform="matrix(1,0,0,1,5.62449e-09,169)">
                <path d="M187.489,267.112C187.531,267.098 187.672,267.422 187.883,268.043C188.108,268.649 188.334,269.565 188.517,270.722C188.897,273.006 188.953,276.291 188.08,279.76C187.193,283.228 185.602,286.091 184.18,287.924C183.475,288.84 182.842,289.545 182.349,289.982C181.87,290.419 181.589,290.645 181.56,290.617C181.462,290.518 182.476,289.517 183.757,287.627C185.039,285.752 186.517,282.946 187.376,279.591C188.221,276.221 188.263,273.048 188.01,270.792C187.77,268.522 187.362,267.14 187.489,267.112Z" style="fill:rgb(69,90,100);fill-rule:nonzero;"/>
            </g>
            <g transform="matrix(1,0,0,1,5.62449e-09,169)">
                <path d="M727,579C727,764.568 79.542,571.248 118,376C144,244 266,286.568 266,101C266,-84.568 173.432,-169 359,-169C544.568,-169 727,393.432 727,579Z" style="fill:rgb(1,84,104);fill-rule:nonzero;"/>
            </g>
            <g transform="matrix(1,0,0,1,5.62449e-09,169)">
                <ellipse cx="137.498" cy="366.477" rx="126" ry="126.164" style="fill:rgb(1,84,104);fill-opacity:0.13;"/>
            </g>
            <g transform="matrix(1,0,0,1,5.62449e-09,169)">
                <path d="M278.386,486.564L173.534,480.134C172.872,478.626 172.436,477.751 172.436,477.751L144.019,478.315L134.767,477.751C134.767,477.751 134.626,478.033 134.401,478.513L39.012,480.416C19.988,480.416 0.006,492.035 0.006,506.882C-0.233,521.01 6.596,536.351 23.635,535.998L153.594,535.561L283.554,535.998C300.592,536.351 305.099,526.058 305.127,513.847C307.14,491.118 292.918,486.747 278.386,486.564Z" style="fill:rgb(69,90,100);fill-rule:nonzero;"/>
            </g>
            <g transform="matrix(1,0,0,1,5.62449e-09,169)">
                <path d="M35.576,535.999C35.576,535.999 35.787,535.97 36.196,535.956C36.646,535.942 37.252,535.942 38.026,535.928C39.674,535.914 42.054,535.886 45.109,535.858C51.291,535.829 60.219,535.787 71.259,535.745C93.438,535.717 124.164,535.674 158.523,535.632L158.157,536.027C157.974,533.179 157.791,530.119 157.593,527.045C157.199,520.757 156.819,514.553 156.453,508.673L156.777,509.011C124.854,505.458 96.648,502.314 76.385,500.058C66.302,498.902 58.191,497.971 52.559,497.322C49.785,496.984 47.644,496.73 46.137,496.547C45.433,496.448 44.884,496.378 44.476,496.335C44.096,496.279 43.913,496.251 43.913,496.237C43.913,496.223 44.11,496.237 44.476,496.265C44.884,496.307 45.433,496.35 46.137,496.42C47.644,496.575 49.799,496.787 52.573,497.069C58.205,497.661 66.316,498.521 76.413,499.578C96.676,501.778 124.896,504.838 156.833,508.292L157.143,508.32L157.157,508.631C157.523,514.524 157.917,520.714 158.312,527.003C158.509,530.077 158.692,533.136 158.875,535.985L158.903,536.379L158.509,536.379C124.135,536.337 93.409,536.295 71.245,536.267C60.191,536.224 51.277,536.182 45.095,536.154C42.04,536.126 39.66,536.097 38.012,536.083C37.224,536.069 36.618,536.055 36.182,536.055C35.787,536.027 35.576,535.999 35.576,535.999Z" style="fill:rgb(38,50,56);fill-rule:nonzero;"/>
            </g>
            <g transform="matrix(1,0,0,1,5.62449e-09,169)">
                <path d="M62.374,498.676C62.289,498.774 60.994,497.717 58.698,496.321C56.417,494.925 53.08,493.261 49.151,492.119C45.222,490.991 41.519,490.625 38.829,490.596C36.154,490.568 34.478,490.766 34.464,490.639C34.464,490.582 34.872,490.498 35.619,490.371C36.365,490.23 37.463,490.131 38.829,490.075C41.547,489.962 45.349,490.258 49.348,491.414C53.347,492.57 56.727,494.347 58.966,495.884C60.092,496.645 60.966,497.322 61.529,497.83C62.106,498.337 62.402,498.633 62.374,498.676Z" style="fill:rgb(38,50,56);fill-rule:nonzero;"/>
            </g>
            <g transform="matrix(1,0,0,1,5.62449e-09,169)">
                <path d="M270.247,493.092C270.289,493.29 249.617,498.295 224.059,504.274C198.501,510.252 177.744,514.933 177.702,514.736C177.66,514.539 198.332,509.533 223.89,503.555C249.448,497.576 270.204,492.895 270.247,493.092Z" style="fill:rgb(38,50,56);fill-rule:nonzero;"/>
            </g>
            <g transform="matrix(1,0,0,1,5.62449e-09,169)">
                <path d="M252.771,491.062C252.842,491.287 248.772,492.105 244.674,494.953C240.534,497.745 238.281,501.228 238.084,501.073C238.014,501.03 238.464,500.1 239.492,498.775C240.506,497.449 242.14,495.785 244.252,494.347C246.364,492.909 248.519,492.007 250.124,491.541C251.715,491.062 252.757,490.977 252.771,491.062Z" style="fill:rgb(38,50,56);fill-rule:nonzero;"/>
            </g>
            <g transform="matrix(1,0,0,1,5.62449e-09,169)">
                <path d="M213.737,371.875L246.942,429.755C251.039,436.904 251.293,445.632 247.617,453.006C243.351,461.565 234.507,466.867 224.96,466.599L173.971,465.16L172.633,446.591L217.539,437.976L187.264,385.496L213.737,371.875Z" style="fill:rgb(255,190,157);fill-rule:nonzero;"/>
            </g>
            <g transform="matrix(1,0,0,1,5.62449e-09,169)">
                <path d="M89.959,470.927L136.851,483.364L137.865,469.278L94.649,444.151L126.205,385.496L99.732,371.875L66.528,429.755C58.487,444.701 65.992,463.299 82.158,468.446L89.959,470.927Z" style="fill:rgb(255,190,157);fill-rule:nonzero;"/>
            </g>
            <g transform="matrix(1,0,0,1,5.62449e-09,169)">
                <path d="M199.641,409.042L231.691,392.136C231.691,392.136 226.354,380.828 217.961,369.21C208.034,355.462 192.643,345.846 175.153,342.194L138.288,342.631C133.035,343.195 128.726,344.197 125.135,345.663L125.164,345.522C105.154,349.935 82.961,393.631 82.961,393.631L112.124,409L112.772,413.597C113.617,419.646 116.264,425.328 120.376,429.967L111.885,485.901L206.541,487.861L194.487,447.803L199.641,409.042Z" style="fill:rgb(254,173,84);fill-rule:nonzero;"/>
            </g>
            <g transform="matrix(1,0,0,1,5.62449e-09,169)">
                <path d="M121.235,430.277C121.207,430.305 120.686,429.953 119.827,429.206C118.968,428.458 117.799,427.274 116.602,425.596C114.222,422.282 112.096,416.671 112.645,410.34C113.096,407.224 113.983,404.39 114.814,401.837C115.658,399.285 116.517,397.029 117.278,395.14C118.024,393.251 118.672,391.742 119.151,390.713C119.615,389.683 119.911,389.119 119.953,389.147C119.996,389.162 119.799,389.768 119.404,390.825C118.968,392.024 118.418,393.533 117.757,395.323C117.067,397.227 116.264,399.497 115.461,402.049C114.673,404.587 113.814,407.421 113.377,410.438C113.096,413.428 113.49,416.403 114.18,418.927C114.856,421.479 115.954,423.622 117.038,425.314C119.263,428.656 121.347,430.15 121.235,430.277Z" style="fill:rgb(38,50,56);fill-rule:nonzero;"/>
            </g>
            <g transform="matrix(1,0,0,1,5.62449e-09,169)">
                <path d="M107.041,499.409L101.704,437.017L217.004,437.017L209.358,500.185L107.041,499.409Z" style="fill:rgb(38,50,56);fill-rule:nonzero;"/>
            </g>
            <g transform="matrix(1,0,0,1,5.62449e-09,169)">
                <path d="M166.69,470.293C166.69,474.353 163.409,477.639 159.354,477.639C155.298,477.639 152.017,474.353 152.017,470.293C152.017,466.232 155.298,462.947 159.354,462.947C163.409,462.932 166.69,466.232 166.69,470.293Z" style="fill:rgb(250,250,250);fill-rule:nonzero;"/>
            </g>
            <g transform="matrix(1,0,0,1,5.62449e-09,169)">
                <path d="M157.326,511.591L176.914,514.327L176.914,535.632L158.903,535.166L157.326,511.591Z" style="fill:rgb(255,190,157);fill-rule:nonzero;"/>
            </g>
            <g transform="matrix(1,0,0,1,5.62449e-09,169)">
                <path d="M176.899,514.327L185.715,514.327C187.432,514.327 189.108,514.778 190.587,515.638L195.234,518.317C196.755,519.191 201.669,521.659 203.345,522.194C208.696,523.915 217.694,526.241 219.595,527.693C225.002,531.881 223.369,536.816 220.383,537.338C217.764,537.789 176.899,535.632 176.899,535.632L176.899,514.327Z" style="fill:rgb(254,173,84);fill-rule:nonzero;"/>
            </g>
            <g transform="matrix(1,0,0,1,5.62449e-09,169)">
                <path d="M191.361,533.883C191.178,533.925 190.502,531.472 190.418,528.342C190.319,525.212 190.84,522.73 191.037,522.758C191.248,522.786 191.051,525.268 191.15,528.328C191.234,531.373 191.572,533.841 191.361,533.883Z" style="fill:rgb(38,50,56);fill-rule:nonzero;"/>
            </g>
            <g transform="matrix(1,0,0,1,5.62449e-09,169)">
                <path d="M195.543,533.756C195.346,533.756 195.191,531.472 195.219,528.666C195.247,525.86 195.43,523.576 195.628,523.59C195.825,523.59 195.98,525.875 195.951,528.68C195.923,531.486 195.74,533.756 195.543,533.756Z" style="fill:rgb(38,50,56);fill-rule:nonzero;"/>
            </g>
            <g transform="matrix(1,0,0,1,5.62449e-09,169)">
                <path d="M200.472,534.602C200.275,534.616 199.923,532.29 199.697,529.385C199.472,526.495 199.458,524.126 199.655,524.112C199.852,524.098 200.204,526.424 200.43,529.329C200.655,532.233 200.683,534.588 200.472,534.602Z" style="fill:rgb(38,50,56);fill-rule:nonzero;"/>
            </g>
            <g transform="matrix(1,0,0,1,5.62449e-09,169)">
                <path d="M187.559,528.201C187.545,528.243 186.883,528.102 185.757,527.637C184.63,527.158 183.039,526.34 181.363,524.916C180.941,524.563 180.518,524.168 180.11,523.731C179.702,523.294 179.251,522.801 178.983,522.138C178.716,521.475 178.716,520.615 179.223,519.953C179.476,519.614 179.899,519.403 180.321,519.346C180.744,519.29 181.138,519.36 181.504,519.487C184.363,520.46 186.813,523.266 187.263,526.721C187.7,530.217 185.827,533.46 183.349,535.096C182.729,535.505 182.081,535.871 181.335,535.998C180.969,536.069 180.575,536.069 180.18,535.942C179.786,535.815 179.462,535.519 179.293,535.152C178.955,534.377 179.251,533.658 179.547,533.122C179.857,532.558 180.293,532.149 180.673,531.754C182.264,530.217 183.87,529.371 184.996,528.92C186.137,528.469 186.813,528.37 186.813,528.398C186.827,528.455 186.193,528.652 185.109,529.174C184.039,529.696 182.518,530.584 181.039,532.121C180.673,532.516 180.293,532.91 180.04,533.39C179.786,533.855 179.617,534.447 179.828,534.87C180.04,535.322 180.603,535.477 181.208,535.336C181.8,535.223 182.391,534.884 182.969,534.504C185.222,532.981 186.925,529.949 186.531,526.777C186.137,523.619 183.856,520.996 181.307,520.094C180.687,519.882 180.054,519.91 179.73,520.319C179.392,520.728 179.35,521.377 179.547,521.884C179.983,522.942 180.955,523.76 181.701,524.479C184.926,527.369 187.644,528.06 187.559,528.201Z" style="fill:rgb(38,50,56);fill-rule:nonzero;"/>
            </g>
            <g transform="matrix(1,0,0,1,5.62449e-09,169)">
                <path d="M220.384,537.338C220.327,537.268 220.961,536.986 221.454,535.999C221.947,535.026 221.848,533.277 220.877,531.557C219.919,529.823 217.933,528.328 215.441,527.454C212.949,526.552 209.977,526.129 206.992,525.184C200.979,523.393 195.896,520.757 192.446,518.543C190.714,517.443 189.39,516.456 188.489,515.751C187.602,515.032 187.123,514.609 187.151,514.567C187.179,514.524 187.714,514.877 188.658,515.511C189.601,516.146 190.981,517.062 192.727,518.092C196.22,520.164 201.275,522.688 207.203,524.465C210.146,525.381 213.089,525.833 215.68,526.791C218.257,527.736 220.355,529.372 221.341,531.275C222.327,533.136 222.355,535.054 221.721,536.097C221.426,536.619 221.06,536.929 220.82,537.098C220.539,537.296 220.398,537.366 220.384,537.338Z" style="fill:rgb(38,50,56);fill-rule:nonzero;"/>
            </g>
            <g transform="matrix(1,0,0,1,5.62449e-09,169)">
                <path d="M207.062,357.507C207.076,357.507 207.076,357.605 207.062,357.803C207.048,358.043 207.02,358.325 206.992,358.677C206.921,359.495 206.809,360.637 206.682,362.089C206.372,365.121 205.95,369.449 205.4,374.892L205.372,375.216L205.077,375.061C200.359,372.58 194.6,369.534 188.08,366.108L188.488,365.995C185.686,370.733 182.574,375.992 179.251,381.59L179.054,381.928L178.744,381.688C173.886,377.952 168.633,373.933 163.198,369.746L163.648,369.746C161.494,371.438 159.199,373.242 156.875,375.061C153.735,377.515 150.651,379.94 147.638,382.295L147.3,382.562L147.088,382.182C144.019,376.499 141.076,371.043 138.287,365.896L138.724,366.051C131.951,369.069 125.684,371.875 120.066,374.37L119.728,374.525L119.672,374.159C118.587,367.757 117.644,362.188 116.855,357.549L117.137,357.704C112.589,359.438 108.984,360.82 106.463,361.779C105.252,362.23 104.309,362.583 103.619,362.837C103.323,362.935 103.083,363.02 102.886,363.09C102.717,363.147 102.633,363.175 102.633,363.161C102.633,363.147 102.703,363.104 102.872,363.034C103.069,362.949 103.295,362.851 103.59,362.724C104.266,362.442 105.196,362.061 106.393,361.568C108.899,360.566 112.49,359.114 116.996,357.309L117.235,357.211L117.278,357.464C118.109,362.103 119.108,367.659 120.249,374.046L119.841,373.849C125.431,371.311 131.683,368.491 138.456,365.431L138.738,365.304L138.893,365.586C141.681,370.733 144.652,376.189 147.722,381.857L147.173,381.745C150.186,379.376 153.27,376.965 156.396,374.497C158.72,372.678 161.015,370.874 163.17,369.182L163.395,369.012L163.62,369.182C169.056,373.369 174.294,377.416 179.138,381.152L178.631,381.251C181.969,375.668 185.109,370.422 187.939,365.699L188.094,365.445L188.348,365.586C194.839,369.069 200.57,372.157 205.274,374.681L204.95,374.85C205.584,369.421 206.09,365.093 206.443,362.075C206.626,360.637 206.766,359.495 206.865,358.677C206.921,358.325 206.964,358.043 206.992,357.803C207.02,357.605 207.048,357.507 207.062,357.507Z" style="fill:rgb(245,245,245);fill-rule:nonzero;"/>
            </g>
            <g transform="matrix(1,0,0,1,5.62449e-09,169)">
                <path d="M220.735,373.214C220.749,373.214 220.721,373.355 220.651,373.623C220.58,373.933 220.482,374.328 220.355,374.822C220.073,375.907 219.665,377.458 219.144,379.432C218.06,383.493 216.483,389.316 214.525,396.592L214.455,396.874L214.187,396.747C208.541,394.026 201.81,390.797 194.318,387.201L194.712,387.103C189.643,394.35 183.996,402.401 177.984,411.002L177.744,411.355L177.448,411.044C172.337,405.856 166.929,400.371 161.367,394.731C160.241,393.575 159.114,392.432 157.988,391.304L158.438,391.361C150.905,396.098 143.624,400.667 136.767,404.967L136.457,405.165L136.274,404.84C132.092,397.438 128.163,390.501 124.586,384.184L124.952,384.325C116.391,387.272 108.857,389.88 102.675,392.009L102.464,392.08L102.393,391.868C100.281,385.735 98.605,380.885 97.451,377.515C96.902,375.879 96.479,374.61 96.169,373.694C96.043,373.285 95.93,372.96 95.86,372.707C95.789,372.481 95.761,372.368 95.775,372.368C95.789,372.368 95.831,372.467 95.916,372.692C96.014,372.946 96.141,373.256 96.282,373.665C96.606,374.568 97.071,375.823 97.676,377.444C98.887,380.8 100.619,385.636 102.816,391.727L102.534,391.586C108.702,389.415 116.207,386.764 124.755,383.747L124.994,383.662L125.121,383.888C128.726,390.205 132.669,397.114 136.879,404.502L136.386,404.375C143.244,400.061 150.51,395.478 158.044,390.74L158.297,390.585L158.509,390.797C159.621,391.925 160.748,393.081 161.888,394.223C167.45,399.877 172.844,405.362 177.955,410.551L177.406,410.593C183.447,402.02 189.122,393.983 194.22,386.75L194.375,386.539L194.614,386.651C202.077,390.289 208.78,393.575 214.413,396.324L214.075,396.479C216.117,389.232 217.764,383.423 218.905,379.376C219.468,377.416 219.919,375.879 220.228,374.793C220.383,374.3 220.496,373.919 220.594,373.609C220.679,373.341 220.721,373.2 220.735,373.214Z" style="fill:rgb(245,245,245);fill-rule:nonzero;"/>
            </g>
            <g transform="matrix(1,0,0,1,5.62449e-09,169)">
                <path d="M206.541,274.839C200.909,275.473 195.051,273.612 190.798,269.862C195.924,272.456 202.767,268.903 204.57,263.432C206.372,257.975 204.894,247.809 200.416,244.2C196.149,240.773 190.249,239.462 184.968,240.872C179.688,242.282 174.097,250.333 172.365,255.522L172.464,255.677C171.647,255.353 170.83,255.057 170.014,254.775C164.17,252.815 157.917,251.856 151.792,252.561C145.666,253.266 139.668,255.705 135.133,259.907L170.943,317.534C177.449,316.955 183.208,312.57 186.616,306.987C190.024,301.417 191.333,294.776 191.657,288.248C191.741,286.612 191.727,284.948 191.671,283.299C195.515,283.919 199.346,284.54 203.19,285.146C201.134,282.382 198.515,280.028 195.529,278.293C199.388,279.802 204.19,278.293 206.541,274.839Z" style="fill:rgb(38,50,56);fill-rule:nonzero;"/>
            </g>
            <g transform="matrix(1,0,0,1,5.62449e-09,169)">
                <path d="M161.269,364.289C170.985,364.078 178.772,356.196 178.885,346.467L179.716,274.768C179.772,271.807 177.561,269.298 174.618,268.987L144.371,261.331C134.683,260.302 128.247,272.244 127.628,281.973C126.952,292.788 126.543,306.014 127.825,314.079C130.402,330.308 142.822,332.367 142.822,332.367C142.822,332.324 142.836,338.641 142.864,346.34C142.92,356.421 151.214,364.501 161.269,364.289Z" style="fill:rgb(255,190,157);fill-rule:nonzero;"/>
            </g>
            <g transform="matrix(1,0,0,1,5.62449e-09,169)">
                <path d="M133.936,292.478C133.894,293.578 134.795,294.522 135.936,294.579C137.077,294.635 138.034,293.803 138.077,292.703C138.119,291.604 137.218,290.659 136.077,290.602C134.922,290.532 133.965,291.378 133.936,292.478Z" style="fill:rgb(38,50,56);fill-rule:nonzero;"/>
            </g>
            <g transform="matrix(1,0,0,1,5.62449e-09,169)">
                <path d="M130.515,288.854C130.768,289.122 132.345,287.966 134.584,287.966C136.823,287.938 138.457,289.094 138.696,288.812C138.809,288.685 138.555,288.206 137.837,287.684C137.133,287.162 135.936,286.655 134.542,286.669C133.148,286.683 131.979,287.19 131.303,287.712C130.613,288.248 130.388,288.741 130.515,288.854Z" style="fill:rgb(38,50,56);fill-rule:nonzero;"/>
            </g>
            <g transform="matrix(1,0,0,1,5.62449e-09,169)">
                <path d="M155.199,292.478C155.157,293.578 156.058,294.523 157.199,294.579C158.339,294.635 159.297,293.803 159.339,292.704C159.381,291.604 158.48,290.659 157.34,290.603C156.199,290.532 155.241,291.378 155.199,292.478Z" style="fill:rgb(38,50,56);fill-rule:nonzero;"/>
            </g>
            <g transform="matrix(1,0,0,1,5.62449e-09,169)">
                <path d="M152.496,289.277C152.749,289.545 154.326,288.389 156.565,288.389C158.804,288.361 160.438,289.517 160.677,289.235C160.79,289.108 160.536,288.629 159.818,288.107C159.114,287.585 157.917,287.078 156.523,287.092C155.129,287.106 153.96,287.614 153.284,288.135C152.594,288.657 152.369,289.15 152.496,289.277Z" style="fill:rgb(38,50,56);fill-rule:nonzero;"/>
            </g>
            <g transform="matrix(1,0,0,1,5.62449e-09,169)">
                <path d="M144.371,305.887C144.385,305.76 142.991,305.521 140.738,305.224C140.16,305.168 139.625,305.055 139.527,304.66C139.386,304.252 139.625,303.631 139.907,302.968C140.442,301.587 141.005,300.134 141.597,298.612C143.948,292.408 145.638,287.317 145.385,287.219C145.131,287.12 143.033,292.069 140.681,298.273C140.118,299.796 139.583,301.262 139.062,302.658C138.851,303.307 138.47,304.04 138.766,304.9C138.921,305.323 139.343,305.633 139.71,305.732C140.076,305.845 140.4,305.845 140.681,305.873C142.962,306 144.371,306.014 144.371,305.887Z" style="fill:rgb(38,50,56);fill-rule:nonzero;"/>
            </g>
            <g transform="matrix(1,0,0,1,5.62449e-09,169)">
                <path d="M142.836,332.381C142.836,332.381 153.735,333.086 164.536,326.586C164.536,326.586 159.269,337.725 143.061,336.216L142.836,332.381Z" style="fill:rgb(235,153,110);fill-rule:nonzero;"/>
            </g>
            <g transform="matrix(1,0,0,1,5.62449e-09,169)">
                <path d="M145.328,311.273C146.131,310.202 147.539,309.623 148.947,309.779C149.919,309.877 150.904,310.357 151.482,311.146C152.073,311.936 152.2,313.064 151.665,313.811C151.059,314.657 149.806,314.855 148.736,314.558C147.666,314.248 146.75,313.557 145.877,312.852C145.638,312.655 145.384,312.458 145.244,312.19C145.089,311.922 145.061,311.583 145.244,311.358" style="fill:rgb(235,153,110);fill-rule:nonzero;"/>
            </g>
            <g transform="matrix(1,0,0,1,5.62449e-09,169)">
                <path d="M150.961,307.424C150.595,307.41 150.595,309.835 148.511,311.555C146.441,313.289 143.85,313.007 143.836,313.346C143.808,313.501 144.413,313.811 145.498,313.853C146.568,313.896 148.131,313.543 149.398,312.486C150.665,311.428 151.215,310.018 151.299,309.017C151.398,308.016 151.13,307.41 150.961,307.424Z" style="fill:rgb(38,50,56);fill-rule:nonzero;"/>
            </g>
            <g transform="matrix(1,0,0,1,5.62449e-09,169)">
                <path d="M151.482,285.358C151.708,285.964 153.932,285.682 156.552,285.992C159.185,286.26 161.297,287.021 161.649,286.486C161.804,286.218 161.438,285.654 160.579,285.061C159.734,284.469 158.382,283.919 156.805,283.736C155.228,283.567 153.792,283.821 152.834,284.201C151.876,284.582 151.398,285.061 151.482,285.358Z" style="fill:rgb(38,50,56);fill-rule:nonzero;"/>
            </g>
            <g transform="matrix(1,0,0,1,5.62449e-09,169)">
                <path d="M130.824,284.723C131.218,285.231 132.753,284.709 134.612,284.681C136.457,284.596 138.034,285.019 138.4,284.497C138.555,284.244 138.316,283.736 137.626,283.242C136.95,282.763 135.823,282.368 134.542,282.411C133.274,282.453 132.162,282.918 131.528,283.44C130.866,283.962 130.655,284.483 130.824,284.723Z" style="fill:rgb(38,50,56);fill-rule:nonzero;"/>
            </g>
            <g transform="matrix(1,0,0,1,5.62449e-09,169)">
                <path d="M177.927,294.931C179.153,294.085 180.87,294.396 182.166,295.143C185.137,296.863 186.63,300.811 185.517,304.068C184.419,307.325 180.842,309.553 177.435,309.102" style="fill:rgb(255,190,157);fill-rule:nonzero;"/>
            </g>
            <g transform="matrix(1,0,0,1,5.62449e-09,169)">
                <path d="M179.068,304.279C179.11,304.167 179.702,304.42 180.476,304.054C181.251,303.744 181.941,302.602 181.87,301.276C181.828,299.937 180.955,298.964 180.138,298.668C179.321,298.329 178.73,298.498 178.702,298.372C178.646,298.287 179.251,297.864 180.321,298.104C180.842,298.231 181.434,298.527 181.898,299.091C182.363,299.641 182.659,300.416 182.701,301.22C182.814,302.855 181.786,304.336 180.673,304.59C179.575,304.9 178.983,304.336 179.068,304.279Z" style="fill:rgb(235,153,110);fill-rule:nonzero;"/>
            </g>
            <g transform="matrix(1,0,0,1,5.62449e-09,169)">
                <path d="M183.49,307.551C183.504,307.522 183.771,307.706 184.236,308.072C184.771,308.509 185.433,309.059 186.222,309.694C188.01,311.217 190.39,313.247 193.22,315.644L193.46,315.841L193.263,316.081C190.657,319.211 187.757,323.131 184.504,327.22C183.771,328.151 183.025,329.053 182.307,329.899L181.701,330.604L181.659,329.674C181.364,323.061 181.138,317.223 181.011,313.021C180.969,311.019 180.927,309.37 180.899,308.072C180.885,306.916 180.899,306.268 180.941,306.268C180.983,306.268 181.068,306.902 181.152,308.058C181.237,309.341 181.349,311.005 181.49,312.993C181.744,317.181 182.068,323.032 182.377,329.631L181.744,329.406C182.434,328.56 183.18,327.657 183.912,326.741C187.165,322.666 190.094,318.76 192.77,315.658L192.812,316.095C190.066,313.614 187.743,311.527 185.982,309.948C185.236,309.257 184.616,308.679 184.109,308.199C183.687,307.819 183.476,307.579 183.49,307.551Z" style="fill:rgb(69,90,100);fill-rule:nonzero;"/>
            </g>
            <g transform="matrix(1,0,0,1,5.62449e-09,169)">
                <path d="M150.722,254.239C146.751,254.408 142.766,254.577 138.907,255.536C135.049,256.495 131.317,258.314 128.698,261.289C126.079,264.278 124.741,268.55 125.882,272.357C127.008,276.164 130.923,279.153 134.852,278.618C137.837,278.223 140.696,276.009 143.582,276.883C146.3,277.715 147.807,281.043 150.609,281.565C153.369,282.072 155.833,279.591 158.636,279.351C161.72,279.083 164.409,281.621 165.775,284.399C167.155,287.176 167.676,290.321 169.056,293.112C169.943,294.889 171.309,296.595 173.224,297.089C174.984,297.54 176.9,296.863 178.28,295.665C179.645,294.466 180.547,292.816 181.237,291.124C184.152,283.947 183.518,275.431 179.575,268.776C175.632,262.121 168.465,257.468 160.79,256.593" style="fill:rgb(38,50,56);fill-rule:nonzero;"/>
            </g>
            <g transform="matrix(1,0,0,1,5.62449e-09,169)">
                <path d="M190.207,271.469C190.08,271.511 189.7,270.158 188.714,268.17C187.728,266.182 186.01,263.601 183.504,261.331C180.983,259.061 178.252,257.609 176.182,256.833C174.112,256.044 172.732,255.804 172.76,255.677C172.774,255.621 173.112,255.649 173.745,255.733C174.379,255.804 175.28,256.001 176.365,256.354C178.533,257.031 181.406,258.455 184.011,260.795C186.602,263.15 188.32,265.871 189.207,267.958C189.658,269.002 189.953,269.876 190.08,270.496C190.193,271.102 190.249,271.455 190.207,271.469Z" style="fill:rgb(7,155,171);fill-rule:nonzero;"/>
            </g>
            <g transform="matrix(1,0,0,1,5.62449e-09,169)">
                <path d="M202.599,247.697C202.528,247.824 201.176,246.935 198.698,246.484C196.248,246.019 192.629,246.202 189.193,247.922C185.757,249.642 183.335,252.293 181.842,254.324C180.335,256.368 179.631,257.792 179.533,257.736C179.491,257.722 179.617,257.341 179.913,256.678C180.209,256.03 180.702,255.099 181.42,254.013C182.828,251.87 185.264,249.064 188.855,247.26C192.46,245.455 196.276,245.356 198.782,245.976C200.05,246.273 201.036,246.696 201.655,247.048C202.317,247.415 202.627,247.668 202.599,247.697Z" style="fill:rgb(69,90,100);fill-rule:nonzero;"/>
            </g>
            <g transform="matrix(1,0,0,1,5.62449e-09,169)">
                <path d="M187.024,266.76C187.109,266.76 187.235,268.029 187.052,270.101C186.869,272.16 186.278,274.994 185.025,277.899C183.771,280.803 182.11,283.186 180.744,284.737C179.378,286.288 178.364,287.078 178.308,287.007C178.11,286.852 181.927,283.341 184.349,277.617C186.841,271.906 186.771,266.731 187.024,266.76Z" style="fill:rgb(69,90,100);fill-rule:nonzero;"/>
            </g>
            <g transform="matrix(1,0,0,1,5.62449e-09,169)">
                <path d="M187.489,267.112C187.531,267.098 187.672,267.422 187.883,268.043C188.108,268.649 188.334,269.565 188.517,270.722C188.897,273.006 188.953,276.291 188.08,279.76C187.193,283.228 185.602,286.091 184.18,287.924C183.475,288.84 182.842,289.545 182.349,289.982C181.87,290.419 181.589,290.645 181.56,290.617C181.462,290.518 182.476,289.517 183.757,287.627C185.039,285.752 186.517,282.946 187.376,279.591C188.221,276.221 188.263,273.048 188.01,270.792C187.77,268.522 187.362,267.14 187.489,267.112Z" style="fill:rgb(69,90,100);fill-rule:nonzero;"/>
            </g>
        </g>
    </g>
</svg>
