<?xml version="1.0" encoding="UTF-8" standalone="no"?>
<!DOCTYPE svg PUBLIC "-//W3C//DTD SVG 1.1//EN" "http://www.w3.org/Graphics/SVG/1.1/DTD/svg11.dtd">
<svg width="100%" height="100%" viewBox="0 0 184 184" version="1.1" xmlns="http://www.w3.org/2000/svg" xmlns:xlink="http://www.w3.org/1999/xlink" xml:space="preserve" xmlns:serif="http://www.serif.com/" style="fill-rule:evenodd;clip-rule:evenodd;stroke-linejoin:round;stroke-miterlimit:2;">
    <circle cx="92" cy="92" r="92" style="fill:white;"/>
    <path d="M46.16,72.4L46.16,92L44.452,92L31.852,76.096L31.852,92L29.78,92L29.78,72.4L31.488,72.4L44.116,88.304L44.116,72.4L46.16,72.4ZM58.157,92.14C56.739,92.14 55.46,91.823 54.321,91.188C53.183,90.535 52.287,89.639 51.633,88.5C50.98,87.361 50.653,86.073 50.653,84.636C50.653,83.199 50.98,81.911 51.633,80.772C52.287,79.633 53.183,78.747 54.321,78.112C55.46,77.477 56.739,77.16 58.157,77.16C59.576,77.16 60.855,77.477 61.993,78.112C63.132,78.747 64.019,79.633 64.653,80.772C65.307,81.911 65.633,83.199 65.633,84.636C65.633,86.073 65.307,87.361 64.653,88.5C64.019,89.639 63.132,90.535 61.993,91.188C60.855,91.823 59.576,92.14 58.157,92.14ZM58.157,90.376C59.203,90.376 60.136,90.143 60.957,89.676C61.797,89.191 62.451,88.509 62.917,87.632C63.384,86.755 63.617,85.756 63.617,84.636C63.617,83.516 63.384,82.517 62.917,81.64C62.451,80.763 61.797,80.091 60.957,79.624C60.136,79.139 59.203,78.896 58.157,78.896C57.112,78.896 56.169,79.139 55.329,79.624C54.508,80.091 53.855,80.763 53.369,81.64C52.903,82.517 52.669,83.516 52.669,84.636C52.669,85.756 52.903,86.755 53.369,87.632C53.855,88.509 54.508,89.191 55.329,89.676C56.169,90.143 57.112,90.376 58.157,90.376ZM88.06,77.16C89.908,77.16 91.355,77.692 92.4,78.756C93.464,79.82 93.996,81.388 93.996,83.46L93.996,92L92.008,92L92.008,83.656C92.008,82.125 91.635,80.959 90.888,80.156C90.16,79.353 89.124,78.952 87.78,78.952C86.249,78.952 85.045,79.428 84.168,80.38C83.291,81.313 82.852,82.611 82.852,84.272L82.852,92L80.864,92L80.864,83.656C80.864,82.125 80.491,80.959 79.744,80.156C79.016,79.353 77.971,78.952 76.608,78.952C75.096,78.952 73.892,79.428 72.996,80.38C72.119,81.313 71.68,82.611 71.68,84.272L71.68,92L69.692,92L69.692,77.272L71.596,77.272L71.596,79.96C72.119,79.064 72.847,78.373 73.78,77.888C74.713,77.403 75.787,77.16 77,77.16C78.232,77.16 79.296,77.421 80.192,77.944C81.107,78.467 81.788,79.241 82.236,80.268C82.777,79.297 83.552,78.541 84.56,78C85.587,77.44 86.753,77.16 88.06,77.16ZM111.867,77.16C113.79,77.16 115.265,77.645 116.291,78.616C117.318,79.568 117.831,80.987 117.831,82.872L117.831,92L115.927,92L115.927,89.704C115.479,90.469 114.817,91.067 113.939,91.496C113.081,91.925 112.054,92.14 110.859,92.14C109.217,92.14 107.91,91.748 106.939,90.964C105.969,90.18 105.483,89.144 105.483,87.856C105.483,86.605 105.931,85.597 106.827,84.832C107.742,84.067 109.189,83.684 111.167,83.684L115.843,83.684L115.843,82.788C115.843,81.519 115.489,80.557 114.779,79.904C114.07,79.232 113.034,78.896 111.671,78.896C110.738,78.896 109.842,79.055 108.983,79.372C108.125,79.671 107.387,80.091 106.771,80.632L105.875,79.148C106.622,78.513 107.518,78.028 108.563,77.692C109.609,77.337 110.71,77.16 111.867,77.16ZM111.167,90.572C112.287,90.572 113.249,90.32 114.051,89.816C114.854,89.293 115.451,88.547 115.843,87.576L115.843,85.168L111.223,85.168C108.703,85.168 107.443,86.045 107.443,87.8C107.443,88.659 107.77,89.34 108.423,89.844C109.077,90.329 109.991,90.572 111.167,90.572ZM130.819,77.16C132.2,77.16 133.451,77.477 134.571,78.112C135.691,78.728 136.568,79.605 137.203,80.744C137.838,81.883 138.155,83.18 138.155,84.636C138.155,86.111 137.838,87.417 137.203,88.556C136.568,89.695 135.691,90.581 134.571,91.216C133.47,91.832 132.219,92.14 130.819,92.14C129.624,92.14 128.542,91.897 127.571,91.412C126.619,90.908 125.835,90.18 125.219,89.228L125.219,97.432L123.231,97.432L123.231,77.272L125.135,77.272L125.135,80.184C125.732,79.213 126.516,78.467 127.487,77.944C128.476,77.421 129.587,77.16 130.819,77.16ZM130.679,90.376C131.706,90.376 132.639,90.143 133.479,89.676C134.319,89.191 134.972,88.509 135.439,87.632C135.924,86.755 136.167,85.756 136.167,84.636C136.167,83.516 135.924,82.527 135.439,81.668C134.972,80.791 134.319,80.109 133.479,79.624C132.639,79.139 131.706,78.896 130.679,78.896C129.634,78.896 128.691,79.139 127.851,79.624C127.03,80.109 126.376,80.791 125.891,81.668C125.424,82.527 125.191,83.516 125.191,84.636C125.191,85.756 125.424,86.755 125.891,87.632C126.376,88.509 127.03,89.191 127.851,89.676C128.691,90.143 129.634,90.376 130.679,90.376ZM149.796,77.16C151.177,77.16 152.428,77.477 153.548,78.112C154.668,78.728 155.545,79.605 156.18,80.744C156.814,81.883 157.132,83.18 157.132,84.636C157.132,86.111 156.814,87.417 156.18,88.556C155.545,89.695 154.668,90.581 153.548,91.216C152.446,91.832 151.196,92.14 149.796,92.14C148.601,92.14 147.518,91.897 146.548,91.412C145.596,90.908 144.812,90.18 144.196,89.228L144.196,97.432L142.208,97.432L142.208,77.272L144.112,77.272L144.112,80.184C144.709,79.213 145.493,78.467 146.464,77.944C147.453,77.421 148.564,77.16 149.796,77.16ZM149.656,90.376C150.682,90.376 151.616,90.143 152.456,89.676C153.296,89.191 153.949,88.509 154.416,87.632C154.901,86.755 155.144,85.756 155.144,84.636C155.144,83.516 154.901,82.527 154.416,81.668C153.949,80.791 153.296,80.109 152.456,79.624C151.616,79.139 150.682,78.896 149.656,78.896C148.61,78.896 147.668,79.139 146.828,79.624C146.006,80.109 145.353,80.791 144.868,81.668C144.401,82.527 144.168,83.516 144.168,84.636C144.168,85.756 144.401,86.755 144.868,87.632C145.353,88.509 146.006,89.191 146.828,89.676C147.668,90.143 148.61,90.376 149.656,90.376ZM60.405,106.4L62.477,106.4L62.477,124.208L73.453,124.208L73.453,126L60.405,126L60.405,106.4ZM82.274,126.14C80.856,126.14 79.577,125.823 78.438,125.188C77.3,124.535 76.404,123.639 75.75,122.5C75.097,121.361 74.77,120.073 74.77,118.636C74.77,117.199 75.097,115.911 75.75,114.772C76.404,113.633 77.3,112.747 78.438,112.112C79.577,111.477 80.856,111.16 82.274,111.16C83.693,111.16 84.972,111.477 86.11,112.112C87.249,112.747 88.136,113.633 88.77,114.772C89.424,115.911 89.75,117.199 89.75,118.636C89.75,120.073 89.424,121.361 88.77,122.5C88.136,123.639 87.249,124.535 86.11,125.188C84.972,125.823 83.693,126.14 82.274,126.14ZM82.274,124.376C83.32,124.376 84.253,124.143 85.074,123.676C85.914,123.191 86.568,122.509 87.034,121.632C87.501,120.755 87.734,119.756 87.734,118.636C87.734,117.516 87.501,116.517 87.034,115.64C86.568,114.763 85.914,114.091 85.074,113.624C84.253,113.139 83.32,112.896 82.274,112.896C81.229,112.896 80.286,113.139 79.446,113.624C78.625,114.091 77.972,114.763 77.486,115.64C77.02,116.517 76.786,117.516 76.786,118.636C76.786,119.756 77.02,120.755 77.486,121.632C77.972,122.509 78.625,123.191 79.446,123.676C80.286,124.143 81.229,124.376 82.274,124.376ZM107.445,111.272L107.445,124.208C107.445,126.709 106.829,128.557 105.597,129.752C104.384,130.965 102.545,131.572 100.081,131.572C98.718,131.572 97.421,131.367 96.189,130.956C94.976,130.564 93.986,130.013 93.221,129.304L94.229,127.792C94.938,128.427 95.797,128.921 96.805,129.276C97.832,129.631 98.905,129.808 100.025,129.808C101.892,129.808 103.264,129.369 104.141,128.492C105.018,127.633 105.457,126.289 105.457,124.46L105.457,122.584C104.841,123.517 104.029,124.227 103.021,124.712C102.032,125.197 100.93,125.44 99.717,125.44C98.336,125.44 97.076,125.141 95.937,124.544C94.817,123.928 93.93,123.079 93.277,121.996C92.642,120.895 92.325,119.653 92.325,118.272C92.325,116.891 92.642,115.659 93.277,114.576C93.93,113.493 94.817,112.653 95.937,112.056C97.057,111.459 98.317,111.16 99.717,111.16C100.968,111.16 102.097,111.412 103.105,111.916C104.113,112.42 104.925,113.148 105.541,114.1L105.541,111.272L107.445,111.272ZM99.913,123.676C100.977,123.676 101.938,123.452 102.797,123.004C103.656,122.537 104.318,121.893 104.785,121.072C105.27,120.251 105.513,119.317 105.513,118.272C105.513,117.227 105.27,116.303 104.785,115.5C104.318,114.679 103.656,114.044 102.797,113.596C101.957,113.129 100.996,112.896 99.913,112.896C98.849,112.896 97.888,113.12 97.029,113.568C96.189,114.016 95.526,114.651 95.041,115.472C94.574,116.293 94.341,117.227 94.341,118.272C94.341,119.317 94.574,120.251 95.041,121.072C95.526,121.893 96.189,122.537 97.029,123.004C97.888,123.452 98.849,123.676 99.913,123.676ZM119.024,126.14C117.606,126.14 116.327,125.823 115.188,125.188C114.05,124.535 113.154,123.639 112.5,122.5C111.847,121.361 111.52,120.073 111.52,118.636C111.52,117.199 111.847,115.911 112.5,114.772C113.154,113.633 114.05,112.747 115.188,112.112C116.327,111.477 117.606,111.16 119.024,111.16C120.443,111.16 121.722,111.477 122.86,112.112C123.999,112.747 124.886,113.633 125.52,114.772C126.174,115.911 126.5,117.199 126.5,118.636C126.5,120.073 126.174,121.361 125.52,122.5C124.886,123.639 123.999,124.535 122.86,125.188C121.722,125.823 120.443,126.14 119.024,126.14ZM119.024,124.376C120.07,124.376 121.003,124.143 121.824,123.676C122.664,123.191 123.318,122.509 123.784,121.632C124.251,120.755 124.484,119.756 124.484,118.636C124.484,117.516 124.251,116.517 123.784,115.64C123.318,114.763 122.664,114.091 121.824,113.624C121.003,113.139 120.07,112.896 119.024,112.896C117.979,112.896 117.036,113.139 116.196,113.624C115.375,114.091 114.722,114.763 114.236,115.64C113.77,116.517 113.536,117.516 113.536,118.636C113.536,119.756 113.77,120.755 114.236,121.632C114.722,122.509 115.375,123.191 116.196,123.676C117.036,124.143 117.979,124.376 119.024,124.376Z" style="fill:rgb(1,84,104);fill-rule:nonzero;"/>
</svg>
