<?xml version="1.0" encoding="UTF-8" standalone="no"?>
<!DOCTYPE svg PUBLIC "-//W3C//DTD SVG 1.1//EN" "http://www.w3.org/Graphics/SVG/1.1/DTD/svg11.dtd">
<svg width="100%" height="100%" viewBox="0 0 177 31" version="1.1" xmlns="http://www.w3.org/2000/svg" xmlns:xlink="http://www.w3.org/1999/xlink" xml:space="preserve" xmlns:serif="http://www.serif.com/" style="fill-rule:evenodd;clip-rule:evenodd;stroke-linejoin:round;stroke-miterlimit:2;">
    <g transform="matrix(1,0,0,1,0,-0.944)">
        <path d="M177,22.5C177,19.464 174.536,17 171.5,17L9.5,17C6.464,17 4,19.464 4,22.5C4,25.536 6.464,28 9.5,28L171.5,28C174.536,28 177,25.536 177,22.5Z" style="fill:rgb(236,236,236);"/>
    </g>
    <g transform="matrix(1,0,0,1,0,-0.944)">
        <path d="M169,22C169,19.24 166.76,17 164,17L5,17C2.24,17 0,19.24 0,22L0,23C0,25.76 2.24,28 5,28L164,28C166.76,28 169,25.76 169,23L169,22Z" style="fill:rgb(1,84,104);"/>
    </g>
    <g transform="matrix(1,0,0,1,0,-0.944)">
        <circle cx="168.5" cy="22.5" r="8.5" style="fill:rgb(254,173,84);"/>
    </g>
    <g transform="matrix(1,0,0,1,0,-0.944)">
        <path d="M69.987,4.096C70.312,4.187 70.568,4.352 70.755,4.592C70.942,4.827 71.035,5.125 71.035,5.488C71.035,5.973 70.851,6.347 70.483,6.608C70.12,6.869 69.59,7 68.891,7L66.219,7L66.219,1.4L68.731,1.4C69.371,1.4 69.864,1.528 70.211,1.784C70.563,2.04 70.739,2.395 70.739,2.848C70.739,3.141 70.67,3.395 70.531,3.608C70.398,3.821 70.216,3.984 69.987,4.096ZM67.019,2.048L67.019,3.84L68.659,3.84C69.07,3.84 69.384,3.765 69.603,3.616C69.827,3.461 69.939,3.237 69.939,2.944C69.939,2.651 69.827,2.429 69.603,2.28C69.384,2.125 69.07,2.048 68.659,2.048L67.019,2.048ZM68.859,6.352C69.312,6.352 69.654,6.277 69.883,6.128C70.112,5.979 70.227,5.744 70.227,5.424C70.227,4.8 69.771,4.488 68.859,4.488L67.019,4.488L67.019,6.352L68.859,6.352ZM72.162,2.76L72.93,2.76L72.93,7L72.162,7L72.162,2.76ZM72.546,1.944C72.396,1.944 72.271,1.896 72.17,1.8C72.074,1.704 72.026,1.587 72.026,1.448C72.026,1.309 72.074,1.192 72.17,1.096C72.271,0.995 72.396,0.944 72.546,0.944C72.695,0.944 72.818,0.992 72.914,1.088C73.015,1.179 73.066,1.293 73.066,1.432C73.066,1.576 73.015,1.699 72.914,1.8C72.818,1.896 72.695,1.944 72.546,1.944ZM78.228,4.904C78.228,4.963 78.223,5.04 78.212,5.136L74.772,5.136C74.82,5.509 74.983,5.811 75.26,6.04C75.543,6.264 75.892,6.376 76.308,6.376C76.815,6.376 77.223,6.205 77.532,5.864L77.956,6.36C77.764,6.584 77.524,6.755 77.236,6.872C76.953,6.989 76.636,7.048 76.284,7.048C75.836,7.048 75.439,6.957 75.092,6.776C74.745,6.589 74.476,6.331 74.284,6C74.097,5.669 74.004,5.296 74.004,4.88C74.004,4.469 74.095,4.099 74.276,3.768C74.463,3.437 74.716,3.181 75.036,3C75.361,2.813 75.727,2.72 76.132,2.72C76.537,2.72 76.897,2.813 77.212,3C77.532,3.181 77.78,3.437 77.956,3.768C78.137,4.099 78.228,4.477 78.228,4.904ZM76.132,3.368C75.764,3.368 75.455,3.48 75.204,3.704C74.959,3.928 74.815,4.221 74.772,4.584L77.492,4.584C77.449,4.227 77.303,3.936 77.052,3.712C76.807,3.483 76.5,3.368 76.132,3.368ZM81.558,2.72C82.097,2.72 82.524,2.877 82.838,3.192C83.158,3.501 83.318,3.957 83.318,4.56L83.318,7L82.55,7L82.55,4.648C82.55,4.237 82.452,3.928 82.254,3.72C82.057,3.512 81.774,3.408 81.406,3.408C80.99,3.408 80.662,3.531 80.422,3.776C80.182,4.016 80.062,4.363 80.062,4.816L80.062,7L79.294,7L79.294,2.76L80.03,2.76L80.03,3.4C80.185,3.181 80.393,3.013 80.654,2.896C80.921,2.779 81.222,2.72 81.558,2.72ZM87.624,3.472C87.757,3.227 87.955,3.04 88.216,2.912C88.478,2.784 88.795,2.72 89.168,2.72L89.168,3.464C89.126,3.459 89.067,3.456 88.992,3.456C88.576,3.456 88.248,3.581 88.008,3.832C87.774,4.077 87.656,4.429 87.656,4.888L87.656,7L86.888,7L86.888,2.76L87.624,2.76L87.624,3.472ZM93.908,4.904C93.908,4.963 93.902,5.04 93.892,5.136L90.452,5.136C90.5,5.509 90.662,5.811 90.94,6.04C91.222,6.264 91.572,6.376 91.988,6.376C92.494,6.376 92.902,6.205 93.212,5.864L93.636,6.36C93.444,6.584 93.204,6.755 92.916,6.872C92.633,6.989 92.316,7.048 91.964,7.048C91.516,7.048 91.118,6.957 90.772,6.776C90.425,6.589 90.156,6.331 89.964,6C89.777,5.669 89.684,5.296 89.684,4.88C89.684,4.469 89.774,4.099 89.956,3.768C90.142,3.437 90.396,3.181 90.716,3C91.041,2.813 91.406,2.72 91.812,2.72C92.217,2.72 92.577,2.813 92.892,3C93.212,3.181 93.46,3.437 93.636,3.768C93.817,4.099 93.908,4.477 93.908,4.904ZM91.812,3.368C91.444,3.368 91.134,3.48 90.884,3.704C90.638,3.928 90.494,4.221 90.452,4.584L93.172,4.584C93.129,4.227 92.982,3.936 92.732,3.712C92.486,3.483 92.18,3.368 91.812,3.368ZM100.278,2.72C100.811,2.72 101.233,2.875 101.542,3.184C101.857,3.493 102.014,3.952 102.014,4.56L102.014,7L101.246,7L101.246,4.648C101.246,4.237 101.15,3.928 100.958,3.72C100.771,3.512 100.502,3.408 100.15,3.408C99.761,3.408 99.451,3.531 99.222,3.776C98.993,4.016 98.878,4.363 98.878,4.816L98.878,7L98.11,7L98.11,4.648C98.11,4.237 98.014,3.928 97.822,3.72C97.635,3.512 97.366,3.408 97.014,3.408C96.625,3.408 96.315,3.531 96.086,3.776C95.857,4.016 95.742,4.363 95.742,4.816L95.742,7L94.974,7L94.974,2.76L95.71,2.76L95.71,3.392C95.865,3.173 96.067,3.008 96.318,2.896C96.569,2.779 96.854,2.72 97.174,2.72C97.505,2.72 97.798,2.787 98.054,2.92C98.31,3.053 98.507,3.248 98.646,3.504C98.806,3.259 99.027,3.067 99.31,2.928C99.598,2.789 99.921,2.72 100.278,2.72ZM105.675,2.72C106.086,2.72 106.454,2.811 106.779,2.992C107.105,3.173 107.358,3.427 107.539,3.752C107.726,4.077 107.819,4.453 107.819,4.88C107.819,5.307 107.726,5.685 107.539,6.016C107.358,6.341 107.105,6.595 106.779,6.776C106.454,6.957 106.086,7.048 105.675,7.048C105.371,7.048 105.091,6.989 104.835,6.872C104.585,6.755 104.371,6.584 104.195,6.36L104.195,8.552L103.427,8.552L103.427,2.76L104.163,2.76L104.163,3.432C104.334,3.197 104.55,3.021 104.811,2.904C105.073,2.781 105.361,2.72 105.675,2.72ZM105.611,6.376C105.883,6.376 106.126,6.315 106.339,6.192C106.558,6.064 106.729,5.888 106.851,5.664C106.979,5.435 107.043,5.173 107.043,4.88C107.043,4.587 106.979,4.328 106.851,4.104C106.729,3.875 106.558,3.699 106.339,3.576C106.126,3.453 105.883,3.392 105.611,3.392C105.345,3.392 105.102,3.456 104.883,3.584C104.67,3.707 104.499,3.88 104.371,4.104C104.249,4.328 104.187,4.587 104.187,4.88C104.187,5.173 104.249,5.435 104.371,5.664C104.494,5.888 104.665,6.064 104.883,6.192C105.102,6.315 105.345,6.376 105.611,6.376ZM108.88,1.064L109.648,1.064L109.648,7L108.88,7L108.88,1.064ZM111.115,2.76L111.883,2.76L111.883,7L111.115,7L111.115,2.76ZM111.499,1.944C111.349,1.944 111.224,1.896 111.123,1.8C111.027,1.704 110.979,1.587 110.979,1.448C110.979,1.309 111.027,1.192 111.123,1.096C111.224,0.995 111.349,0.944 111.499,0.944C111.648,0.944 111.771,0.992 111.867,1.088C111.968,1.179 112.019,1.293 112.019,1.432C112.019,1.576 111.968,1.699 111.867,1.8C111.771,1.896 111.648,1.944 111.499,1.944Z" style="fill:rgb(94,94,94);fill-rule:nonzero;"/>
    </g>
</svg>
