<?xml version="1.0" encoding="UTF-8" standalone="no"?>
<!DOCTYPE svg PUBLIC "-//W3C//DTD SVG 1.1//EN" "http://www.w3.org/Graphics/SVG/1.1/DTD/svg11.dtd">
<svg width="100%" height="100%" viewBox="0 0 209 179" version="1.1" xmlns="http://www.w3.org/2000/svg" xmlns:xlink="http://www.w3.org/1999/xlink" xml:space="preserve" xmlns:serif="http://www.serif.com/" style="fill-rule:evenodd;clip-rule:evenodd;stroke-linejoin:round;stroke-miterlimit:2;">
    <g transform="matrix(1,0,0,1,-0.961916,0)">
        <circle cx="104.5" cy="89.5" r="89.5" style="fill:rgb(1,84,104);fill-opacity:0.13;"/>
    </g>
    <g transform="matrix(1,0,0,1,-0.961916,0)">
        <path d="M79.824,74.635C73.887,69.582 65.188,68.034 60.221,61.821C57.701,58.653 56.077,54.906 52.249,53.044C48.977,51.448 45.173,51.327 41.684,52.198C37.589,53.237 34.027,55.704 30.853,58.387C27.896,60.902 25.086,63.634 22.493,66.535C17.429,72.217 13.188,78.745 10.838,86.023C8.536,93.107 7.348,102.827 14.933,107.155C18.592,109.234 22.977,110.37 26.903,111.797C31.192,113.369 35.481,114.964 39.794,116.488C47.839,119.316 57.216,121.903 65.455,118.325C68.072,117.189 70.47,115.472 72.385,113.369C77.74,108.944 80.647,102.005 83.192,95.743C84.621,92.237 85.93,88.465 85.494,84.621C85.058,80.583 82.853,77.198 79.824,74.635Z" style="fill:rgb(7,155,171);fill-rule:nonzero;"/>
    </g>
    <g transform="matrix(1,0,0,1,-0.961916,0)">
        <path d="M85.712,102.198C82.562,96.879 76.795,93.784 70.761,93.615C70.519,92.938 69.622,92.454 68.896,93.059C68.653,93.276 68.435,93.494 68.193,93.712C67.587,93.784 66.981,93.833 66.376,93.953C64.946,94.268 64.728,95.743 65.334,96.71C64.243,98.04 63.225,99.418 62.184,100.772C60.003,103.625 57.483,105.946 54.139,107.372C47.33,110.298 39.212,109.863 31.991,109.355C27.63,109.041 23.268,108.509 18.955,107.711C15.466,107.058 11.759,105.704 8.172,105.922C4.998,106.115 2.187,107.832 1.291,110.999C0.346,114.263 1.533,117.527 3.641,120.042C5.895,122.726 9.093,124.732 12.122,126.449C15.224,128.214 18.519,129.689 21.911,130.849C28.793,133.219 36.111,134.331 43.356,134.573C50.577,134.815 57.943,134.259 65.043,132.88C72.07,131.502 79.073,128.698 83.749,123.064C88.668,117.165 89.662,108.847 85.712,102.198Z" style="fill:rgb(7,155,171);fill-opacity:0.5;fill-rule:nonzero;"/>
    </g>
    <g transform="matrix(1,0,0,1,-0.961916,0)">
        <path d="M130.951,110.806C129.788,109.718 128.262,108.485 126.832,107.3C122.664,103.842 118.085,100.941 115.468,99.732C113.19,98.668 105.727,95.622 99.475,93.881C99.96,93.446 100.444,93.01 100.953,92.599C102.116,91.584 103.643,90.544 104.2,89.021C104.685,87.667 104.031,86.168 102.625,85.733C101.147,85.249 99.378,85.975 97.973,86.41C96.059,86.99 94.168,87.643 92.327,88.441C90.534,89.215 88.789,90.109 87.117,91.1C85.591,90.254 84.064,89.408 82.538,88.586C79.606,86.966 76.698,85.177 73.669,83.702C71.004,82.42 68.677,83.073 66.133,84.331C63.468,85.66 54.405,93.131 55.811,103.987C56.126,106.526 57.749,109.016 59.421,110.999C61.335,113.272 63.928,113.586 66.715,113.755C73.063,114.142 79.048,115.569 85.082,117.358L85.082,117.455C87.602,118.083 90.195,119.099 92.812,120.066C92.812,120.066 93.054,120.163 93.466,120.308C93.539,120.332 93.635,120.38 93.732,120.404C93.829,120.429 93.926,120.477 94.023,120.501C97.173,121.662 105.678,124.587 109.168,124.104C110.961,123.862 110.84,122.991 109.507,121.807C107.617,120.138 103.304,117.866 98.603,115.883C98.603,115.883 102.019,115.956 106.09,118.18C108.247,119.341 110.573,120.453 112.851,121.081C114.886,121.637 116.849,121.831 118.618,121.347C119.757,121.033 119.514,120.235 118.545,119.22C116.267,116.85 110.016,113.32 107.593,112.063C104.128,110.274 104.37,110.443 101.462,109.5C101.777,109.548 106.89,110.25 109.58,111.386C111.566,112.232 116.776,116.149 121.017,118.107C122.664,118.857 124.142,119.316 125.281,119.195C127.559,118.954 126.977,117.551 125.136,115.811C123.731,114.457 121.598,112.861 119.466,111.41C114.62,108.073 112.293,106.308 110.234,105.075C108.053,103.746 103.934,102.44 103.619,102.367C104.079,102.392 111.227,103.939 113.553,104.737C115.613,105.438 123.294,111.217 128.504,113.272C129.401,113.634 130.224,113.876 130.927,113.949C134.126,114.336 133.156,112.837 130.951,110.806Z" style="fill:rgb(251,148,118);fill-rule:nonzero;"/>
    </g>
    <g transform="matrix(1,0,0,1,-0.961916,0)">
        <path d="M144.545,103.673C143.115,101.956 140.959,100.796 138.754,100.772C140.256,98.62 141.492,96.154 141.274,93.567C141.007,90.52 138.584,88.562 135.725,88.03C132.478,87.401 126.347,87.861 123.924,90.883C122.446,85.999 119.175,81.647 114.135,79.978C108.392,78.068 101.704,80.196 99.281,85.975C98.7,87.353 98.433,88.804 98.457,90.254C97.44,89.746 96.252,89.601 95.089,90.012C93.684,90.496 92.69,91.584 92.23,92.89C89.734,90.399 85.372,89.819 82.295,91.729C77.473,94.703 76.31,101.304 78.442,106.236C78.879,107.227 79.436,108.146 80.09,108.992C76.746,109.089 73.523,111.217 72.506,114.868C70.882,120.719 76.358,125.699 81.689,126.691C85.881,127.489 90.122,126.618 94.241,125.724C94.338,125.699 94.386,125.651 94.459,125.627C94.483,125.748 94.532,125.893 94.653,126.014C97.973,130.027 103.134,134.524 108.707,131.889C110.791,130.898 112.099,128.891 112.075,126.594C112.075,126.11 112.002,125.651 111.881,125.192C114.304,126.231 116.849,127.005 119.441,127.392C122.494,127.827 125.96,127.755 128.601,125.965C130.854,124.418 131.896,121.976 131.412,119.292C131.339,118.954 131.242,118.591 131.121,118.277C133.302,118.76 135.531,118.881 137.76,118.398C141.031,117.696 144.036,115.496 145.466,112.45C146.847,109.476 146.604,106.163 144.545,103.673Z" style="fill:white;fill-rule:nonzero;"/>
    </g>
    <g transform="matrix(1,0,0,1,-0.961916,0)">
        <path d="M200.761,65.278C198.217,61.7 195.188,58.46 191.699,55.824C188.427,53.358 184.284,50.795 180.043,51.013C175.9,51.231 172.871,54.205 170.569,57.396C167.952,61.023 165.917,64.988 162.524,67.986C155.158,74.466 145.272,76.763 136.767,81.284C129.691,85.056 123.076,91.076 121.937,99.418C121.695,101.255 121.816,102.996 122.325,104.761C122.494,105.366 123.052,105.535 123.488,105.414C123.633,108.775 124.627,112.16 126.056,115.061C129.691,122.484 136.185,128.383 144.908,127.706C149.149,127.368 153.195,125.748 157.145,124.225C162.185,122.29 167.225,120.356 172.265,118.398C177.208,116.488 182.152,114.602 187.07,112.692C191.408,111.023 195.745,109.355 199.646,106.768C214.379,96.903 209.387,77.512 200.761,65.278Z" style="fill:rgb(7,155,171);fill-rule:nonzero;"/>
    </g>
    <g transform="matrix(1,0,0,1,-0.961916,0)">
        <path d="M199.526,104.882C196.303,104.664 192.886,105.849 189.833,106.72C186.392,107.711 183.024,108.896 179.68,110.105C166.499,114.868 152.202,120.356 138.221,115.569C137.494,114.674 136.888,113.731 136.331,112.74C134.804,112.667 133.302,112.353 131.896,111.773C128.189,110.225 125.257,107.469 122.834,104.278C120.92,103.576 119.127,102.633 117.697,101.352C116.17,99.998 115.201,98.378 115.08,96.492C114.862,97.048 114.644,97.604 114.474,98.161C113.093,102.392 112.948,106.961 114.256,111.168C114.208,111.313 114.184,111.459 114.232,111.628C114.862,114.892 115.589,118.277 117.939,120.815C118.836,121.783 119.902,122.556 121.089,123.112C120.581,126.981 122.374,130.898 125.79,133.412C130.951,137.184 137.809,136.797 143.842,136.338C150.676,135.83 157.436,134.621 164.027,132.784C177.063,129.157 189.373,123.185 200.156,115.037C202.143,113.538 204.978,111.797 204.808,108.944C204.638,106.284 201.949,105.051 199.526,104.882Z" style="fill:rgb(7,155,171);fill-opacity:0.5;fill-rule:nonzero;"/>
    </g>
    <g transform="matrix(1,0,0,1,-0.961916,0)">
        <path d="M143.552,98.547C140.668,96.371 137.033,95.477 133.447,95.864C131.17,96.105 127.947,96.444 124.748,96.71C124.554,96.782 121.429,97.846 117.649,99.369C114.814,98.886 111.954,98.62 109.095,98.62C107.108,98.62 105.097,98.741 103.11,98.958C101.632,99.128 99.742,99.152 98.555,100.167C97.44,101.134 97.391,102.754 98.385,103.818C99.475,105.003 101.317,105.366 102.771,105.849C103.401,106.067 104.006,106.26 104.636,106.454C99.548,110.491 93.902,116.222 92.206,118.083C90.267,120.211 87.19,124.66 84.719,129.495C83.87,131.164 82.95,132.88 82.295,134.331C81.06,137.063 80.769,138.804 83.531,137.208C84.161,136.846 84.815,136.314 85.494,135.637C89.492,131.72 94.29,123.403 95.913,121.952C97.755,120.308 103.716,116.077 104.128,115.883C103.861,116.052 100.59,118.881 99.112,120.936C97.706,122.871 96.277,125.409 93.103,130.366C91.721,132.542 90.389,134.815 89.613,136.628C88.62,138.949 88.62,140.472 90.825,139.795C91.915,139.457 93.103,138.466 94.314,137.136C97.464,133.678 100.711,128.045 102.189,126.473C104.2,124.37 108.635,121.734 108.901,121.565C106.575,123.572 106.745,123.33 104.273,126.304C102.553,128.383 98.167,134.089 97.004,137.16C96.495,138.49 96.592,139.312 97.755,139.143C99.572,138.901 101.317,137.958 102.965,136.652C104.806,135.177 106.527,133.267 108.053,131.333C110.937,127.706 114.038,126.304 114.038,126.304C110.476,129.979 107.399,133.751 106.333,136.024C105.557,137.619 105.8,138.466 107.544,138.006C110.961,137.063 117.624,131.067 120.072,128.77C120.144,128.698 120.217,128.625 120.29,128.553C120.362,128.48 120.435,128.407 120.484,128.359C120.823,128.045 120.992,127.876 120.992,127.876C123.028,125.965 125.015,124.007 127.074,122.46C130.152,120.138 133.447,118.712 137.494,119.558C146.774,121.541 153.438,105.994 143.552,98.547Z" style="fill:rgb(251,185,144);fill-rule:nonzero;"/>
    </g>
    <g transform="matrix(1,0,0,1,-0.961916,0)">
        <path d="M130.734,75.506C132.647,75.506 134.199,73.958 134.199,72.048C134.199,70.138 132.647,68.591 130.734,68.591C128.82,68.591 127.269,70.138 127.269,72.048C127.269,73.958 128.82,75.506 130.734,75.506Z" style="fill:white;fill-rule:nonzero;"/>
    </g>
    <g transform="matrix(1,0,0,1,-0.961916,0)">
        <path d="M121.768,70.452C121.768,71.492 120.92,72.314 119.902,72.314C118.884,72.314 118.036,71.468 118.036,70.452C118.036,69.413 118.884,68.591 119.902,68.591C120.92,68.591 121.768,69.413 121.768,70.452Z" style="fill:white;fill-rule:nonzero;"/>
    </g>
    <g transform="matrix(1,0,0,1,-0.961916,0)">
        <path d="M72.773,130.172C72.773,131.526 71.682,132.614 70.325,132.614C68.968,132.614 67.878,131.526 67.878,130.172C67.878,128.818 68.968,127.73 70.325,127.73C71.682,127.73 72.773,128.843 72.773,130.172Z" style="fill:white;fill-rule:nonzero;"/>
    </g>
    <g transform="matrix(1,0,0,1,-0.961916,0)">
        <path d="M59.227,125.941C59.227,126.933 58.428,127.73 57.434,127.73C56.441,127.73 55.641,126.933 55.641,125.941C55.641,124.95 56.441,124.152 57.434,124.152C58.428,124.128 59.227,124.95 59.227,125.941Z" style="fill:white;fill-rule:nonzero;"/>
    </g>
    <g transform="matrix(1,0,0,1,-0.961916,0)">
        <path d="M134.95,137.885C134.95,139.046 134.005,139.989 132.841,139.989C131.678,139.989 130.733,139.046 130.733,137.885C130.733,136.725 131.678,135.782 132.841,135.782C134.005,135.782 134.95,136.749 134.95,137.885Z" style="fill:white;fill-rule:nonzero;"/>
    </g>
</svg>
